<mxfile host="Electron" modified="2023-05-03T02:53:39.714Z" agent="Mozilla/5.0 (Windows NT 10.0; Win64; x64) AppleWebKit/537.36 (KHTML, like Gecko) draw.io/21.1.2 Chrome/106.0.5249.199 Electron/21.4.3 Safari/537.36" etag="8zEBjuXRz_sj94y4pc4F" version="21.1.2" type="device">
  <diagram name="Page-1" id="koRoWIWQyMUksjV8-nZN">
    <mxGraphModel dx="1098" dy="820" grid="1" gridSize="10" guides="1" tooltips="1" connect="1" arrows="1" fold="1" page="1" pageScale="1" pageWidth="850" pageHeight="1100" math="0" shadow="0">
      <root>
        <mxCell id="0" />
        <mxCell id="1" parent="0" />
        <mxCell id="5yBTFeDSIv5BDCsm_Nhx-1" value="" style="shape=image;verticalLabelPosition=bottom;labelBackgroundColor=default;verticalAlign=top;aspect=fixed;imageAspect=0;image=data:image/png,iVBORw0KGgoAAAANSUhEUgAAAy8AAAKqCAYAAAAzJ2HvAAAAAXNSR0IArs4c6QAAAARnQU1BAACxjwv8YQUAAAAJcEhZcwAAFxEAABcRAcom8z8AAP+lSURBVHhe7J0FeFNn+8afE7S0pS7RpobN9Zszd/+2b/qfD5jANibAYGPugsNwGWzAGHN3NubCBN2YAcPdpef/3Mk5LIQkTdsUKvfvuu4rbfLmPSehtOfOY0IIIYQQQgghhBBCCCGEEEIIIYQQQgghhBBCCCGEEEIIIYQQQgghhBBCCCGEEEIIIYQQQgghhBBCCCGEEEIIIYQQQgghhBBCCCGEEEIIIYQQQgghhBBCCCGEEEIIIYQQQgghhBBCCCGEEEIIIYQQQgghhBBCCCGEEEIIIYQQQgghhBBCCCGEEEIIIYQQQgghhBBCCCGEEEIIIYQQQgghhBBCCCGEEEIIIYQQQgghhBBCCCGEEEIIIYQQQgghhBBCCCGEEEIIIYQQQgghhBBCCCGEEEIIIYQQQgghhBBCyC4kRXW46lZVd9VZqoaqqpClaqNyBb5LDI1Ue6jOUF2julJ1nMqtqggZqkNU/1O1U12sOliVpooXnAteH84F53GZ6niVU0UIIYQQQgipJnDxf7dqk8pUTVAlqSqDoSpV3aQapLpRBbOA+6tCjuq/qqGqH1XrVatUn6juUx2maqKKRQNVSxXO6WXVnyq85gWqSaobVEWq8s41T3W+arDqJ9Vq1TLVFFVPFYxQYxUhhBBCCCEkwdjmZaMK5mW8qjLmBRf9e6oeV8EQwGC8pUKUA8ahssD8wHB8p1qjwr44VwhfwzzAfBytihUxQtSmjwqmZZ1qgwrmBfvg+4Wqh1QlqmjARMGYwbREOpeVqudVMFNVec2EEEIIIYSQCCC1604VLrxhXp5VVca87K/qq/pHhX22qrDXfiqHqjI0UyGt6xvVNtX3qntUiHxcoUIkZrMKRmSsqrUqEj7VA6r5Kqx9RQVDhNQx3L6nwjnDdHVRwTCFg8jO5arpKqz9VoVIC87latVwFd5DGCF8jbQyQgghhBBCSAKpqnlBxGUvVX8V0qewxx+qfirUpEQyAvGAfWF83lBhz9kq1JeE1qbAIIxRIQqyXHWLKvx4SOG6RPWbCvu8pkKNTyhnq2BG8DiM0kmq0MgJvt5HhXQzrJmhCj+XVqphKpi2RSqkoVWkjoYQQgghhBBSDlU1L4Wqp1SLVXg+jAvqUFqoqgIu/GEAlqiQ3jVAhbStUBDROVn1qQrH/lCFlK1QilWI0OBxmCsU+4eTqYLxQdQIkROkl6G2xQaP3676S7VWhdcbqTgfzQ4QHUI0KJJJIoQQQgghhFSBqpgXRDmuUyEdyzYuSKVC4XtV2VuFVDDUk/ygulAViXzVEBWOj7qTDqqmKptzVYiqwAC9oEI0JxIwPTAe2Odr63sbpKOhfgepa6i9QaQGHcfCgVFCBGqLCtGgTipCCCGEEEJIgqiKeTlFNVWF56H7Fy7cE2FcAGpJYIpgGJ5TIW0rEoi+3KZCLQvO42kValwACvgfVcFIIOrSTZWrigRMEMwN9vhbhbQw1NyAU1Uo9MdjiKiga1kkUBfTUWV3bkPHtWwVIYQQQgghJAFU1rwghesJFcwFnve6KlFpUjAdSNPCvhCOE2uGynmqOSpEPNB57D8qgHkzL6qwB4rxL1WFRmVCgVF5UIW0MKSqIfUNhgbngmgOamqwz2hVrFoWmC6knmHtS6p9VVVtFU0IIYQQQghRKmNecEGP+g671mSF6ipVokhXoW0x9obuUtlRkEi0Vb2tQorZ5ypEhAAiJO+osAciJ4igRANRk/aqX1UwHyi+Rz0PjApaSSOyhGJ8tIKO1T3tWBVqY3DMD1QYXhmrhTMhhBBCCCEkTipjXlDAjqJ21JggUoHBlqhRSRQeVW+VbV6QFhYrenGgCvNVYF7QVewiFThI9bEKe8xVHaWKBrqSoa4GNS2IJiGShG5mKNxHKprd0ayzKhYHqGxTh9oZDNcsb4AmIYQQQgghJA4qal5gIlB/8pEK65FihU5gmIGCyEV3FSIlSLU6RhWtxiQWGBSJehHsD2EwZCxwPiNUqDWBwWinAkeqPlNhD5gaDMyMBgrwUYhv1/B8ocLsGgzxxDR9mDREVCJ1KwsFbaORLgYD9LPqMhXeT+xfoMLjMHq4xXnDeMFkYTI/RVEURVEURVVVKKHAdS+uOe0yiDpDRc0LHkM04RcV1uOifpoKU+ftuhAIrZMxowVmBiagItEHpHvZHcQgFMHHApP9sR7mBdEgDJ4EmLqPNDLsgXQw/GNGA+biDNUUFdajwxlMhVcFY4RUMkRvykuPwyR/FP4jxQzzYDBMEylvMHEweKjfeVL1iKqXCgMtx6nwnMkURVEURVEUVUXhg3QMZcd1PToDow68zlBR84JCfcxE+V2F9WUqpFQhAoPhjDAt6OyF+2AmUCsyUgUHGO+k/XDzUl7LYZgXzHJB2thqFf6RECEKNy92IX8kYF7OVNkpXxhWiRQwmBcYDJgXtIIuL/KCc0HTAJgXTOP/PxXMC6IueN/Q/hnd0/CevK/C+4b3CHsjUgNTSFEURVEURVFVEZpZ4fr+XVWpqs5QUfOCi/kHVBjoiPW4xYU4UsZQKA/DgPQrdOv6UYU1uDhHoTvmoMQD2i0jFQ3PhXDRHwt09MKkfZgXnA+iHQDdz2wzgrSxWN3QUPOCiNKXKqzHwEuE2vD+DFQhwoS9r1fFAqlgiDjB1CEihfobvJ+QX4VzhbD3HaqFqlnW16jJoSiKoiiKoqiq6hwVIjC4FkZmUJ2houbFHsSI9RCMC9KrcPEfCvZFxGS2CvvCAaIgPp7oC3LzMMUez4O6qmLl6iGnDyEymBccB4MpAQZSouMX9kBk4zhVNJDWhigJ0t/QcnmiqoUKkabHVIjoICWthyoWGG5pmzbU2yCaE/7e2JymwvuDpgKH4g5CCCGEEEISALKKEHBA5KVemxdc0CONChfyiGYg4hLt4hyF94haIIUMxgIdxGK1PLZJVt2vss0LojhonxyNk1QosEeaGlKx0K4YINJht0rG4ElEhKKZJ8x/uVWF6AoiRThXRJlSVDBP9vsD44YfhmigHbNd+/Om6ghVA1UkMBMG6WwwOSfiDkIIIYQQQhIA6q1RZ13vzQsiL7YhgXlBZ69oxfgZKkRf7BQzpFPFUzCEepWbVagbwfP6qTBzJRpIE0P6FTp8jVKhkxfAjBa0cUYKFx6/VtVcFQmshTHBHjhftGdGS2iYHeyP2hScC/ZD++RooLuYPe0fhfgwcNEINS8wYIQQQgghhCQCXK/SvChoHYyoCArzl6q6qRApiQQMAczNPBX2RlQkWxUPqJ/BzBUYmFdViGBEwp6MbxudnirbIMF4IGqCRgJ4fY+qEI2JBCJKOD/sgQInRGnsVDW0fMZ9eOw9FQr5I0VwcFx0V9uswlocL9pEf0DzQgghhBBCqgOaF4tUFdoFo4YEUYrxKqRXRQJvGowF0qiQNoYOYkjDigdEeBBxwfOQ8oX2x5EGVWKQJIqRcO5Yd54q1FgghcweVAmTgIYC4SCtC2YFRgLrECFqpbLBueB1IqICE4OOY5GiTZjZ8rIK7wuiUherYkHzQgghhBBCqgOaFwsYAxTo24XwGNyI+SXh6Vi4uEf9xycqrJupQkG8Hc3ALd5UmAREc8LrSBDNQacumAA8HwYlfIo/0rpuV2H+CiIvmMeCNsuhYO+HVaiHQUTkXhXS2ULBvnY7ZERpMEU/NJoEw4Zzx9wWnAuK+TG7JhSswbkgIgWT01eFaE4saF4IIYQQQkh1QPMSAowK0rFgXFBPAoOCaAxSsnARj25hMC6IVqBzFyIRiLqE9pjG1+jc9ZoK6VVoMRwOWibjeWgOgJoTdCCDccL5OVWoL0F3MOyPLmNoCReepgWzBWMAg4BzRSewG1Q4VxgUmJ2HVGiFjH1Q02LXzNgg4oP1mCWDPVao8MOA9DEcz6OCgftKhfcQLZLRZSxaob4NzQshhBBCCKkOaF7CQFThaRXqXvA8pFO9pXpRBUPyvQopX3gMEz6RvhUaXcHFPgZdwjCgQB61IuGdyBCdQZ9qPB+RFaSfoVc1hkC+rkI0B/sjhQ1zUqLV06D2BqleMDpYj+O+rcK5os4F0Rbcj/SyaK2NYYLQahmvEWsxiBOmDeeCrmKY1YL7ESnCXBq0WC4PmhdCCCGEEFId1FnzgqgBekDjwhtCzUY87YwB0q1QvD9VhYt5ew8IqVMwMEjHgnEJrxG5RIUJ9PZ6RDxgpMKB4TlZhS5idtG8LURApqiQrhWt7sYG7eI6qGA+kNoVug/MD+bEYD4MIkfRwGtAIwFMyI90LjAzMC6RXkckaF4IIYQQQkh1UGfNCy7q0UL4c9XPqkdU0VofRwIRBgxbvEeFWhBMpkd9Ct6s/6mQbhWp0B73o7YEaVxIxUJbYRipSCDq0VqFmTLPqBDpgNlA/Qrmo6D2JR6QJnakClGesSoYGUSaOqpQwxJtXk0oiAahSQC6qCGNDBEgpMfhXGDSEOWJF5oXQgghhBBSHdRZ84KLcbT4RQ0K6j9QSxLJbMQCZgd7IPqBeSw+FUxReYX/KNbHbBW0UkYKWrSWyzaIiuD8YHxwDBwzHsMRCl4vzA6MEvZBQT8MB86nItjnUqDCXjiXWMMrI0HzQgghhBBCqoM6a152JzAvY1SoaUGr4oqaptoOzQshhBBCCKkOaF4SDCIVqDEZoEIbYnxf36B5IYQQQggh1QHNS4JBt7KzVJheH2/NSl2D5oUQQgghhFQHNC8JBvUtiLbE05a5rkLzQgghhBBCqgOaF5JwaF4IIYQQQkh1QPNCEg7NCyGEEEIIqQ5oXkjCoXkhhBBCCCHVAc0LSTg0L4QQQgghpDqgeSEJh+aFEEIIIYRUBzQvJOHQvBBCCCGEkOogW/WY6m1Va9xBSFWheSGEEEIIIdVBXlYD6eVsKO83YuSFJAiaF0IIIYQQknDyG8pBj+bIGy845aebk+VY625CqgTNCyGEEEIISShJIp5x+fLwXyXyj9lCVs70yYgB2bKf9TAhlYbmhRBCCCGEJIwjm4p3eJ50W1gkv5qtxTRbirm2RDb94JUhD+TIvrrECK4kpOLQvBBCCCGEkISAiMvIPOmypFj+2NpSymBczBZBA7O+RNb+4pcR/20ke1vLCakwNC+EEEIIISQReCY65c5/iuW3gGlpZRkXW3rfulJZ8aNPRt2SLvtYzyGkQtC8EEIIIYSQKuFW4/KcGpe/imW2nSpmloYYF1tqaNaUyPrvvDKsb7bsbz2dkLiheSGEEEIIIZXm+KbiG5EnXRcVy9yAcbGNCsxLJAOjxkYNzOZpBTLUisCwBobEDc0LIYQQQgipLJ6xTum6pET+2IZoCxRqXGzzEmpirHUbS2XVLz4ZcXEj2cvai5ByoXkhhBBCCCGVwT3BKd0WlMicQH2LXeMSalpCFX6/rl9bEqiBGdEzLdCFjJByoXkhhBBCCCEVYo+m4h2nxmVekRoXu8YlmkmJdT8MTKls+MYnwwexBobEAc0LIYQQQgiJm8OtGpcldo1LtFSxaAp/XJ+PGpgfC2ToZcmBNsqsgSFRoXkhhBBCCCHx4kHEBXNcyiKlipVnXGyFrrVqYNaXysqffDLSMjCERITmhRBCCCGElEeDtk2k5EWX9JiHdsi2camoabEV6XnBFLJVqIEZ75JD9ZiNgocm5F9oXgghhBBCSExOEEm+NU3azfHLr+YeajQqmioWSZGe1zrQhcx8xSWPNBNxWocnZDs0L4QQQgghJCbtMiRtQK7cOtMvswPpYok0L/ZzsSeiLyWydrJbnsxuLKXW4QnZDs0LIYQQQgiJSTuRRs/lSPEr+dJjOqIvVp1KVCNSniKtby3mqhJZ/pZb+t+bIYdmiaRahydkOzQvhBBCCCEkLs5vKr4JedIN6WNbYTgQhYlmRmIpdD1MkBqXJaWy6H01LseyYJ/EgOaFEEIIIYTEzYVJ4hqbL93n+mXWuhZSVuEUstA1VqrYqhJZosal317CafskNjQvhBBCCCGkQtyaJ7njEIEpkJlbW8i2iClk9vfh94cZl/UlsvJ1l/Q5thFnvJDyoXkhhBBCCCEVplOy5H3hlvv+KZIl22wzEs2ohH8PtRZzRbEse8sp/a5sJvvoljQupFxoXgghhBBCSGVI+sgtdy4uluUxzUu4sE6Ny9JSWfihW/of1YipYiR+aF4IIYQQQkhFadI9Qy6Y5Zep200Lbm1FMjD2mlZirimVZe+ixoXGhVQQmhdCCCGEEFIRjNsy5NAZBfLqxhLZZHcc21wiW6CASYkmXbuuWFa97pY+pwVTxRzBLQmJD5oXQgghhBASN2M9cvBMv0zaWCqr7UgKbv8slNFvuuTpWQUyyzYqOxiXNmIuL5El7zil34Vsh0wqCc0LIYQQQgiJi8HZ0uJrrzyzvkS2BsyJalML2TrXL1P6ZMuRuqTw+Ty54ze/zN5oGxjL4CyzalwObSR7BncjpOLQvBBCCCGEkHK5PUtcH7vl0QWFssQ2JBtbyra5hfLtPelyiS5pjnVX50remFzprgZmzjZdV9ZKyjaUyIp33dJ3f9a4kCpC80IIIYQQQmIyIk3S3/HI3X/45c/AZH2YF9XMQpk+IFduThXJspYGuL6Z5D+fLw/OKZQV60tlxXtu6X9+M9lXH2KNC6kSNC+EEEIIISQq56VIzqhc6YCJ+pthXFqr9Fa//2tCvvQsTRK3tXQHTm8m+9+XJa/1zZFpV6bJ8dbdhFQJmhdCCCGEEBKNRk9nyrnf++S7daVSFjAurcRcWiRrX8mXvjemSCtrXSQyUgx5zNNQ3stqLC2t+wipEjQvhBBCCCEkEo5zU+TwT73y3KYWss0uvl9RLJum+eSVZ3LkMGtdNHJUj6veUbXBHYRUFZoXQgghhBASjnFYM9n3K5+MWttCVtrGZUOpmL8VyNsTcuSIjiJNrLXRyFM9qXpXtQfuIKSq0LwQQgghhJAdOKOJFL7vkd5rSmR5IFUMBfotxPy1QL6c5JRzrGXlQfNCEg7NCyGEEEII2c7jeZL7pkt6rCyWBYGIi2Ve/i6SWROcco0uSQquLBeaF5JwaF4IIYQQQuoBl4s0bSfSTL+M2q54RIE0neqV9mpUft9mDZnc1krKVhXLvOdccrtPxGktjQeaF5JwaF4IIYQQQuo4/TPE2y9bOqnufDonMG8lEk3fc8rVvxXKD9tnubQWc3Gx/PGCU+47qYn4rXXxUmfNS4oK3QpuUXVTnalqqEoE+6guVeENa4A7qkAjFTolnK66SqUGVo5VRextHYN01X9U56kQertQdZAqTRUvOJfWKpzLFar/Ux2nyldVBJoXQgghhJA6zDlJ4nnZKd1+LpCZ0wrkrw/c0uf65J3MRMOeGXLyj175dL1tXFoFjMu6D50yzCtSbK2rCHXWvODi/27VJpWpmqCKN5cuFh7VQNV01WUqXPBXFrR6+69qqOpH1XrVKtUnqvtUMF/ldVyAeUKP6xtVL6v+VOE1L1BNUt2gKlIZqljgBwGmY7DqJ9Vq1TLVFFVP1cGqxqp4oHkhhBBCCKmjdEqWvOfz5I7pfpltR1L+KJKFr+ZL756p0sJaJl0z5T8fuGTi0mJZY9e4rC6WjZ+55eWHMuVEa1lFqfPmZaMK5mW8qqrmBVGMm1ULVYtViExUNvKSoYLh+E61RgXjgnOF8DXMA8zH0apYESP8o/VRwbSsU21QwbxgH3yPc31IVaKKBkzUTSqYlkjnslL1vApmKp7XS/NCCCGEEFIH6Zwi2WPypOtsv8zY1FLKAuZFtVU1v1D+edkpT3VvLsUnpUrLl5zSf0WxLC9Dgb5qVbFs+dwrH4zKllPbxP+heDh11ry4VHeqcOEN8/KsqirmJVl1kepzFfaDKbhAVRnzgqKmi1XfqLapvlfdo8JFP9K1EInZrIIRGatCKlckfKoHVPNVWPuKCobof9bteyqcK6IwXVQwTOEgsoNUNUSSsPZbFSItOJerVcNVeA9hhPB1PMOAaF4IIYQQQuoY5zQT59g8uX1OgczcYBXeo9VxQNbXamDmf+aRQV/5ZOTiYllkp4ph/ewCmTYsVy46PXgtXFloXuIAzvB4FSZ5IhphGwKYhIqaF6Rv7ad6XYV9ZqtQ64KaFRv8Q+B816qWqxDtCTceOCcYIJgE7IP9jlCFgn7ZiOzg8a9VCM+Fni++Rv3OSyqsmanCuYTWycA4wbRsVS1SXa9qrooFzQshhBBCSB3ikiTxTMyX22YUyOxA4X2ocbFlRWH+KZTVy4tko/091qqpmTs5TzrqRWJF6rEjQfNSDjAbqPdABATREOwFIdpRGfOCfzDUoSxRIb0L9TNI2woFreZOVuHiH8f6UHWoKhQUOA1R4XHUplyrCidLhYYF/6gQOemtylXZwBDdrvpLBaP0tCpSq7qzVYgO4fW/pjpcFQuaF0IIIYSQOgJSxZ7Lk9unF8jM7SbFNiylIV9H0NZS2bamWP6e7guUc+DatKrQvJQDTAIu6lH7YRsXqLLmZW8VjBAiOD+o0BUsEujwZZsTHLuDqqnK5lwVUrxggF5QIZoTCdSpwHhgH0Rf8L0NoipvqZC6hggNTEqkBgR4D/qrtqhQE9NJFQuaF0IIIYSQOkCHZMkdkyNdZ6tx2WjXuMCYwLSEKtS02Gv0dmOJrP/KI490zhCvtWVVoXmJAdxhDxXqW7DHm6pfrK8rmzaGC3sYHxiG51RI24oEoi+3qVDLguPBQKHGBaCA/1EVjASiLmgFHRpRCQUmCOYGe/ytulJl5xmeqkKhPx5DRAVdyyKBupiOKrtz2yBVtioaNC+EEEIIIbWcM5PENS5P7kCNy0aYETtVLJJpiWJiNpXI5jdcMuSgxv92IasiNC9RQIE+LvRxEY56D3T+QoE+brEfDE1FzQtMB9K08HzoCVWsiaKY2TJHhYgHjos5LgCm6kUV9oCJwsyZ0KhMKDAqD6qQFoZUNbRghqHBuSCag5oa7DNaFSsHEYYEqWdYixoZDCKK1n6Z5oUQQgghpBaDGpfxeXL7DL/MLoMRCa1xqYB5wXPnFsrfbznlydtTo35QXhFoXiKA1CkMasTFNyIkeHMwrBHthhEtwX6VMS8oykfbYjwfuksVq9tCW5XdJABdzk5RAfzD437sgcgJIijRQNSkvQpmAuZjmKpQBaOC3EPMlcFrhJFCtCcaGJyJyA2O+YEKDQyitXA+SwXThRkxaPVMCCGEEEJqCe1SJHt0nnT5pUBmBVLA7DQwKJJJCVWkx9T4/IU2yvnSK3QOTCVB4yhkING8hICC9MkqmAYMj8Q8F5iA0BSsypgXDLhE0TyeDyEtLNbwyANVmK+C8/hNhVbNAJPzP1Zhj7mqo1TRQFcy1NWgpgUmBelhaHcM14pUNKSeIfrSWRWLA1SfqnDMr1QYrhltgCYeg1nC+hNwByGEEEIIqflcmiy5alzumOOXGetbRKlxCTcn4Qpfp3vYc2Amq4G5KSXqGJB4QOkCPnSnebFAVOMZFYrkEWm4VWV3RoD5gKnBfpUxL4jcoF4Ez4cwGDIWqIcZoUKtCQxGOxU4UoWoEPaAqTlEFQ1EkVCIP1WF9V+o9ldhiCem6SOdDN3GrlHFYi8V0sVggH5WXaLC+1mgQvoZ3jPsh+5paAKwQoVBnpg1g5Q0iqIoiqIoquZq1KFNZfALThkz1y+/boLpiFXjEkuR1mMvNTDz/LLwfZe8eH5y4Jp4ZNg5xKMJKtSgf6RKRBpajaEy5gX1J/erUEeCiAYGO4bONEHaFyIh2A9rYqVrRQJvsN1BDEIRfCz2VGE9zAvMFAZPAqRi2cMyEeFAK+dowLycoUIKF9ajwxkiN+j4AGOEVDK8Vsx3iQWcLaJOqP+ZobpMhZQ3dCLDoExEgj5Rva3CpH6YItsA4gcMz8EcGYqiKIqiKKrmCNdo0K+XNZdt8wr/NRoxzUh5irQee+re60rEvDdLzCbB8gf7+JHOLVT2OpQm4EN9XHsmqglAjaCi5gWzVjCAEW8I1iO9CnUdSBVDihVucdH/hgqPI6qASAgiGIjMRGoxHE64eSmv5TDMC6btI21steo6FdLMws2LXcgfCZzXmSo75QtT/ZECBvOC4ZMwL3+oyou84FzQNADmBdP4r1Dh/UTkCTU0aNWMSBGiS0iHQzQH6/BvgPNF+hiK9ymKoiiKoqiaIwwxh84emyvDlhfJ2oDJCDUvVVGogbH23VAsWz5wyeuFjkDTKVwj4viRzi1U9nmiHAKNq5Ddg1KIOkNFzAs6daGTGOpbbGOBwY4wCHB1uPCHcOG/VIXHMbARLhDpW5iBEo/zK1INUNnHwADJWKCjF8JjMC84HxgGgJoc24wgbSzW0EjUvKAG5UsV1iPEhlkzeH+Q4oUICfaGcYsFjAmMW5lqmgrT/aN1OLNrXpCqhugUGgHA5KDAn6IoiqIoiqo5wjUa1OR9l7T82iMPrS6WpTuZlwRFXtaVyNbZBTJyUq4cos4F3X3t40c6t1DZaxA4QN12va55QVRhnMo2FRUVogzhE/AjgejNUyr7eV1V+EeIBmpZ7MYBSL3CYEqAKAc6fmEPRE3QCS0aKKpHwwGkcqHl8kQVjBYiTY+pENFBehfm2cQCwy1tcwfDhmgOjFEkQgv2Y50bIYQQQgipQbRPE/9nHnlwZYnM317zEmpG4jEwkdbqXmtLZN00r4welBVoSlVZMlWPq+q1eUFUAXUbqNdACMrW+2HCRTvSxbAf6lBgCGAieqmQLlUecJeoqcHzIcxcQR1NNBAiQ4E9joXjo10x8KvsVsmoKUFBfrQ2x4iOoOkAoitoi4xuZ0gZS1HBPNnvD6JHsVLfEEGxZ8JgWOcRKjjgSHDOCyGEEEJILUXdgedbnzy8ukQW2KleOxgT++toCjcu+vz1JbLyF6+M7dws8CF8VeCcFwURBMw9Qe1KLCGNC7Uw2A8m5moVJtvjubEiKDaoV7lZhboR7NFPhXqRaCBNDF3N0OFrlAodvwCOh04LSOHC49eqQhsLhIK1MCbYAwYG9ShwrDA72B+DK3Eu2A8/DNFAgb497R9RqlhmjeaFEEIIIaQWc1ZT8X7hlftWlciibS1k207mJPT7UEV4TI3LpuleGf1/QeMSa0xIPNC8VABEScarsB+6jZ2mqiiIYHyvgoF5VRWtXgXnisn4ttG5RwUDBWA8uqkWqfD6HlEhGhOJUhWiNtgDzQgQpbGN1jEqmAw8hh8AFPJHiuDA7HRXoc4HazEYKNZ7SfNCCCGEEFLLuTVdCj5xy/3rS2XRDilkUHh0Jfx7CJ3FimXLDz4ZWcVUsVBoXioAZpqguwH2q8ycF4DWwoi4oI4FKV83qCI5UAzvsWfKzFPBEIQaC6SQ2YMqYRIwjT8cnBvMit1BDQX3oUOBcC6IuCCigjWIJEUaPIkfNnvGC9oqo1g/FjQvhBBCCCG1nF65kveGSx5dWyzLohbwhyvEuKwtkbU/eeXZpxJnXADNSwWIx7wgqoE3tZUK3RDC60hQ94JJ+egShn1gCtD9KxREOm5XwSgg8oJ5LOFDeLD3wyrUwyAicq8qQxUK9rXbISNKgyn6OL5NqgrF/OiZjXOZqMIAy1CwBueCNDmYnL6q8jqr0bwQQgghhNRijhdJ+8wnnf4ukvlbQk1JNBMTeh9qXEpl1fQCebZD1WtcwqF5qQDxmBekaaFzF2pjkF6FZgDhoGUy5r2gyxdqTtCBDDNkcH4YlIn6EjQDQKQDXcbOUYW3JUYUBsYABgG1L+gEhigO0sdgUGB2HlKhFTL2QYTFrpmxQcQH6zFLBntgKj5+GJA+huN5VJervlLhNaNFMrqMlRdtonkhhBBCCKmllIg06Zsjl0/zyZdbYVYsw7K5RLZuLJaNZeFmJUxrdd3PBTLqqqBxiVSSUBVoXipAPOYFF/u/q+wCedSKYBJ9KIjOHKV6RYXICrp4oa0whkC+rsL8GBwDbZDvUGWrIoFifAyXhNHBehwXHdNwjqhzQbQF9yO9LFprY/xAoZ3xWyqsXabCpHycC7qKzVLhfkSKMJcGLZbLg+aFEEIIIaQWcnKmNB+QI/83zSufrSiRzYFaFzUvK4plm5qZ1792y+Ori+SvnSIwULDGZbOuG/VMfuCD+eqgzpoXRA3Q/hgX3tDLqnATUVHQGQwtlLEfUrWQchVuXi5R2WlYEAr8YaTCQTrZKSoMocSFvr0eQgQEF/4wLj5VLNDtDJP3YVrszmG2YH6Qloa5K0j/igaiLGgkgHONdC5TVEg5Q6paPNC8EEIIIYTUPhzdsuS4b30yZXWpbDNbqyEJGpctP/vkjb65ckLbJuL/0iv3riqWebaxCQjGpURW/+SVsQ80T2iNSzh11rzgor6dCpPlkXqFFK5oE+HjBSYEc1KwH6ITJ6vCzQvSsDBXBdEQpGKhrTCMVCQQ9Wij6qAarIIBgdnALBhc9KP2JR4wswWRnLtUz6kwA2asqpMKKWDRhkmGAjOFH4D2qmEqFPcj1QzngshMrHk04dC8EEIIIYTULhqe11wOfs8twzaWyrqAMVGtVxPzs1feez7n32u6JL22/c4nj6y0J/Hruk1qXGb6ZOwVzXaqn040dda8IDULrYVRg4L6D9SSVLWvNC7wYWCwHzp1RYpmwJCgWB+zVdAl7GlVaJF8JLAPzg/GB5EWnHc8hiMUvF6YHRgl7IMoCdLKKppnaJ8LUuSwF84l1vDKSNC8EEIIIYTUItomyYFTvDIchfbboymqpUXywztOOenksI60PTPEh0n8q0pk5foSMdXgjL45LWBcEl3jEk6dNS+7E5iXMSrUtKBVcVVNU22D5oUQQgghpJaQLeL82iv9VpTKstBUsH+KZNprTrm6TZQP1W9NkTbvuKT7By55uHd6xLEd1QHNS4JBpOJc1UAVuoZFK7avy9C8EEIIIYTUAm7LkfwP3dJ1Y6kssGtcoGVFMv1DV6C0IVbdNMonMKqjMllDlYXmJcEgpQzRFgyRxD9kfYTmhRBCCCGkhtMzRbLfc0sXNSrzbdOCyMvaYln8rls66YVsLOOyu6B5STCob4FpqWpb5toMzQshhBBCSM3GmOmTG5aGGpfWYq4olcWTnfLYcU0CcwlrIjQvJOHQvBBCCCGE1Fwav+6SC+YXynd2VzEYl0Wl8vdrbnmybeNA/XZNrdmmeSEJh+aFEEIIIWQX86FTWg3IDky1j5ru9Y1Tmr2cL+fPKJAvV5dYxkW1vFQ2fOiWoa5gCURNhuaFJByaF0IIIYSQXcij2VI6rUCGvuuWV+7ODFyLNQ8+sgMNPvTIybP98uWaUimza1z0641T3PL24+lymrWuJkPzQhIOzQshhBBCyC7ioWxpMdUt/RcVybJlLWTDr36Z0j0tcD22w6zBbily+CceGb+mRLbaqWLLi2XjZ2pc+mfLaYfVzAL9cGheSMKheSGEEEII2QUMy5c2n7ulzz+FsiwQSWkj5ha9nVEgUx7Plv/pEgwyl3sz5T8fuWTMvGJZaaeKbW0h5qwC+WZQlpyhS3ZVq+OqQvNCEg7NCyGEEEJINTM6R0o+90qf+UVqSNSIBMwLbmFO9Osf/fLBQ1ly5r1ZctA7bhm2sEhW2bNcNuq63/0ya6pHbvzQMji1BJoXknBoXgghhBBCqpHuOVL8hVv6LyiSZWW2aQmV3re5hWyZ7ZOpb7rk2cXFMt+OuGwrFXNuofz2nltu6pcjKdaWtQWaF5JwaF4IIYQQQqqJR7Ok5VSv9PunUJYEoi22eVFTEpBtYNSorC+RbUuKZFUZ7sc6vW9tsSz72iO39s6XHGvL2gTNC0k4NC+EEEIIIdUAalymeqT3P0WyIqJxCTcwlmGxv19TLL/94pOHX84NmIDaCM0LSTg0L4QQQgghCebJHCn5wm3VuIQaFyjUsIR+HSpd/2uBvF0qso+1ZW2E5oUkHJoXQgghhJAEcn9zKZ7qlf4Li2RJoMbFNi7hkRZbke5rLeaffvnm+hQ5T7dsFty51kHzQhIOzQshhBBCSIJ4IktafeaWvgvLq3EJV/jj+rx1LWTVr3758OHgIMsd5sDUEmheSMKheSGEEEIISQBj1bh87pGnd6pxiWROwhXpcav+5WeffGjNgWG3MVLvoXkhhBBCCKkCPUUaPoQ5Lm7puwDGBcYj3LjYX5en8LWWCfqlQD66N1POP1ikuR7SCB65xkPzQhIOzQshhBBCSBV4IltafOGRgUgVi6vGpTxFMDAbW8qmOX6Z0iMjEIFJCx65xkPzQhIOzQshhBBCSOVJeTpHLltULAvtifg7mJDKmBco/LltxNyg33/gkVeG58pe1rFrOjQvJOHQvBBCCCGEVJ7UJ3Ll7Nl+eX99S9kYOqclYebFMkQYdPlDgfT70iUtrGPXdGheSMKheSGEEEIIqTxGG5GUTuly+i8F8tbGFrIpYGBgOGwDUlEDE7YeqWjzC2XxF1554v50KTBFHNaxazo0LyTh0LwQQgghhFSdpDtS5bRvfPJ6wHREisDEY2JC11gRl7+LZOlUnzwyxi0e61i1BZoXknBoXgghhBBCEkPT+7Ll9B99gQjM5kANjG1IyjMw4Y9bxgURFxiXfjlSYh2jNkHzQhIOzQshhBBCSOJo0ilDTp3ul9dXt5Dl2wv4w81JuMKNSzBV7J9PrVQxa+/aBs0LSTg0L4QQQgghiSX5qRzpOKdQftle/xLJpITeZ3+ta8v0dh4iLl55vGNSrUsVC4XmhSQcmhdCCCGEkATSOUWyp/lk2NoSa9K+bUxs2QYm3MhYa+cXytJPPfLwBKf4rC1rKzQvJOHQvBBCCCGEJIieWeKa6pVua4plwXbjguhL6AyYSOYFj6nUuCz6zC2P9s6RYmvL2gzNC0k4NC+EEEIIIQmgb6pkvemSzn/45c8tMCVqWraqMVlaJEsXFsnvG0pkzU5pZJZxQarY/CJZ+Klbnuhee2tcwqF5IQmH5oUQQgghpIroBVUDNS4dZvhlxhbbkKhRWVwkfz2bL31vT5frf/HLJH1s2w7mxfr670JZOtUtj3fMrNU1LuHQvJCEQ/NCCCGEEFIFCkSa9sqR838ukM/WwZAguqL6Sw3JO24ZcHmKtNJlWXdlyCnf+uSNbfYaGBfVgmCNyyPj86QwuGOdgeaFJByaF0IIIYSQytOwY7q0/con76wokU12bcuqEjGneOSFrs3lIGsdaHpvupyGSfwbrDkwC4pk4RS3PPZUrhRZa+oSNC8k4dC8EEIIIYRUjgYXJcnBb7ll5NoSWW1HU9YWy6bpPvn4Faecba0LpenNqXLabL+8t7RYfvvMI091yqj1XcWiQfNCEg7NCyGEEEJIJdivkeyNtLB1diG+anWJmNMLZMrEPDn9SY8kWUvDSb4vS85Eqtmtdac4PxI0LyTh0LwQQgghhFScDNSpLCuVhYFUMSvqMr9QZg7KkSv18abBZVFppmoS/LLOQvNCEg7NCyGEEEJIBTgnWXLfcsvN60pkrtnGMi4txFxeJDOmeuUWXZIVXFnvoXkhCYfmhRBCCCEkTtplSNqkPLlhSZEaF3QLsyIui4pkwev5cqsuyQiuJArNC0k4NC+EEEIIIXHynkcunFsoP29vd9xazLUlsvLlfOl9WGNpaS0jQWheSMKheSGEEEJIfcdQlRcxafCmU86aXSAfb4JxQdRFjcvyElkYmOXSTPbFmuBSYkHzQhIOzQshhBBC6i3HpUrWuDz53ysuue3GZrKPdXc4jsez5OgfvPLuyhIr4qLCXJfPPTJ+/0ayl7WO7AjNC0k4NC+EEEIIqZe0c0qzYbnSbrpfpqsRWfqGS3of0Vja6EOIxNg0HJQlB36sJmVJsdUSuaWY60tl65de+eipHDnPWkd2huaFJByaF0IIIYTUO9qKpAzKlWt+LpCvNyANrHVgKv6SN9zyZL5Ia2uZYEL+224ZtrRYVpRZqWJrS2Xb9/q8sXly4cmZ0txaSnaG5oUkHJoXQgghhNQr9hLJGJYtV/+kBmRNqZUGZhmThSUy/x2nPOZsLK10qec1l/ScVyzL7MdRqD/XL3PG5Er7S2hcyoPmhSQcmhdCCCGE1BtQ4zIqT6763ivfbrSNCyIvthCBKZZ5k13Sd2iOPDCvUL7GfQHzolpQKH9+4pY724lkW1uS6NRZ8+JQYQppugqdHpJVobmGsWiownNTVHC/ECaWNlJVBzhekipVhWPi2PGeayiNVXid2Ae3+L6iJOJcaF4IIYQQUi84RK+bBufKtd8XyDebSqUsYEhCjQtk3afGZsPGElm3tUS22gZncZGs+MEr91+XxlkucVJnzQumkF6kmqx6R9VV1UQVC1yot1CdqcIk06dVz6nGqO5V/U/lVyWSHNXpqh6qoaqBqo6qg1UwEfGCHuCXqR5RDVc9pbpEVaqKl1zVaSqcyyBVP9VNqgNU5b13odC8EEIIIaTOc5hI6uBsuRY1LqtLZZsdSdluWhCFgWwDA8Nip5Op1pXIms/d0rdXdoWu1+o7dda8eFQPqExLr6gQPYlGmuoc1UjV96plKvu50DrVN6r+KlyQV8RYRGNv1T2qqao1KvtY81Uvqa5QwYTFAq/pFNVg1QxV6Dn/rML9R6vKMx9o44f3C4ZjrcreY4HqRdWlqng/EaB5IYQQQkidplWqZI3IC9S4fLu9xiXctISal1CpcVlTLKs+88oLHdNkP2tLEh911ry4VN1Vq1W4CB+rimU4ilW9VXNUc1U/qmBWvlJ9p/pTtVVVpnpDdbIKkZrKgDQsOGwcb4lqvWq26kvVt6p5KpzzNNVVKqRwRQKG5EQVzmejaqkK541zxu0KFfaZpDpShVS6SKB93wDVKhVM2iwVzgWvG0YKe+C9QCQn2rmEQvNCCCGEkDrLaWmSAePynRqXwHDJ8BqXUNMSycTo+qXFsuR1lwy6LDnwYTaJnzptXu5UrVTh4vtZVSzzUqTqrLpLdYHqQFWJCmliGBJ0jeoD1TbVZtUEVWWHByFVDMYKJgVm4XnVGSqvCkYCaWN/qGCWYAAQOYk0XRVOfZwKe/ytekiFdDOf6j8qpH3htW9QIQ0sUsoboil3q2B0sA5pckhjw7nsqeqk+kWF143X31ZVHjQvhBBCCKmT6EVSM9S4/OCTbza0iJIqZn8del+YgdnaUrasLpFFr7jk0dKQNsqkXGheLFDgXqhyqyKlWKFo/78qRCOwH9KprlahIUBFQEH8CSp7H1zgH6PC/TaoPUGNDaIeMBT4B4IhCQXnA7Nlvz7UyoSbExiZF1QwW7+rkIYWGi2yIzc4B+zxkepYVahRylQhtQ1RGaS23a9CSl4saF4IIYQQUuco0esvGJdf7BoXu34l1KTYX0dSqIHB8/T5y0pk/rsuedopgTbKpHxoXioAum/1UqEmBKYCkQ0U+FeEfFVPFfZAXQ2iHpHMEqIqr6tw7jNVp6pCu37hcTQjsB9Hk4Fw0G3sQhWMCyIniBbBoNngXNCUAFGXf1R3qPAawzlchaYHiAShHghRoljQvBBCCCGkTnGQBGtcpvnku3UwIOGpYrY5Cb8vVKHmBbcwMK3FXFoiC95wypPHpzACEwc0LxUE0QvUp6DG5GXVIaqKcITqPdUm1YeqaBf3iKzgHwY1NlAX6z6bdioYBERDUK8SzUQh9etTFd4DFPSjVseOrCA1DvUxeOwT1VGqSOlpMDko5kcEB2thvmK1jaZ5IYQQQkidQC9qGozLlbyxudL+W698uxnGI1aNS3my14auVwOzsliWvKwGpnOa7HdA7CZT9R2alwqCqMPnKlzIowYE9SgVAQX4qFGBIRmmQovjaHRQ2UX36BpmhxOR+vWMaotqsQp1KdE6gSHtC62TsQfS0FBPg85qACYDERc8ho5i4alpNij0R80PDBvWjlYVqKJB80IIIYSQOsGleZKMVLGfCuSb9S2kbIdUsYqYllCFP89KIVtTIitec8uTrIGJCc1LBUF6FlobI3LytgqRlHhBehhmqOB8IBTYx2qFjJkrqI2BUXpThcgIwGt7TYU9UPR/niq0ZiYUGJ1uKnQiW656QoW6HtyPWTb2+zNEFev9wetG3QvWIp0NDQGidS+jeSGEEEJInQBDKG/PkGtm+uU3cw/LaIQbkdDv41Ek02NN3H/XLQP16jw0zZ/sCM1LBblW9ZcK0RNEIDAfJV7QZexxFc4HgqmINQX/MBVS0xDxQK3JWSqALmfvq7AHupKhAUA0YJiQ6jZdhX3QnQxtmhGReVCFVtK4/z5VLGDSUFuDYyLFDDU40VLHcJ5oOT1FVdHIFCGEEEJIjeKspuL9wivd1rSQ6TtEXmwjEmpC4lG4eQnut/KfInnhazevncoBZRQYyk7zEgeIVtjmA7UmqP3AceIF3cDs9sUQuoXFYn8VzhvmAhEWTNAHqLOBMcAemEkTK/oDc4TIzNcqrEe9DcyPU4VzwetYpLpRFYt9VSjaxx6IBqGdNIwRamTQqQ1d1yCkpF2uwnlhVgw6tOF+pLVRFEVRFEXVSjUT2W9Qnjy1pFiWRzQw8ZqYCMZlU6ls+cErn12TJuekBD/sjngOVEAoucDQeFzT0ryUA4rfMakf+2G4JC7go6VrRQJF9ahVwfMh1J/EAiYD9SpIUUOE5DoVQPoYUtewB9KzkMIVDURHkPKFFC6sx7DJA1RodzxUha5niN6g7XMs8NpRF4OuZZj7AiOFYjL8EKHdMhoIQDAumCkDQ/Sbqo8K9TLtVTh/iqIoiqKo2iZc41zraiAPPp4jH80vklU7Fe1D5RmYKI9/4pU5pyUFUvhRx4z6aNQ9RzqP+iy8J1BXFcZ7oPa8TtUGJdq8ILqANw5thxEJQd0HLugrAgruYRjiNS9wk/hBhnnBFH5ER9AuGXNh0DTANi+Y5xINmBc0GbAjNT+oDlJhCOUIFdLfECXBf5RY4FwmqtAuGV3LYFJgXmCCblaNsQTjgi5qeN8xCwdm7ykVTAxcMkVRFEVRVG0UxmU87m0oQx7JkU9mFsqiQPQlngiMfX/oY2p+tuntOy6Zd1ayTNK9UZeMa6a+qkjHr+9CxhA0UoUP0mFg6tRsnESbF9S2vKrCXjAwuNiPNBMlFoi8oGsY9oBuUsUCkRd0JINZQtcxuH6YF0y5D428xGrXDPOCGhQ78oJULqSjwXRgb5gX1PCglicW4ZGXS1UwL2g4gPqXGyxhHxguRF5QI/OwCgX8mDdzEUVRFEVRVC0WUvHP2qeJ3PeWW37aybxAscyL/b0alw2lsnFWgXzUMV266564TkJGD6+XogvvDYRgwlsqRl5ikK3CAEcMlUTkYYKqSFVR0F44tOblVlUsYDJQYA/z8qfqEhWAWUHRPPZA1ORIVTRQ8/I/FdLF0J4ZHdJgRFDzAmePmhd0IivPSOFc8EOCY36rwp6oAYKZgkFC/Yuti1VIGYPBQsc0PE5RFEVRFFWbhTrfhscmS97AHOn2S4HMCRgR28BEi8CEGxddt7lENs3xyxv3pgc+kMb1KcoQIh2T2ln4AB5RMBbsxwCDHe2C9y9UuHCPNMyxPGCCHlNhHwhOGwYgGijEf0MF8wLDcLoKwHygSAl7wNTg/KIBM4GaE0RBNqjQIa1YhW5jGDyJ9seYF4POY7HAfy4YJRwTYTocEz9AkQjtNnYs7iCEEEIIqe30zJTmLzjlxr/8gZkv60MNyQ7mxVaoaYF0zVa9nV0gLz+aFSgDqEjtNAmCRlCPqmheooBoCSbYI2qxUHWbKtZsllggCoIOZbZ5QUoVOkpEA4X2P6lQ84K5LoerAF4bwmXYA13IYKaiGQm85rtUeB8QOUJrOURdYJpQq2IPwUQKWaxprmerEKXBWtSxYDo/57wQQgghpF5wZpK4xuXKLbP8MmMTjAjmsujt4iJZN80nXywoklkx2ygHU8XK1Li8NjZXjre2JRWHc15igJoWDHJENy5cuKMYvaqFQYiCINphT9iPth/SsVCgbw+GhIEqUQG8DhT+Y3glJuwj5SuaoUK0B4X0ttFBl4ZUFYDpgSHDYy+pok3Nx6cCqLeBicJadEDD+xsNmhdCCCGE1BmuTpa88WpcflLjEjAn1kDJZcWy4kuvjOncXC6a5JQ7lxfL34HHYWJs0wLpfWpcNvzmlzf7ZDErpYrQvEQB6VZI00K6GOpc0F0MQyOjRRviBdET1J0gVQtpVSh2jwTMiF0fA5MCE4WOZzYwQTAIKLiHkYlWsIS2yCjSxz7TVPgPA2ME0KUM6Wh4DEYDj0VKh/Op0AED54z3Au9rrPeB5oUQQgghdYIbUiVrdI7cNsMv0ze3kDI7urKkSNZ+65Vne2UE0vkbt24qBWPz5e6VamDKwiIwW0ply1y/vHZXsMYlWrYMiQ+alyjgot/uroX2wkibijUNP16QsnWPCnNbIEy2j5SuhVkuaDmMc8d0/fDwon1+eBz1JeeqwkGEBRGTv1UwHqNUaJFsg/cIBU/LVYjA4P1CHmE4mOOC4nvsEY8hoXkhhBBCSK3nnGTJfTZfbp3jl1/WwYhYpmRxsWz41iejRuQEhnhv54QmUjghX3ouKpE/7OjM1lIxfy2QlwaxxiVR0LxEAJ3EcFGP56LQHVGOeEF0BPUgaHeHgvvmqlDgtmFE0P0L54UGAOjIhUiPDdLDBqpQj4LIyv0qmJ5QMMke0RgYD+yDVK7w6AuMg22AZqnQXi7U7eOYOBd7ZgwMCmbChK4pVGFGC1LGkMKG9zRXFQuaF0IIIYTUauwal+kFMnMzjIudKlYka2Bcns8PzM3biaYiBa845b55xTJvbals+61Q3h6TK8dZD5OqQ/MSBgrou6nmq1CXgov/K1SIdOCHNJIwv8V20kgtQ3tjRENeVp2iCk/FQh0Kzg01KDAFb6pgkNACGV28HlfhvBHpQGE+7o+UpgW3P1YFg4OJ/zA8KPLHOaCexY7MYC90OXOrwsGE/LtVKObHWqTHXanC1H6YKqSL/aNC6hrm3MSaKWND80IIIYSQWsuVKZIzNlc6/+STGYHULyvisrRIVn/nlTGDsgMjJKLSRKTwdbfc/0ehTBqSE7i2s1P2SdWp0+alh2qtChflz6limRf8UMFUoEj+ZxWeA6G9MFKqYDQwMT6SYFbQehggTQsDGvFcGJPeqvBULBwL0ZWnVTAGmJ6PwnscA9/DbCBd7WMV0sGitVOGYYKTh6nA60QaGp6PfXDOMDVos4yaGPwni/YfB00DEF3BccPPxW6ljBkvMEbxGECaF0IIIYTUFBx7iWTsK5JTEHtERYBbmkvm8GCNyy8bW+5Q47Lue5+M7Z8ue+uycmugb02W3H45UuKpWNkCKZ86a14wwAb1JLYJmayK1QoYaVmdVEivsp8Tr35UwSwBpGEhWgLTg8cmqkLrTEKBaeiswnrb8Nj7IYqCyIfdGSwa+A9xtAoREqSiwXxgD5gZGA60ZkaEJlaOJUxNG1UXFaJAdhQG5gvngsYB+NQgtGFALGheCCGEEFIj6JUtpR+45KGP3TLsxfxARkxUTm0m+c/myq2z/TJ9vZ0qpuYFNS5qXEZOdMl+1lKy+6iz5gXRDvyAIrqBFsdXqWJ1d8AbcZkKF+pDVHhOvILpQQ0KwHFR3A9DgqgH2hRj72hgPcxHexWMBlLWcPGPVLSKdDZDm2McF3UwaAiAGS4nqGIdOxykkKELxvUqzIbBTBucC4ZaVgSaF0IIIYTsdkbmSPHnXnl0XqEsmVcs5nSfvDI+P3Cts1M2yoVJ4hqfK51R44JBknaNy9LiYI3LmCg1LmSXU2fNS2WIllZVUWAkkIb1iwqpa4noUlaboHkhhBBCyG6ld6Z4PvXII3+rcbHrVpYVyZYfvfLqmGw5sk3I9RlSxVDj8os9xyWkxgXtkAeHdRUjuxWal2oA81MmqBCVQeF7fYPmhRBCCCG7jY5Jalzc8vj8QvlnG4wLDImlFcWyYZpXXhsbjMDIxWmSMUqNyyy//LwhdI5Lsaz/To1L/9z4alzILoPmJcEg6nKxqrsKs1rKLQyrg9C8EEIIIWS38HCuFE1xy6MwLvZ0e3tYpG1gVhbLxp+8MvHZXOnwfL7cOrtApqlx2Z4qZs1xGfkSa1xqIjQvCcavOlLVUlVfBxHRvBBCCCFklzNMjctnHnloXqEs3sm42LIMzPJiWT/NJ7NnqDaXyraQOS5ohzx6OGtcaio0LwkGYcX6HlqkeSGEEELILuWOTPF84pbHtte4hBuXUksh95WF3L+lhZQtLZbl3xXImH6scanJ0LyQhEPzQgghhJBdRkcYF688Pi+0xiXEpOxgWkK/tqIwuG9xkaz70Scj+ubKXrplopo4kcRD80ISDs0LIYQQQnYJT+VK0SceeXh+kfyz3YyEGhVb4ffZ31vr/yyUFa875Q5rW1JzoXkhCYfmhRBCCCHVznN54v9UjUsgVSzcuEDhRiX0fvtr6znLimXdTwUyEW2Udev6WrdcG6B5IQmH5oUQQggh1Ur7JHF/FqxxiVycH8242Ap7fFtLKVuBIn6vvDYyW45qSwNTU6F5IQmH5oUQQggh1UaXDPFNUeMyv1AWBIruIxmX0O+jKdTAWJGblcWy4XuvvDo+T461DkdqFjQvJOHQvBBCCCGkWpiUI/t85ZVH5xfJQttw7GRGKmNeIGs/TOL/xScvf+KRk08QSbYOTWoGNC8k4dC8EEIIIaRaeDFfrpvjt2pcMA0/lhmJVxEMzJJiMT/1yKjzm0m+dWhSM6B5IQmH5oUQQggh1cJLbrlsVoHM3AzDAaMRyYBUVOHmRW/nF8nqTzzS65xkybUOTWoGNC8k4dC8EEIIIaRamOwS7wduaT+3UKZHNDAVMTHh662oy4JCWfVNgfT5zCN7nizSxDo0qRnQvJCEQ/NCCCGEkGrjYJHmb7jkut/88vOmENOx3YzEY2DC11p7LCqSpV96pe+wfGljHY7ULGheSMKheSGEEEJIdZP0nkdumOuXaRtLZUMZzEeoMbG/jqYIxmWhGpcvvNL/0WwptY5Bah40LyTh0LwQQgghpNp5xinN3g6mkM3ZBCMSbmCimZjQ+63n/FMsK7/ySp/706TQ2p7UTGheSMKheSGEEELILqF3lhzzY4H8sCHcvEDhBib8eyviAuPyhVv6jHdJS2tbUnOheSEJh+aFEEIIIdXOxDzZ42uP9FpYJAu2wJSgdTJkm5hY5sUyLnaNS+9M1rjUEmheSMKheSGEEEJItfJQtrT40iOD/imSlbYZ2Vgq21YXy+ZACpltWEJNS7hxKQwYl/4PNZcSa1tS86F5IQmH5oUQQggh1caDWdLqC48MXlQkywJGxBpWOdsvP73nlnfn+OXXDaWyJfBYqImxjYvequlZ9ZVb+j6WI8XWtqR2QPNCEg7NCyGEEEKqhUG5spcal4ELi2RFwIi0DpqR2QXy26R8ue3xbDnqDbe0QxeyzSFmZbtxUeG5X3ml91intLK2JbUHmheScGheCCGEEJJwRubJHkjz+qdQVtvGBXNefvPLb+Nzpfv/NRWftbTpuy65Xg3MTxtt02LVwiwslKWfe6Vfnywal1oKzQtJODQvhBBCCEkkjR7Kk/984ZXh22tc1IxsVjOixuXXsbly983NxGmtDdBWDczbamB+K5QZmMRfpuuRZva1mp/7mzNVrBZD80ISDs0LIYQQQhKFMSBTjv+zUN5cUyqrbOOCKMoMv8ydmC93hRsXmyebS+bHXukwxy+z1MSs+t4n/YfksDi/lkPzQhIOzQshhBBCopFpKR6M5/LllDkF8vZGdAqDaVGVqYFRQ/Lbi/nS/YIm4rfWRqRjiuS87JIr3nRJ5xE5sq91N6m90LyQhEPzQgghhJBIZAzPlWtec0vXZ3LkMP3eEbw7Io375shJv/nljW0hxmVjSzHn+uXXcbnS44qm4rXWxoNh3ZLaDc0LSTg0L4QQQgjZgTSR9Puz5P/+LJJv15fIuh988tKITDlEH2oQXLEDjR7OlOPnFsm7W0plq11wv1Vvf1Xj8lyEGhdSb6B5IQmH5oUQQgghoaQ9mSuX/uGXrze1UDPSWszlxbL+e69MGpsjR1hrtjMoR06c65d3N7aQjQHjYmmWVeNyS5K4raWk/kHzQhIOzQshhBBCbNL65sjlcwrlczuCYpuRpUWy6QefTHjTJYdaa+UFp5w0q0DeDkzJx1qrHfLPPvni2Vy5pbwaF1LnoXkhCYfmhRBCCCEg7XE1LjNhXGzTgm5hkGVglhTLlh99Mm5knhwzNl9OneOX18pgXPC4Pmd9S9kwu0A+vjtDLtL9UoPbknoMzQtJODQvhBBCCEm7L0su/b1Qvt7c0qpbsY1LqPT+FUWy5NcC+eofv0zfUCLrbOOypaVs+7lA3r09Tc7OEUmx9iX1G5oXknBoXgghhJD6TdrTmXLZH375apMakEDUBUYFEZVQWeYFtxtLQu6z1n9fIO/0zJRzdb/k4LaE0LyQxEPzQgghhNRf0nrlyOWz/DLVjqAEDAkUbl5sswKFRGbWlsiy6T55pUeWnKn7NQtuS0gAmheScGheCCGEkPpJ2kNZ8n+z7OL8EEOyk1mx7wv9HlKzs8Avfz6VJXfofunBbQnZDs0LSTg0L4QQQkj9I/3BLKsdckvZst242KYlklEJfdz+Xp+3olg2fu6RV/tlyn+svQmxoXkhCYfmhRBCCKlfNO+TI5fNVeOyuaWUob3xDsYkmnEJVciabWpgVpXIyh99MmFithxpHYMQQPNCEg7NCyGEEFJ/SIdxmVEYUuNiG5FKmhc75WxpsWzGHJjxuf/OgSH1HpoXknBoXgghhJC6T4MOyZL7RI5c8Vv4HJeKmJZQhT8HBqZINk3zyeQXnXLEN04W7xOaF5J4aF4IIYSQuk/qfTly3ryiQDvkrRG7itnfV0Shz7UiMMuLZOMPHnnpw3w50Do2qb/QvJCEQ/NCCCGE1H2aPJAtp/xZJDN3iLqEG5CKyH5e6HPbiLlev3/dKeMfzJA9rWOT+gvNC0k4NC+EEEJIPaBbvuR84JFb/yiUGZthNKxISULMC/ZRU7S2haz5sUBevrm5nKiH5LBKQvNCEg7NCyGEEFJPaJsjKe+55ea5fpmzyTYdoWYk1JzEkm1a8LVlXDa2lI3f+mTy5WlynB6qcfCIpJ5D80ISDs0LIYQQUo94xinZ73nkxt8LZfbGSAYmlomxHw9do8ZlS6lsm+qTSZ2aywl6iCbBIxFC80ISD80LIYQQUs84OVOav+KW9suKZVZE8xJqTiI9Zj/eWsx1LWTD116Z3DVNjtetGXEhodC8kIRD80IIIYTUPxoOz5MzlhTJ9zuYl1CTEnpf6P2QlSqGGpfvffLSpclyrO7ZKLg1Idups+bFoWqqSldlqFDgZagqAtbD7aeoUlXoLV4d/4kaqpJUOAaOhfOu6LkCnCteJ/bBbWU+qUjEudC8EEIIIfWIjiJNXsiXU38qkPfXFMnGgBGxFW5Wwo2L/b2u3Vwqm7/yyuRLklnjQqJSZ81LlupC1Yuqt1RdVBXJl2yg2lt1lepp1TDVAypcmPtUiSJHdZrqTtVgVX/VjaqDVDAR8dJC9X+qh1VDVU+oLlaVqOIF53KqqrtqgKqPqpNqf1VFfoHQvBBCCCH1h7RXnHLNH4UydU2xbI5oWiIp1Li0ChiXrV94ZVJn1riQ2NRZ8+JRwWyYll5RxTuVFZGa81TjVLgIt/fYqvpe9bjqYBWiFFUB5uge1VTVGpV9nPmql1RXqGDCYoHXdIoKxmeGyt4D+lmF+49WlfdLYB8V3i8YjrUqe48FKhjAS1V4X+KB5oUQQgipH2S95Zab/yyUH7fCjKgJQc3K8mLZMtMnn/zllwH/6GNbYFCiRWF0/ZpSWf+tVyZ3DnYVY6oYiUWdNS8uFSIIq1W4CB+riieSgTQpXHzjwhvPW6iCYflK9YsKJgMX94jEwHwgQlNRkIZVquqtWqJar5qt+lL1rWqeCseepkLkBylckYAhQc/zN1QbVUtVP6pwrrhdocI+k1RHqpBKF4k2KkRaVqnWqWapcC7fqWCksMc3qktU0c4lFJoXQgghpI5zfTPJf9kpNy4pll+3R1vUvKwukc1qRD64K03OSRHJ/tgrHeb6ZdamcANjrV/XQtb84JPJlyXLMbotjQspjzptXpCKtVKFi+9nVeWZF1zc4yL/ZdUW1e8qGCBMcy1QIYIxQrVJtVh1r6oyKWRIz8K+MCkwC8+rzlB5VTASHVV/qBDpgQHAcSOZpP1UiA5hj79VD6kQEcI5/UfVT4XXvkE1SOVXhYNoyt0qGB2se051ugrngteNtDGYtm2qD1RtVeVB80IIIYTUYUqTxP2qR+5YXCRzt4UYl/VqXD53y0cDcgLXAoGsj9F5kvyeW25SA/PrZkRb7PUqtEP+0ieTrmFxPokfmpcQkKKFlDBEa6AHVTAtoRylQg0N9pyjwn/OioBUM7T9Q4QFeyBlDP9hQ1PQ8I9ynwpRDxgK1K/ATITSXNVZZUdXIpkTGBlEXTar5qqQhhaaPoavkVf6qQp7fKxCuDbUKOE9gUnD+4GoE84LKXmxoHkhhBBC6ih7N5I9p3rkyaUlMne7EWkt5soS2fCBVyb3ypbTW4ZlajyeJ7nvOeXG3/0yOzCJv42YG0tl61deebFbZuBahMX5JF5oXixgHg5VwUxgPS68UTQfDtLKEBlBtAPr8OYhkhIveMN7qpB6tsz6OlI9CqIqr6twDNSyoJA+tOsXHp+swuNI8zpTFQ72vUiFCBKiOONVhSqbfNVTKhggpMfdoUKHsXCOUOEHBHsglQxRoljQvBBCCCE1n0aPZ8tRX3rliq5pUmTdF5P/Jsve77il/7ISWQrDYte4LC2VxZ94ZOR1WYHUr4hp6qeJZLzrllv+KpTf/i6WVd/75JUbgsX5jLiQikDzYpGpukH1pwqRir6qaMXyiJTgIr5MhSgMUqnibScMI/CeCqlnH6qiXdwjsoJ/GBwDQrc03GfTTgWDgGgI6lXQbSwSSP2yIyswQSer7MjKgSrUx+CxT1SIKkVKT4PJQTE/3hesheGK9YuG5oUQQgip2TS+MU2O/UwNxKIi+XuqW+6/IzNmZkXSjc3l4Dfc0m9dqawMGBcr6rKmRJZ/4JYB+zUK1ALH5GC9lvmqQLq95pSBVjvkSB/gEhILmhcLfOKA1CtERJAOBnOAKEskWqlQ+4K1v6naq+LtPIYCfERtYEhQ9N9SFY0OKjstDF3DcFyA83pGhboc1N6gLiVaJzCYsuEq7IE0NESN0lQAJuMfFR5DR7Fo9Tv4BOUaFZoCYO1oVXg6XSg0L4QQQkjNpdEFyXL0dz6ZtL6FbChTA7KsSBZ/6gnUwOIDy3CM29Pl9ClembyuRI2LnSrWQswlRbLg5Xzp9d9mgYyQaI2BduAtj2T2ywkch6lipDLQvFggCoGLbZgKRCEQoYgWXXCqeqjQKQwX9L1U5dXTAHy6gOfhfCAU2MdqhYz5L4jwIOLxpgqREYDX9poKe6DoH22do5knGJ1uKnQiW65C/YxbhftvUdnvzxBVrNeAtDR0I8NapLOhIUC0X1I4H5oXQgghpObRsH3QuLy4poWsCY2grCiWPz7xSM9mwescmyZPZ8q5X3jlraUlsiGQJmatX1Iss9/Mk9v/LzWQ/VGZ4dqEVAaaFwuYFTsK8aoKF+fR2iAjynGdym4jjKhFefNYAGpj0BAAz4FgKmJ96nCYCp3PYJDQrvksFdhL9b4Ke6ArGfJFowHDhEL96Srsg+5kaNOMiAwaEqAQH/ejED8WSHebqcIxYe5QgxPN3KFbGVo/owEA6ogIIYQQsvtxdEuT4770ygvrS2VzwLjYbYshNSZLi+Svd1zSvX1m4IPOjMG5cpau/2BliWy1jU5ZC9lcViqfLyqSK4PbErJLwbUzyhneUdVr8/I/lV2EP1GFvM1onyIkqy5X/aXCeji/SG2Iw8Eau30xhG5hscBke5w3zAUiLJepwCGqKSrsgS5iMBbRwD8w0ri+VmE96m1gfvCpCs4FNTOLVJjqH4t9VXid2APRoAtUMEZ4T5Fyh85mB6jwQ9RVhfcGhgvpd7iPoiiKoqhdL4xgaFHaRIquTpVTv/TJhE0tpCwQQQk1LrYQgSmS+e+pgbknXa773CPvrSuRTXbEZauu+bFAyh7PksENg9cfrS3hOJGOT1GJFjKRRqpwTYufuzpDRc0LJshjWCTWYu6KXV8SCeyDLl6IemA95p9EK5gPBWtQq4LnQKg/iQVMBupVUNyPCAmiPQD/aHZXNKRnIUoUDURHkPKFFC6sx7BJmAwU5Q1VoW4Hr+NqVSxQ+I8IE+a9YO4L3i9M98cPEZoboBkAojuY6o+ZM2jxbO+N+yiKoiiK2rX6SfWjmowfzkiW7z/0yOx1LWStnfYVmHBvT7kPMS+4XVssC5cVyt9ri2Rj4D7L7HzmE/PiVDGTjUD2CT6kxEDtSMemqOoSrjlRDoFMoHiuv2sNFTUviGrYkRcMaizPvFyoCjUvsdbbYA0MA54DlWdeYAxQiwLzAmOF6AiiQWhD+LkKe8C8IOoRDZgXtDa2IzU/qNACGnNj0HQArxnRGzQSiAXOBREptEvGDw1S0WBeEFa+WIW0s/stYR1+qBB9QZqafT9FURRFUbtO6A768J6N5cNx+WJuhAmxU8Vs42Kbl9CvbbNiRVtw38oS2fZnoXw0KE+6OB1ys+6L1PfQv/0Utav0tOoLFbr2xnP9XWuoauQlVhgK++CCPdS8oI6kPOAO0TUMz4FuUsUCkRd0JEPaGLqOIQUL5gWtmUMjL0gjiwbMC2pl7MjLlyqkoyHygr1hXmAyrlXFIjzyAvMS7f1EowHUvMARx0ppI4QQQkg1MiRbDpjll2FqQILtjWFOyjMvYdpaIlt/8skU1L9Y2xKyO8H1J5pe1fuCfdSFIM0Ja19Q7aOKVvOCQY64eLdrXlAwFK3NcChoLxxa83KrKhYwGYhcwLxg/swlKgCzAmOAPRA1OVIVDdS8oJ4H6WLopPa2CkYENS9I90LNC7qmlWekcC4waTjmtyrUvERrJX2OCu2mMV8GPdwJIYQQsou5OkUO/94nY8tayPqyllK23ZBEMyqR7m8p5uYi2fiZW/qc3ESKra0J2Z2g6RQaYLHbmAqF61iLVsDo9BWt2xjeNKRw2d3GkCaF+8ojW/WYCs+BuquiGQCAqMUbKpgXGAZ08QIwHyhSwh4wNTj3aKCoHjNa0CkMdSiY0YJfPjhfdGpA+2PMi0HnsVgg2gOjhGN+pIrVSppzXgghhJDdR8OLUqTtdz6ZvBbtkO30L9ucRDIuoQp7fGupbFtRJHM+9QauW9CmlpDdCVslW6AOBHUkiE4gYoDUp2htjJFyda8KEQukXcGQxDIhNtgP+ae2eXlYhfbJ0UChPYrtUPOCuS6HqwBeGyb7Yw90IUNkJZqRwGu+S4X3YZnqERWiLjhf5KzaQzCRQoYalmicrUKUBmtfUWEuTrQ5LzQvhBBCyO6h4S1pcszXPpmkxmV91BqXWIq0Vg3Q8mL5/SOX3H1YUuA6hJDdBc2LReiEfdSyoLNXtPV4o5DOBeMyS4U+5/FO2EcUBNEOe8J+tEIjpKwhumMPhhygKlEBnBcK/zG8EhP2kfIVbc4Moj1jVLbRwdT+VBWA6VmowmMvqaJNzcdrQ70NTBTWogNarF9cNC+EEELILkYvBFJ7ZsrxUz0yYVOpbLE7hEU1JLEUaW3QwMzHHJixuYHrpmgZKoRUJzQvFkijukGFOhYYC5iFaFERpEyhaB37YqAlBjFGq48JB9ET1MggVQsdwDDsMRI4H7s+BiYF0/BRa2MDEwSDALOFjmTosR4JtEVGkT72QTtD1KDY54ouZZjZgscQbTpWFekXETqTIbcQ54xuY3hfo0VdAM0LIYQQsmtxnNpUjprqlUlbWsjmiMYl1IjEo/DnIfVMtaJYlrzjljv1oiRW9ggh1QXNiwWiC6gxQW0J1qMFG+pewklTYQijHYV4VIWJ+/GClC2knGFuC6Iq+DpSuhZmudgF8uijjin6oQYJaVuTVXgcnb1QJB8OzA66iGHuCozHKBWMiA3eo16q5SpEYND2EK8vHBwbRgTGBbexamwAzQshhBCyC9E/zE3uyZIbfiqQP8w2ajISYV6g8OciDU33/tgtE0obBZobEbKroXkJASlWuJhHHQjaJj+lCm2BDIOD2g8YG+yJQTmoSwkF0/dhLNCNC2aouSoU1KYcr0L3L+yBvVBfg8J6G6SHDVThPJCahp7WMD2hwGQgGgPjgX2QyhUefYFxQA9sPI70NsymCa2NwTFxLvbMGLRfxkyY0DWFqj4qmDWYLbynuapY0LwQQgghu5B2+rd7SJYc/bFXhv1dJEsD5sU2MIkyLzAuLcX83S/fjM+TG/ZrGjXdnJDqhOYlBKRCIa1rkgqRin9UT6gQeYARuVxlF8qjyxdaHYebCkRrUA+DVsEvq05RhadiwSTh3FCDAlPwpgppYGiBjKgGUrRw3jgHHA/3R0rT2lc1VgWDg+YBMDwwUzgH1LNgLgvOFXuhqQAGSoaDqNHdKhTzYy06raGGB1P7Yarw+vE+IHUNKXKxZsrY0LwQQgghu4EuabLf6y4ZtKhIlpRZaV47mJB4TUz4ejVCm1rKlr8K5ZvHMgODvSuSdUJIIqnT5qWHyp7dgqn55ZkXgKjDeSq0A0ZrYVz4L1ChLTKK4xGRwcU83jRESMJrXVAQb7dchjHprUpXhYLn4LmYEIq9sCf2hpnB9zgmhkF+rDpXFa2TGSJBqGGBqcDrRCoano99kAYGU4M2yyjux5yWaHU5aBqA6AqOG34uditlpLDBGMXzHtK8EEIIIbsHx33pster+fLMP0WyeFuk+S62IYmm8HVqgHQfc65fvn5YjYuPxoXsXuqseUE74/tUMBEQ6kNitQIOBWYDUQd0H/tRZe+B6ASGPCLiggv+SGYAF+tYA9OA50xUhdaZhII0r9tUWA/DYB8H7ZFxbKRw2Z3BogEzcYwK/4io14Hhwh4wLkgZQ03NfqpY3dDwOvCPj1oenIudioZoC84FzQsQQUJKXDzQvBBCCCG7kW4ZsufbLunzZ6H8ZRuQncyJ/X34/fZjuLXSz2b65fP+mYHMjPAPZAnZ1dRZ84L/XOjkhcjHYNXVqmizUCKBC3oYFFyII8ULdSfoRgajEGsgJT6NQPG8bWDQphhvcjSwHnsiYgOjgWMh5aulKlZHr3D8KhwXxgqmDfUwJ6piHTscvK6jVXidmEdzuwrnYrdojheaF0IIIWQ30z5FzpnqkW8CRqQy5qW1mFuDEZdv++fQuJAaQ501L7sTFLAhDQvtlJG6Fm3YZV2F5oUQQgjZjbRLkexxedJtZoHMDhgRmBdbkYxK+Pe6DjUufxbKN0gV0y1pXEhNgealGsD8lAkqpH6h8L2+QfNCCCGE7CYubyb5Y3Plzrl+mb6xpWwMmJFICjUstmmBYHBaifmrX75CcX4aa1xIzYLmJcEg6nKxChGXtqp4CtzrGjQvhBBCyG7gklRp+apb7v3NL79uhhFBe2O9XVwka6b5ZPa8QlkQqGOBQQk1LLbsGpdC+aJftlylWzLiQmoaNC8JBnNRMGAS9TIVqbGpS9C8EEIIIbuY53Nkn/c80vu3QplnR09wu6RIlnzllSHDcuSGd13Sa1GRLN7+eJhx2dxSyv70y7d9WeNCai40LwkGRfYVKbSvi9C8EEIIIbsOR68M2fNbn4xChCXUuCwqlpVfe2XYg1mBD1UdPdBG2SXPYA4M2h8H1sK46K0aly1/FMrXD3COC6nZ0LyQhEPzQgghhOwins6Rfb/xyKglalR2MC5FslaNy+CnMwOjGWwCc2BeVwOzwyR+1Zwi+fLxTLmcNS6khkPzQhIOzQshhBCyCxibLQeoQRm+uEhWhxoX/R7G5ZmJbtnbWroDXdJln3fdMnBBsazDegygHMAaF1I7oHkhCYfmhRBCCKkgXbOlxZBcOaGv3lp3xaKJmo39vvHKMDUqAQMC47K+VMy/C+WP733Sv2+u7GWtjcjNabL/R24Z8qdf3h+WK+30LhoXUhugeSEJh+aFEEIIiR/jqTzZY5JTBkz1yPdf+OThK1Mkx3psJwpEmvbMkJN17YTFhbLKNi7oLjarQGaOyZOuvXIDF3gYuB0L4/p0KWiXIkeckCy51n2E1HRoXkjCoXkhhBBC4uS6dNn7Vaf0X1AoS1arAZlfKPM+dso9FyYHLtLCaTA6T8743S+frCqRtYFie7RDVgPzk09mPZcjt11acSNS3xsNkdoFzQtJODQvhBBCSBxclyx7v+GSvn8WWu2L1YiUqSH52y9/feiRu3pmiM9aChq+7JSzfi2UD7dhRotVaG9FXGY9nyu3npYkbmstIXUVmheScGheCCGEkHLokSotX7GNi1Vob7cthoH5q1Dmf+ySHrcniUuXJ/fKllNRn2KvwXM26u0cv8wYnSN3VCLiQkhthOaFJByaF0IIISQGPVKk9UtqXOYXycId5q3Y0u+36e3ffvlzcp7c+3S2XPC7GpctpbLFNi5bWsjW6X6ZrsalS+cUyba2JqSuQ/NCEg7NCyGEEBKFTsEal34LCmVRwIiEGxdbev/WUjEXF8o81Q8bi2VTiHEp+9onrzyZLRde0kyc1taE1AdoXkjCoXkhhBBCInBrsuz5pkv6/BGeKgahjgUKMzDbZX2/tlRW/lQgr92ZKqfolg2COxNSb6B5IQmH5oUQQgjZEeO+LGn5slP6bS/Otw2JLdu8hBuYEG1RzS2QKRcmy7G6Z6Pg1oTUK2heSMKheSGEEEJC6JYpbSbnS79/iuSfreHGJdywxDAwK4ulbLpXxh7CrmKk/kLzQhIOzQshhBBigXbIr7ukzzy7xgXpYrYhiWFUIt2/Ue9bWCgzPnNLl+tzJN86BCH1CZoXknBoXgghhBClW4q0iVrjAlXQvOD56EL2l1/+RhvlXjvOgSGkPkDzQhIOzQshhJB6TUeRJo9nShvUuPyNiEtotMVWNNMSqkjmBgZG78McmI9ccveYbHHqH14W7pP6As0LSTg0L4QQQuo1PdJlLzUu/f8pjjDHJZIhKU8RDMxWvZ1XKH9/6pb7L2/GFDJSb6B5IQmH5oUQQki9ZkS+nP+NT34PmJbWIaajMsbFVvjzEM1RzfDJl+2T5GA9rBE8OiF1GpoXknBoXgghhNRrXsqXo34qkGeXFMmqgIGxIy+JMi/WnquLZf4PPnmqY4q00cPSvJD6AM0LSTg0L4QQQuo1E0QaDMiTPb/xychFRbJ6u3mxTUhFDUwE47KiSJZO9cgDBzYVb08Rh3VoQuo6NC8k4dC8EEIIIUrvfGnztU+Gq4FZt914RDIk0RTJ6MC4FMuSD91y7/3pUmAdipD6As0LSTg0L4QQQojFZJfs+0OB9FtWLPM3W+ZjB2MSzcREerxVwLjM/9gtD1zclMaF1EtoXkjCoXkhhBBCQuiXIyfP9cv0TTAi4dGXUHMSqtD78RwValy+9sjDSSIea2tC6hs0LyTh0LwQQgghFgelStZbTumyrEiWlIWaEfvrcAMT/r1lXFYUybKpbrmvbRKNC6nX0LyQhEPzQgghhATJmuKVbmpcft1SKlu3mxLLkGw3KJBtWkKNC9RKzJXFsuhjp9zbM0381r6E1FdoXkjCoXkhhBBS3zHOSZY938yXu5aocdluVtSILC2SFTMKZO7iYlkfMCe2iYlkXoI1LvM+c8sDpzcVn7U3IfUZmheScGheCCGE1GcaXNtcDnrDJYMWFcuiUOOyslQWf+KWof2zpMtnXhmrRmbx9sdtwwJZ368qln++9clDSSJua29C6js0LyTh0LwQQgiprxhHNJMDPvLI4HUlsg6GxTYua0pkxatOeeq0ZNnzKpHUxzOlzXfBNsprI5kXNS7LPnXL/VdkiNfamxBC80KqAZoXQggh9ZJzU+TwqV4ZvaJElgaMC9RGzGXFsuS1fHn6wuQdL7Ym5cmeX3tl2CKkkMHAWNLnL/zILfexxoWQnaB5IQmH5oUQQkitBtGOYxtLG/2ycfCe2JSINO+TJWdP8ciElSWyxmxtGZEWYi4qkZlT3PLAAY2llbV8B8Y4Zf9vvDJ8SbGshdlZjRoXjzx4ZFNGXAiJAM0LSTg0L4QQQmotnVMke6JTuoxzyoDeWXJGlkiq9VBEDtPHB2fLRV965bP1JbLNThXbpsZlcaHMeS1fbtFluOCKSp8c2edrr4z+wy+zv/PIk6xxISQqNC8k4dC8EEIIqZX8X6pkjcyR2+b4ZcbqUln9V6F89kyWnKkPNQqu2JE2Io37ZMml33jl0/WlssU2LtCSQpn9Yr50uEH3tJbHosF9WdLyoQw5+ZZ02cu6jxCyMzQvJOHQvBBCCKl1nNRMnM/myq2z1bhsQNF8azE36+0ffpnyklPO0SUNgiuDnJAsua875abpBfL1ihLZGkgVU/OyrVTMuYXy7UtqXNTcZFrLK4Jh3RJCdobmhSQcmhdCCCG1ijOTxPV8vtyqRmQm0r0CERTcWnUrfxbKh+NyAwamIdYPdovnbad0m+OXX7fa61WrimXrH7r2DbdcqstippsRQioFzQtJODQvhBBCag3XpUnGKDUuP6txCTUs4fq7UD7uky2nvZ0nhZ+5pcsffplfhsf+NS6bfymQ9yfly8nW1oSQxEPzQhIOzQshhJBaAYrzR+fIbb/65ZeNLaQsmnHB/ZtKZeM/hfLdnAJ5bX6hTC/DJHzLuKwsljIYl4lOOVGdSxNre0JI4qF5IQmH5oUQQkiN5z29CJqaL7csKpQZAdMS0t443LjsoGKVbVz0+wWFsuATt4ydmC+n6LY71MUQQhIOzQtJODQvhBBCaihtm0rq2S2K86495qK8E+7p62kzc2pJiflVixLz82KVfh24DRXus/Sl6mvVV3r/1JJS8+NC/9rhzozR/0uSg6wDEEKqF5oXknBoXgghhNRMkq7xNEm/6lFP/h3T9vP0WHuMr6t5guo41bFxCmuPV7X19TD3d9+xMC/zwk66c3LwAISQaobmhSQcmhdCCCE1ElfObfv68m7/Ksvd20z1jlKNMJt4hpuNK6wRZkPvOFPcQ9dIVscHdWsOlSRk10DzQhIOzQshhJAax9AkcV2df1j3gz1dV2T4RprieV71bBX0AkxM2QXuC358NDvtGj1ExEGWhJCEUifNC355OFVtVP9RHaraR+VTNVMlCvRvL1btrzpYheNlqypKjqq1CnscqMKeKaqK0FjlVe2twmveV4VPgXbHL1KaF0IIITWK65tJ/vf5cssIT+H0k32dy9J8wwIGxPCMCshRCcH8NPcONR8pPMv8siDjo+FZcpYeKil4REJINVHnzAsm2Z6gukf1supH1UzV+6qnVP9TwcQ4VJUFk28LVJephqo+V+E4OF5nFcxMPKYBa7D2DtULqmmqr1XYE8OtcIx4puxmqNBT/nEV/iF/Vn2selh1oipNtSuheSGEEFJTcNzgkqxxeXLHokKZ+WOJp+zsglvMJE9izEuyZ6j5sJqXxSWpWxcUytQxuXLOM86EflBKCNmROmVe/Kpuqk9Vi1RmmFaoflE9rTpAVVkQxcEe2GuDKvQYf6tgRI5XxerzDuNypgpr56tC98CeMFyPqVqpYpGvulmF14zXF7rPMhWMFULZWapdBc0LIYSQmkLze3Pk/F/98t22VmL+Wuoxz1Lz0sQyL5FMSbyCeWmm5uV+NS8bWqaaW0rFnOuXKb945Ujr2ISQxFNnzItH1VWFi2ZcuNsmoo8KRuN51WwVHluu6qUqVVW0H3uR6gnVEhVMxkeqvirsN0m1SoVjvK46RBWJhqq2qldVW1QLVXgu9u2n+kSFPXCMh1QuVSQQcWmn+kmF9bgdrsI/KG7t1/u96hJVU9WugOaFEEJITSG5Z6ac+KNPPtzQQsp+b+ExEXlJtHnZpOZlY4lsnl4gL0zzBbIqCCHVQ50wL4hi/J8KkRBcrOPC+U5VicpOu0JU5kbVDFWZ6k/VLaqKRCRw8X+TCs/drIIhggmxjwEzNEC1WoXzQOQEtTfhwAAhNQzmB8blXlULFcBrQdobTBGO8bvqYlV4Di3S3mAMpqpwLKSbwaCkqwCMTUfVAhUef0OFaFM8aWhVheaFEEJIjeH8NtK4X7ZcNM8nH31Z5Nl4dkFns5k3MeYlRc3LY0VnmwuKU1f9ViDjezYP1K/uir+1hNRX6oR5QWSiv2qbChfqiLSg6D0crHtA9Y8K695S7aWKB5gFfJICEwDzM0t1hio8cnOEarIK54IalnNVocCEwIz8ocI5IDpkGxcbrLlChUjKVhVM0p6qUGCKHlUhcgPBrIUX+ReqYKCQTrZU1V21K+pfaF4IIYTUKM7Tv61T8+X8J90lnxzv7bwlwyrYj2RK4hXMS6p3qHmP/8yt7/syn781LfAhISfsE1K91Hrzgk830FnrRRXMAC72r1RFAmtPU6EOBGvnqRDliAd0FmuvQtRlrWqgKlJPdxiP21QbVZtUeHPRRMAGpgppZoi6zFVdp4r0CQ2Mx3MqnOdiFQwP0s1sjlUhOgMjheL8SPm12BcF+4g2YR80LUA3suqG5oUQQkiN41H9W35e3vFX7ufp+neGd4iaj7ERTUm8MrzjkX625QTnxe91zkpFHSshpPqpE+YFtSUvqXCBjlQrXDxHAp+GoI3wmyqshYFA9CQekHYGM2EX0yNNLVo3kVNU81Q4BiI1iNjYBuVUFbqBIVqC7mTR6mJQ7N9ThXXYBwOwclUAUSBEWmBqEFVBNAk1P5HAeduvFylo6LYWq5FAIqB5IYQQUjPJerplVl6PT5LcA7cZnnERTUm8MnwTTId7+AbJ6Hi/7owLKkJI9VMn0sZaqp5V4QI9VuTFrhPBRTXWIvIRb0cQmAw7goGCejwvWmgY3cjeUyEq8o3qvyo7aoI6FOwBIQKDdsjRgEFCJzK8prGq/VSguWqcCnugZgbdxKLNhUHECM0EYOqwFqanun/B0rwQQgipmSTfumdKTvf3GrsHbHF4n1MTMnonUxK3bPOS2fFu3dmuOSWEVC91wrwkq+5T2aYAtSCRIhH4xYKZKihiR8QCdTKITJQHoiYIB9vF74hkxGphjJSvQao1KkQ7YFgQpYHZCT1PFOrDiEQD7ZanqJB+9qH1PcD+qNfBHuiqhnOLlHoGEGVBkwGsQyMBpLuhkUF1cp7KNi9IWyOEEEJqBAfknnX2Hq6us9M9z5RVNW3M4R0P87LJyOo8VBoV7oq0bEJIcLg7OvTWavMCDlehPTEu6OeoOqlCIwwwLhepUO+CYnoYEERP4kmhQpcxDKS0Z8cgRS1SvYsNGgPAmGA9DAPCySiURxQEzQRs8wIjFauwDx1LJqpQP4Ooj50OhzQ01LtgD5ijY1TRwOR9dCFD8wBEcHDuiAxVJ0jFw78BjNfRuIMQQgjZzTT4zSfnTfKXfHiqr/OGNO/QKhfsO4LP32a4Bsw1cu973pF57VV6nAgNg/KSpVGLvSX5kOOl2ZEnSfLhJ1RKzQ47UZr95xRpuvcRkuSOli5OSF0HH/w/oqr15gVpWYhMfKBCnci3KkyYv1aFzl2YuI8LflzAf6E6S4UL+3iA8UBhPWpMYBjQISxWi2XUpsCYzFPBKKF9MtbDKSLyYZsXDJeMBRoRjFLBvODYV6sAjBqGUmKP31SHqaKB1svoeIbXjPWIhqDuJ1HgB6i1CueETmuHqnqoEOnBfJkOKnRKQ1c3fCpFURRFUbtK+PvTupnI/kPz5KpNRfLZ76V55mkFd5iN3SMTYF5GqsYEal8M92DTyH/oZyO7W1/J7HKZpJ2JaxKke7eUxnmnSfpFTxg5d7xuZHd/y8jp+kallN3lTSO7x9tG1g3jJPnoTtIwA3978RojvXaKqmvCtSSED+3HqFCi0UZVq8H8lKdUtsmIJqR0xZMuZmPPTMHQSDwf0ZBYua0wKZgh85cK62FAcB8iQUOs+yDsGQv8A2EeDNLG1qmuVwFEM+z5LkjPimVG7En+ttlBBAYmIxEgVQ2zbXBeeF04VwwFhRNGWh5eP2p17lIhEoUIFEVRFEVVt5CijQ8te2QY8uB1qfLc7wXy58YWDc23S/Yx9/A+bIp7rJqXMWFmpHIyvGMDcnhhhkZuM/KeWmZkXv+tNGv7vDTyPW0kHTDGyO480+EZVmatqaT0eKjTyX9ypZF61vvSIB3ZHKi3ifQeUFRdE/5fQ6jlRk05SipilXHUeLyqW1XoBIbidNsgRNJ0FdoZ56viAeYFaWjxmpdsFaIqaKuM9bZ5wfEqYl7waQrWI/KC9swwCTAMcJx2u2eYF6SXRQPmBWlcSOHCepiXeJsUxAPqb5BSh/Adao3wSxRtq5er5qkmqPADhygYHqcoiqKoigp/Y2xFejxc+JvzUJohvbukyzvTfbLELBXzneL9zFN8t5pJHqSM/VvvYrhHmoaag3hlP2/78z2j1byoKfE+H6yDQRMA1wA1GY+vMbLv/NvIaPeLkdvjn4Bx8U0MGpBKSff3TdZ9n95gpJ79qTTIQO0uOo5Geg8oqq7J/h2AjKYfVLXavCB1CRf2s1W4QMeFMwraH1LBpEB40e+obGODAZBIKYtnaCOMCvaPN20MRgXHROoU0sYQ6YGhQToZvsYeUHlpYwiRjVTBvMA4IW0M5gXmA+lf2ANpY0jVigbMyzkq2+zgNtb6ioJmCTAwSHGDkHtov/YfVWgWcJAK0SF0bKMoiqKoigh/P1Cric6iuC3v7wk+0EO61nl9s+T5hUWyeE1pivls0ZHmUd47zUaeEYF0MRiO7eaj0uZFDZB7xGYj7/FpkvvQDId7cNCcFEzS2xfUbEwIrsvvs87h6rvW4RlZBmNjuHFMmJ4KSNcHTJFP98x/6h8j9b/9pUE2RjPgb2yk94Gi6prwfx/C2BEMcMf8wlqZNob2x/iP+6oKF+e40EcbYXS5Cm0fDJOCCMTbKhTRoy4GLxrPLQ90CkP7ZbQaxjFQ9I6i/GggwoIIBAr2ETGBiYIBgsnqrcIeEOpicP7RwLkhcoHXhAJ4zGgBB6pCC/ZjFcWjrgcDLlF/AiP1mgomozo5W2UX7MdqJkAIIYSUyzMZkra4WPYfURAz62E7HZIl9wuX3LahWGb81dJlPlF4utnK+6iVKqbaHsUYr7dVUMErAXNiZN7yjKRdfrPhfGK04ez9vcPZb5nDMyxoZGA2vJgn8299TdXMi+7p7PW7I+2C20QOiOcDWELqGvg9gKBErS3YR7cwGAsMfsTFPG5RoB7JFMCEwAB8pcLapSpc2McyEACPY1bLPyo8D4MnW6iigdktmOECk4QIBCIsiFDASMDIYA8IQyijzWcBmKKPkBjMC2pW7JkpODaiSNgDdSWnq2K1Sr5BBZMDI4U0tFjnngjwXiGdDed8Au4ghBBCKsPlaZL+jltu/t0vn7zjkduubi6Z1kMR6dRUfG/kSZclxY1+n1Fasu0G/5VmmucZNS3PqcapEXhWjYAaC9eQTaoNVZLn2Y0O1+AVjsyO3URSsySlbbaknHGukXndACP/8e8c7mGrHZ6R2wLGJVDrYpkXS/b38cs2L0//4Wh+QReRVrGyQAipqyCbqVa3SoYpQEE4jAiK2jGsMlb+G2acoCYDF/7rVag7wR7lgQjCPBWeB0OB1KtobY7xRiLCgc5miHhcqEL6FgxGV5VtXjBgJ1bL5QtUGKSJKBEiMIi4APyjvaLCHpg9g5qTaNP+8drgTmGAEAmCYYoVNUoEHFJJCCEkEaRNcctNS4rkj/WlUra4SP7+zBOob0Ut6k6ckix7feWWJxcWNfjrxeJDzfP9t5kZnsFqWp4PmBdEQQz3kK2S+8AvRuYtk42sjiONzJuerbSyOo83sjqNkNQz0RjHviZIkrQTCiXrhqMl+8aeRt69nztcAzcFalasVLUEmRe9nihCOjoh9Y1aP6QSF+coCEeUY6UKTsynigbqUdBeDRf+GCKJqEg8YVcYIkQ7YEhQ9I4LdMx/iQTaI8J04BhIU0N+nh0ZQeTnDxVSuJCvZ0/NDwetn7upYDqwz2Mq2+jACOF7vOZlqu4qpyoS6AP/sgp74LiXqqIZnURB80IIIaRK6B+tjPleubmsWKabrcS0pd/PXKgGpkx2jMD8kSOH/+KRwd/68xaOKD7RbFvQUw3LGNUEK01snGk4+86TnLuHSXrHS6Rp2yOkUav9JWnfgyqv/Q+RZvsfINISHwrib3M4Lsm66kwj594xhrPfgkDHMO8YmhdCqkatNy9JKhgQpGchkoLWvLEiLzA2iGLgYh6RmmtU2KM88EsSURMU7cMwoNtBpF8a9kR7mA4YHXQCgWGyQftjRIfQOOAXFcxEJHCetsmCKcPgq9C5NKgr+U6FfRCFsaMy4SD1zE6pQxpXtHWJhOaFEEJIPBhSMKp1g4IXjmngflY1MijX0OP2z7no9uH+fX79rKS1+ZHqw2KV3uL7Uf595h6cc+EdWIf17vy7/tveecSkkQV7rb2/6ALT6+mtpuVZNS3o/qVyDzeN/N4zJOvme/XPOWaT7VIapJ58qpFz58cOz/CygIlSI0LzQkilqfXmBREKdB34WIULdEyiR81FpJQuREpQH2J36oLhOVllR0XwHBgZrAuvg8EnKjAC9ryUL1VHqcJBl5PxKkRWULSOlK7QehSEulGDguJ/rBmsCk8dw/EvUiHlDMdCjU246UDdCp5bpoKZwhBNvBehIOqCfthIqUOUCYZrV+TH0rwQQgiJg54Owzuyj16QL9ELc9XI7WrkHrI6x9vPdKnyVLnWLb7H/XjcXtvAPWJZsnvgplxvfzPdizQxRFzUJGD2imvIFsP55DeS1v5qST1ot9SINEw5sK2Rc8cral62IX2s6ublqd8daf+7Q8SJNHJC6hu13rzAGKC7F9LFEOmAMIcF7QND08FQGI/icbQ5xoU8hiiibTHa/AKkn7VVIQUNaVj7q8INEIwHCu6RroXid0RVQjt3YS8MjIKZgOnA/sWqUGCK8BzUxGANLvJRd2OnfeH14DzQ6hnDKdEkAFPqw1PbEOFBswEYJOyDlDa8Zjs6k6pqr7LT1z5RYd/ymhMkApoXQgghcaDmxTNygsP/pl6Uv6h6YbsE8qjcEYT7Q9YaWOvF/RP18ef063HBiIur9xoj5+7xkn7zaSIFcXUqqw4aJB98jJHT9aXEmZen5zpSz7tVLw0i1v4QUsep9ebFBlEQFOJvUMHAIEKCCZwwIneq8CI/UOFCHqlWqDdB0b19sY8wMlosw9TMU+G5iFyEg8gKnou0MKydpELDABwHM1kQ5cAx0Cb4OFWkCBBqTlDEj+mgWIv5NM+o0DoZ5gnGBffDJMEgFakigcGciKygaB9RHBwT0ZUuqqdUmGVj74/IDAzNroDmhRBCSBwEzMuIgAlJyLT7kXpxP0H1HGahzDWybu8tqf89zDrYbqNB8qHHqnlJUORlvJqyvkuMzA56fZAfbcaFIdIiW9KvbCvZHf8nmZ3OqZpuPFeyb7xA94pWp0vIrqTOmBekdWHeyWgV2gIjuoIL91AhWoLWwqiLwRyY0DQrpGXh4h/GB2sxhf9wVTiIXKAgHxEcmAZ0ArP3RwoXamLeUyF1LVYbZHwChIjKVBVMkL0HBGOElDakhR2gCk07Cwf1PYg6zVKh5id0n1Uq1NVgaGSsrmaJhuaFEEJIXBjeUcMTZ150D++4tYazz0+O9Gu7ixT4rcPsVhJqXtBy2T14q5H38I+SddN9knXzsZLdqVQPs2OGRqPW+xnZd4wy8h6cbeTd/6ORd9+0Siv3/p+MvAfmOPLvxQw7QnY3dca8ABgYTODF3Bdc+GOaPAwGhNkuQ1XtVPikIrT4HeCNQOH/1ypc+CNaAZMSCTwXnz7crsJwTKxFJy8MvcR/bEzAj6cJAAwMLu5hPlCzA2MFE4KaGURKYEwiRW5CgZnCXBnU1sC4oU4GxudbVR8VZt7s6oI+mhdCCCHxEWZeQifZlytr2GPwwl6f75toirPvN9L8gosl5YAaUw+SOPMSIveILQ7XsBUO18DfjJy7J0vzc9pL433VxLTDtVBDabr/kUb+U1NwPId7eJnDPbTy8oxQ04TzHoosEUJ2N3XKvNhgkj1MDCInKOaHYChgBqK1RYZJQJoY2hPDRMDslDd9H28eamNgcnCRjpbIiHDEipSEg+gPamWQwobmAdhrb1VF81iREoZ/QNS1YB+k0WGmTbR2ztUJzQshhJA4SMsQ58DnUbNSmciLbWKC348xDd8kU/Kefl03xod6NYbEmxdEYDC3Rt833Dr7bTbye80wXIPfNPIfeaxBynH/leRDLjGcfb5yFLyia9B1DXVAlRRS1XQfwzsGHwITsrupk+alssB03KL6QoWakWizU0hsaF4IIYTEpHOKZL/kdHQ6wNP1Z8P7gl7MV8284PmGd5K5n7v7z686m9zYU/e3DrXbqZbIixVpCjY6wO0kNRgvqZHpu8HIvXOK5HR/2XAN/DNgbmB2Iu4Rp5CqpkZJz5mRF1IToHmxQJgVhfEo1EeXMERCcB+pODQvhBBCojIgT3K/d8qNi4qN3671XxPsHlZF8xJsjzzJvMLfwZxf1PD3H5zSqVdu4CJnt7OTeXEj5c2OGMWnfyNMaiRcQ1DX87vDNfAPh3vIElVZILqCZgWIlMDIhT2/otohJY/mhdQsaF4s8AkNWg1jGGRoFzJScWheCCGERCPzfbfcsqlY/tjW0jA7FKp5CbQ/ToB5cU8yryrsYG5p0dDcXCx/fugJNKzZ7RGYoHnp8qqal6DJCERCKiMr2uLq+4eR0e4pSTvnSsm8+m4j9/4vHO5hW4NpXmo09BhGIOKC97RiJslW6HtL80JqGDQvFpjzgm4dqHsJH/ZIKgbNCyGEkEg4OjSXk77wyRSztZhmK8O8CpGXBJqXS/0ddN+GJvb/2iuf3Zgup+kfpfKa31QrDZKPOM7IvfN1h1cNCNK7YCwCCqkrKVdYr8an4GXT4ez9hyP19M66tUvlkcybT3Q4n7jJyL13qJH70EzDPcQ0UKeCIZ00L6TuQfNCEg7NCyGEkEg4uqfJ0R94ZMyKYllltjTM6xMcebmmUM1Ly4am7r/6E7eMvTdLjmu7mz+UbNDkgKONrE6THK7e6xyugZsdzn4bKqf+Gx3uwVscuffPcqSec5v6lkzrEBYprSW9w3VG3qMjjfxe3zncQ9cEjEfY+xaPaF5IDYbmhSQcmhdCCCERmaDX8o9kyGFfu+XZxcXGivYJNi9X+juY/xQ1XPWNW557IkOO6FkTsikatdpTml/UxcjpOt7I6T7ZyL5zYuXU/QUjp8crRuaNAyTlxLNFStBdNZwGgQGVKee0N/KfnhFIMwuknEV+D6OJ5oXUYGheSMKheSGEEBKLRl/ly0Gvu4xnj3HfsFwS1G1MvJPMI92dVr7sbPz8F7lyiB6nhtSvepIk6UyX5FxfItk3tJDs9qWVVlaHlpJ2uV/SjsBIhejpcE32ONpw9poK0xGsfYn8HkZTZPMyGg2NCNnd0LyQhEPzQgghpFzuzGp4YI774fcSOecly/XIJ50zMg6zDlFfcUjKf44wXH0/SZx5maTfj+pt7R+ZlNOzG6RecIpkXn+VZN/cTnVNpZV1y/WS2elyST4Ds++aBA9ASACaF5JwaF4IIYTEh2fUM4Ei9gSYF+wjnmdHWTvXZxpIyiFt1bx8mhjzos/3jkd75zcl7/Gj1aRg6HdK8FAhpF+8l5HRfrSRe9csI++RP4y8B3+rtPIfnWfk3T9N0i5tpztHGzBO6ic0LyTh0LwQQggpDyO78REtGroHvhysy0iUeRk9RsTcrd3FagCJNS8BjTYd7pGbjPzes4yMTsOk+ZmXSMqprSWzI+pugpGR9Cv3MXLvfNvh6rcl2ChgROWFbmnuwWscWTferjtnBfYnJAjNC0k4NC+EEEJiUtr8kINbOW+fkOEZvES84/RCueJF5TsqaF4M98ixIhPq+6y2ajAvqkDrZb119l9puAfONPL7fmBk39VHkk+5WI+ZIWnn72vk3vW2w/3MtoAhxfrKquAlNS/D1zuyOnbRvWleSCg0LyTh0LwQQgiJSlbaxcdk5d/zYq6nz9YU77MB42KEXiRXSjQvIVSDedGvMW8GKX6+F4PmwqPfO3utNXLv/9LIf6yv4XxyoJH/6DSHa/DGgAEJ7LPjvnEL5sc9bDUjLyQCNC8k4dC8EEII2Yl9U1JymqVfeFpS/sOvNvPiYvg5UzxjTcEARt+EHeWdoPeP18ef31l6Px7f8Tl6ke5/Uy+Wx7xA81Id5kX3cA9Z63D2X+pwD9b3X/8NAtEV/FtggCbSvPQ5rkFrHa7hm+32zDQvpBqgeSEJh+aFEELIDrSSbKcz7Yybm+Q/9p3DO24zPsWHcWmgF7kNPcPKHO7hG1UbQm8be4aUJXuHmimqZp7gbbLe4v6w9aqRG9XQbDTcI0bSvFTdvOwofT6m++c/+YWR0aGPkffIVIdryCp9TE2KPm6bz0D6H9aPLNvx+ZUQzQuJDs0LSTg0L4QQQrZT2iS3KCfj/+5Jyn94ZgO9EDb0wlQ8zwUiLm7P42ZxfufPjaxb7nFk3tLNkX3r3Y6sLl2bZHd6qG3ehZ/c7D1zwxNFZ5sPq3B7i/eMTcfkXfhpcnbHh7EusD6gzj2NnC73SeYt5+ifIRbsJ9K82HNeXAPHSJO2JZLT8zBHXverjezO/Y3ce79T86iPvxQwOEagUD/CHhUVzQuJDs0LSTg0L4QQUndxtk+Rw+9vLsXW9zE5IPPYg/Nzrnu6Wf7DfwaiLYF0sOfNVO9os9R198YjXO0nnZhz9H91aa4qXZWDW4+I+6GsxmdOdqc9N70wde2GlqnmzKLUda940iY8mpV0domILtm+3la+KlVV32kgyYceZ7j6/+Dwv61GYLIKtSqVVMHLJvYxPONGWPtbNG4lGddcZDh7P6GaYDifmm64h20NdhqLYEgqIpoXEh2aF5JwaF4IIaQO8n66FLydJ7d/6JZXvnfKfWW5gYuIiBwg0siZfsmRvtyOE9Jcj61HRzFEWww1LkmeoWUlzjvnX5R3yrgHsvIPtJ4SkYcy5NBP3TJuUaH89rlHxj+RIUdYD5HoNJCk//zHyH98ghqBuQ7X4N8crkGVl1ufr/sY7kEPWPuHg0hXsaS3727k9/1b15ZVOdpjm5fsjp11b5jUyGSe3FxyupaIc/j+4huzvzirIN/z+0veI3tI8jkw0g2DByA1EJoXknBoXgghpPZhBNOtPtSLtkhye/rnN75tQVGD35e3bLBxpr/BnMG5je+8pJnPGWl9VlaHYzPy7/2wmWvA+gbeZwMpYg08Y81m3lGmP7/rjBOzDup6S3NPiYlp8DFoqxeRT2XL/n2zpd1TWXIgvrceItHRf8uiXEk+83hJv+gSaf6/C6X5eVWQPj+4z0HW/pHJuPpwI/eej9TwbAl0JotkSuLV9sjL9Yi8ZAQPsDMNU45ua+R2H+Vwj5jr8Iyb63CPrKTGzHV4x8915D/xgSP1v1eJFEQ3TGR3Q/NCEg7NCyGE1DYa/6fUkX1rJ8M1dJThfe5Zwz1yR7n6v9TK1XX2Vf725nXF7c3zfO3NPVy3/97UNeDFndaqGrkGTmniHlgW6Cjmfd5spLc+3wBzL+dNP7XNbHvLnc1ETU+FiHoBSyICU4jhkc1USQkQ9mmkik7uDXsZOd3ecLj6BxoyRDQl8Qrd5DzD1hkZ1/fRnfcKHmBnGiQddYaR0/3zQG1PwSv/prpVWJMD3eoczicWO1LO7yriYqpazYXmhSQcmhdCCKltND3oKCP7trcCF50Fr0e4uJukJgQT7FVu61a/NyKsC2qiPh5MFWvue9Zs6X2s7GDnjVPPztqvQ89gbQqpa2TdcKCR0+Mdh2tAAsyLPt89fIuR98j3kn3XAEfewx0lu8fpknzE3nokTPUP0LDpgW2N3G5vbp9DE2mvuDRGf2bVMOU/MduRet7NIp5M6xCk5kHzQhIOzQshhNQ2mh5wuJqXSQ73sG3BT71Rs7CjDJWECN9HWgcZHgyfHGM294409/M+suF01+Xvn5RefNYBwU/wSV0kkebFUmDeDBoAuIZuMnIfnSFZHUdI2sVXS3anAySji69BysnnGTnd36F5qVfQvJCEQ/NCCCG1jaYHHqbmZaKaF73wfD7CxV3FhBkuSd4R5vG+O80r3Oe9eHrG3kdcrkexjkbqItVhXrxjTcOHQZj6M4mWzK5BaxyeYX87XM9MM/IefMnI7DjGyH3gGzUvarrVMLv1OZA1ZLNcYbCmrqd5qVXQvJCEQ/NCCCG1jXDzUtGLQChwEYjnjDab6oVkvrvXxtPdl024P7v0KOsopC5TDeZFVEZgCGZISmLBZDUzamhcA8oczj6L1dAsDw7GHK0/e/j5i7xXJP27nualFkHzQhIOzQshhNQ2kvY/RHJuez4x5mWsmeQZti0v//6Z+RnnnmodgdR1ElrzMlZ/BkdsEmfvr4y8J9428p+e5nD2WuxwDw2aDBToB6RfY631PJqXegHNC0k4NC+EEFLbaHroYUZ250l6cbglMCl9+0VdJeR9zmzkGrA1Kfeu9yX9lqidokgdI5HmJdAqefhKR87Nd0jDvIMl+YQLjYzrnjbyHv/McA2Zrz+nqwJGO7D+36GYFf25/Xd93ObFEGnbVPIG5IpnvFs8I6so7KEqmpBm7U/Kh+aFJByaF0IIqWW0ST/qzPy8Tp839Awtw0yWil4EhsrwjDOT3YPKPM67vnM6e+5vHYLUdQLm5a53Ha6BaoCf05+F0ZUX0sMw5yWzQyfdGRf2yZJ0skdy79tL8rqcIRnX3mdk3f6akf/0PMMzPJAyBlX05/bf9aHm5dyb9JDRWnM3lNTjDzGc/UY6fC98oXuoRlZe3me/cPjGf+Fwj9FjkjiheSEJh+aFEEJqF85r8g55/GRvx6VJ3mGmqPmo6EVgqMTzrJmh+xzk6bL8qvzDevZvKl7rOKQuk3nTf4zcuz9zeEaYjoJXgwaksvK/Ffx5yu50F3YOHmAHvJJyelsj86aHjfwnZwTWomBfbyvyc/vvepiXiaYj79EZjmYnXqv7RxuG2khSTzjDcPX9zeF/R58zWfVi5YX3SV+r4Ro52NqflA/NC0k4NC+EEFI7ME5LEvfEfLlttH+vX64s7GQme4cnxLw09w03T/TdZo7wFs/61ildbtHjWMckdZXM9m2M7M4DjbzHvjLcA783nP2+q7TcQ7838nt96si8+nLdOWpKVYMmBxxt5HR53eEJtkqu6M/tv+tH6/OfNx3OvvOMrFv6SMolR0rT1gV6iNTgkUJIO/o4NS/fBEwWTI8dLaqMkF6npslwjXrK2p2UD80LSTg0L4QQUgs4Vg3Fc3ly+4pi+e2H0tJtFxZ0Mpt4EmNemuo+ZxTcav5Y4itb4pc543Ole+cUydbDGsGjk7rHAWmSdOBB0uzIkyT12FOk+XEnV1qpJ50myceeIE32LtSNo072b5B8xPGhQyor+nO743oYilHbDFe/RUZ2jzcl/f8el+ZnXiLJZ+0lzXtmSt6lyXrIZtK87clB8/KC/ZzKC80GfBNoXioGzQtJODQvhBBSC/jAK2f9UyizzVZi/tSi1Dy/oGPCzEtj3ec0363m7FKfabYW869C+VYv/47Xw0a9ECW1HhhTpFvh37ixdVtZ2c93qKLSoJkaidw7306MeYFQ/D/GdLgGbjKcvRcZ+f1nGK5BnxrOXhOMrFvucTQ67AJJPuVGw9nnp1DzErH7XjShK5/VmY/mpVLQvJCEQ/NCCCG1gF/88p+//PLChhJZP6201PyfP7HmBZGXv1v6zI0tZNkPPhneNVsO0MNGqyUgpMIk1rzoHnbhPmbJBOpZoEnofGY68h9f6MjuOVVyH/jUcA9eGkj5onnZHdC8kIRD80IIIbWEO9Nk398KZPRHRaVLLvXfYCYlyLygduaMgtvMz4v9i+d45JnDGsm+ejimjJGEkljzokbEPXyTwzVwpcM1YJXDPUT3fF7NxcSAwQjIOz4w9b8q6WK2iQl8H695yezYXPJ67imuQYeK77nDxDW68vJNPEw8Qw6W7GudunNt/DCB5oUkHJoXQgipRfRIlj0edh889oKCG8sSVbCf5RtuHuXtsr5j3v4De6fJfnqYmOk/hFSGxJkXNSNo7+zsP9/IvO0VI+P6MUbuw18ariFqYkZudLhHbA08R82GEYi4oFDfMiAVVETz4h6Ni/HoZN54sJHT80WHc9BfDs/Y+Q73qMrL98J8h2voz5LZ4SrduXnwALWKHNUTqndUrXEHIVWF5oUQQmoZrXOvurPYdd/6xoELK72gciO9BV//e4FXruwJ+3pB1twz2Cxxdp/ly77gdN2exoVUC+HmJdQkVExIFxuPOS9zHM3Pv0uSDj9Esu86UvKe+p8jp3tXI/v2MUZOj68M59PLA+YlMMcmkeZlDC7Go5N109FGbs8fAs8peEWf80LlhTbU7qHbJKvd7bpztHk2NRl0n3tU9baqBHcQUlVoXgghpPbQXLLvOE3ye70sziEbgukweiFXJfMSmLC/rVnuXR82yu3BCfuk2kisecGQysdnOZqfc4Nu3SR4hADNGzZseaCj+XkXOHLv7m7kP/mawzPcqnmJtFds7WxeJppG/sDe1rEik9PpCDUvnzhcg7ZU7XWqYGDcQ5dKZruOunN68ACRyEqVJgV+adR6D2nUas/gbWXVci9pUlwizZtjZk+D4P47YYhkNg+sS95z7532aNymTUANS4+Shp6R0sgzVRoXnyWNW7bcaW1AesxGLfYWKcq19ickKjQvhBBSG0g6zCWZ114VnMsxVC+o0Gmp8rn824VPpV39N0tujzckvZNePBBSPTRodvRpRm73jwI/cxj6iBqVSglF+q+oeXnyL0fqebeK+KJFJBpJatvTDWef7wMmoBL/X3Y0L/p/zve8qfu9Kek3nibuYfuI66EWknSmS4+FCEOwJiX72v2N3Ls/3IXmxZBGe+wjqed2lszrn5HM6warBlVO+vyMG4ZK+oU9JfmAo3XvZsFD7ERDabbPvpJ+VU/JunF45L2uG2RktB9tZFw1zUi/ap5ktp8gWdf3ibROMq4fqscdJuntzrD2JyQqNC+EEFLTaVzQ2si64X5Hfu/ZDveIbYZnXKBWRTxj9MIK+fz/CveVp9D1KGp2uAZsU/Pytl6Q7WMdkZCEE4y8dHvL4RlR5vCOLXN4RlZSo8scvvFlgchL6nk3i3giTfUPknzwsYar99cJMS+B56vcw9fqefzpcI+cY+Q/9p6R0aGXpJzeQZruf6RISRPJuPlwI/eej0PNCyKd9l7xaPs5xGdeGjRoduRpDgwAdQ1erevXOFzPrK6chujzR65x5N7/lSPlzGtFiqINHW0iqaed6nA+9aX+Hol1PDy2Sd+LrQ73M2v161Uhj/0r97A1+rtNNehOa39CokLzQgghNZemDVLPPt3I7T7K4ez/N+ZaIM1LPNAE1SRT0BrWkqEK3OeOIW9wnf0cR8GrepE03DRye3wmaTfsbx2XkMTTeK+WknFpOyPnzieMnB5PBm8ro+5PGHn3POnIur6rND1WDYMzWnSgkTQ/4cSqDKncyUzgaxiSQHtm/f/jHmw68p9eYuQ98YuR/+SHhmfEGMM58BUjv7eam6FbgrNodtyzQorXvCQdc64j757PAt3WCl7U51kd1yosPR5+J+Q/8Zsj+b+dYkS1mkjKmeeoKZnj8L+hzwvp8hYufECCiFmkx2wVvKR6Rd/rMQ9Z+xMSFZoXQgjZBYxPkZwejaVUv8Qwv/Jptr9TMm64xsi5632Ha+AWXCgFTctzptfX3zzd38U8xXPdRo/7wSl6cTUaSnE9+dZp3htWXV/YzrzC3868zFZBO/NKvb2xqJ3Z1nPT4qb5j79jP8fwjBttuPuPcOTcdZtkdPJZRyekOkBtSrbKnQB5VGjDm6KK1mRCzcvxJ1WLeQmYf90zcAsjA8Ngfe99zjTcw7Y63CO3he5VKdnmJasdanuiRUHUvBx9liP37g8CrxG1OZH2iktWNDbv0V8cKedcL1IQzTA1kdQzz3S4+u8wALTSwnuqBsdwj7zX2p+QqNC8EEJI1cCFU1ORHL2IykrdUZKSKZnNL89pk9/PmX7jk3nNe3XIyj3z2EyPXnzhcTzHfh4uwvQ29ewsSW1fKlm3dzHyH5/jcA8zxYq2oM6l2NfL7FTwf+bL/tLln/sck4fmNjhOpKeeQ0/HGcmN9v6xwBi9vsRYY7Y0TLOFYW5TBb5WrS01Vr3tNgbu3ajRfvrrv4H9vH9FSJ0iweYFz1e5R6xSQ/GXw/XMYtUah2vIlsDjdnQB5iWQlrnjXpWSbV7Sr7hRX0+0CJM0aHbE6Y7cu953eIPmJZCmFkhVi1PW+qqal4h7RxOOFzimiuaFVACaF0IIqQoZB6RJ8hHHS8rJV0vKmR0k5Yx225V6+pXJzc+48aS8MwZ38Z0061H/ictv954y7bCcU3vp49dJylnX6HOuDa4/VZ9/xnVGVrsHJPfR1wznwPl6kfRvmpj7WXNP32Nm38JTzLd9eX9NdhpPfZstB5hhkZwPc2TfhX4ZVlYqW81WoqZF1VrMshJZ841HBg5KE6aGkfpCRPMS8UI6mna4wLYL9p+ZIOntz5K0y24x0jsMMrK6vWvkP/G3wzO8LNiWGbVowWNVWUjHcg1ZKRnX3q+vB9GmiDRIOvyMgHnBcWFe9LlQxD0j6N/1oebl3Oti1Lw01t9vZ1Ql8rKDMaR5IRWA5oUQQqpC+sUFRlaHJ42cu7/RC5ifjfxHftquvEd/aJj38Ayv6941B/ruN48pfMg8pOA+M9d13xIj7+FfjPxHfwwqsH6akffIL478J+YbrkFB0xIwLs+bTTzDzQv8t5vPFR1hfujL/OatfLmtZ6q0sM5gJ4Y7Zf8ffTJyfalsNPcQc0WJLPvAI4MvDA6g5OR8Ul+osnkJGJft5sVqlewairklIDvQ5jf54mMk956LHPl9bjFyH3pU9b6Byf+B51QxAoNjuodvMvJ7fW84+44xXMP7SH6/hyS32y2S1el6Sb/6Ukk+6gRH8/92ceQ9+F3wNSbAvOjvJEez06/R19g4+FIj0OzkEx2uAdNoXsiuhuaFEEKqQtZNLY28u152uAbqhc1k/QOMtBEUqP4rO+0L0/ADt0gvCVvzr55T44KuYEHj4vX1NTsUdjDfKtp73e9+eX9ijlyuRy13WN3NzeXA6T4ZO69Epn3ukVGHNgsYF0LqE1VOG9tBAfNS7oT9DMm45BoDkQv3UHRVi7xX3MLF/ejAhxmB16C/Xwz3ENPIf2KRkffgn0befdOMnC6vG3n3fOpw9V8cfI2I/FTFvOjvp/wnZjuaX9xDGu21l4jLK039Bf/K6QvMa2l+UXs95uxAdIjmhexCaF4IIaQqZN/QwsjtPsnh7Lc5YFww8T7QYchWsJ1xaKviYD586Jp/10Jog9zY+6xZ6nvKvK3wIvPrYu+auQXGxJ7pclTHYNFzPDT+b7LsfWNzuaBjirTV71nTQuobjST1hFMMV78fHQUv68WxGoDARXIlFeiKNdk0XKP7WPtHJuf6I4zcu6ckZM7LdvMyTmV/wIEPP+zfMzANI7CuLPR5lTcvuh/O2dV/iZHd7S3JvPpJSbv4Psm4/KF/dcn9kn75k5LV5VV9jcuDqXI771meaF5IZaF5IYSQqhA0LxPVvGwI/hHXC42wP9LxCs8LGpxxZtuCe8yRRUeZH/tzFn3vkyd+dAsGSAaH4FWMZFW8hoeQuoSal+NPNVx9fwoMtQxc9MPAVFKBNsQv6QX2qL7W/pHJveUQNS8fBboEVtm8QDAvaJOOC3ycix25VTMVaDWs5xX4HmYm+Jx/zUh82nG9Ghj3iC3BGSz9l+jvtoUOV79FlhY7XH0X6X1LDdegNWqctgYN1I77xSOaF1JZaF4IIaQqJNC8IOLSUG9P8vc0+/iPKPvc2/S7X1zSvV+OlFhHI4TEj0PSjisSV7+rHN4Xujtco1QjKi/vGNX47uIadby1f2RyOh1h5Pb8JCGRFzzfPWKdOJ96U3J6Djby7h9l5N73giP3vo9U3zhyH5rhyHtiqeHsv95wD99iG4mqmRc1FIHmBEGzFohabddrZmCuS8HrpoF5MoEIkGVAKqi6Zl7Q2cClahD4LjGgDWWxCl1WDla1UaHXeEXJUbVWYY8DVdgTPcYrAoqfvCp8ivYf1b4q9CyPr/d/YqF5IYSQqpDdqVRyu483QsxL+B/peBUszh9h3lLwv9VveZt/OCxHrtQ/VtGnhxNCah6JNC+oc3EPXSLpV2LOC645W0jD/AMbJB11pqPZKZc5ml/Y0ci8+REj566XjfzefwV//1Sl5sXWyDKHe9i2wGtwDdjscA3cqrcbA5EXZ595Dmfvf9QwLXcEDFPlmhLUJfOCNnBXq3qoYDCqamDQVQVDt/5PNVg1VfWDarLqZhUKGOMJw8NYYO1tqokq7PGVCnteoop3sBf6ZcMkoFPF26ofVR+qHlSdoGqu2pXQvBBCSFXIua3YkdvjhQaJMC/6x7uhmpeD8y79tGtGowt6xur0QwipmUQwL4E5KriNU9t/LwTMyzA1L1ddrzvjg3iAa1tclzYROSRJMo5PcySfdqEj956PA79/vFXpNhY0Pw7X4LVG3uPTMSTXyL3zTSP37veNnG6vGJnXPqmGqYeRdumDknXLeMM1cHEgZS1kr3hVV8zLHipc1M9W/aa6U4UIRVXYR/W06hfVBpUZor9VL6gQ/ouVD4wfkDNVWDtfFboH9pypekzVShWLfBUM06eqFarQfZapPlehLV2WaldB80IIIVUg1dWzhTv/zk9S3AO2GR5cqFTevBj6x9vhGbEtKfO60fqHB38TCSG1jcRHXpZKZruOurNtXnaiQZP9T3Tk9Xi36uYF3caeMx35T/9mpLd/WNIvO0pyrt9XsjsdIOlX7y1N/uMXyXZKE1+hpJ5zpcPZb2ZlO7nVdvMCB4l0rmdUi1W4mF+velxVqKosRaonVEtUMBkfqVBk1Us1SbVKhWO9rjpEFQlEZdCl5VXVFtVCFZ6LffupPlFhDxzjIRXS3SKBtpbtVD+psB63w1Vot4dbGDbc/70KkZymql0BzQshhFSSJ5tL5lX5/7n+UPdt87K9gwM1K1U1L428w8vOcP3fVw/kpF2hh9gd6cSEkKpQfeYl2rT7Bg2Sjj7LkXv3B4kxL+PVvDz8o6PZiVfq3tHnQjU76aT6OucFrRthXJB+tVmFC/gFqpGqU1RRXWY54OL/JtWfKuz7vAomxP5HKFUNUK1W4ZiInDhV4cAADVXB/MC44E21B4PhjwpSvWCKcIzfVRerklSh4DXCGCBlDcf6WgWDYv8QwtjghxKvG4+/oTpAFf0HJnHQvBBCSCU4T43Lt3ly5UiP75vTfR23ZvqGBsxLRS4YwoXZLk29I8yeheeZU33ZHw7OltM9O/9NIYTUZLI7tjVy7/7W4R5uorVysCNYJeV/3XS4hm6SjGtv1Z2jzXdKvHkJTNg/+zo9ZIwJ+2fV2wn7SLVCBGOdChfuMAD3q3A/fmFX5gIeZgH1KYiolKlmqZD2FV7bcqTqJdU2FWpYzlWFguNfpMI54dwQcWmpCqWZCs4UkZStKpikPVWhIF0M6XCI3EDdVeFF/ogwIdKEdLKlKqTMRfuBSSQ0L4QQUjGMdvq7f0iutJtfIF/9Upy/9SL/jWYzT2LMS2PPCPOeovPNBSXpmxf4ZcqYXDmzdwlbHRNSa8jpeJiR1/M9h2vQWodn7EaHe2Tl5Z240eEaNl+y2qPmpfzIi9cyL241BqpIv2ci6d/1oeblHD1mQbRjNpHUM88MNy+2IYlLOJ7bOodaZF7whuAifZEK5gAX0SjUL1BVBURr2qsQdVmrGqhCN69wYDxQgL9RtUmFFK5QV4uoCwYRIeoyV6UONKKZwrrnVHgNSHtD9CXUKB2jQlE+jNTHKpimcLAvzMMMFfZ5X7WXqrqheSGEkIqRfEeGnDK9QKZsainm/Bb55gUFN5pNE2ReGql5udN/vrmmRbq5tVTMuX759KeCwN8RQkhtwNk5W/LuOqaBe+B5DXzPn9/APbry8r14fgPn8LMkuz0yhqKlke4UeYn0+yU+Vc28VFq1xLwgress1bcqXKwj2vCAqqrGBfhVMBN2MT06jcGoRAKpafNUOAekayGFzTYop6p+ViFa8rIqWl0MPhHrqcI67IPOYbkqgCgQDBpMDaIqeI3oqBYJnPebKuyBaM//VNX9aRvNCyGEVIxmXTPl+B8L5P31LaTsn5b55sX+G8wkz5CEmpd1al42q3mZXSDv/uCVI6xjE0JIOGpejjnXkXfP1ICRCKSqTaykJunzXzUd+U/85kj+bycRX7RUtSaScuY5DtegOYG5LzhuxP0mBM2QGpNgKlykNarAPJlX9PfnGNSP11jQBhkpVkgXQ+QDKVmYe5IIYDLsCAYK6hHpiNZyGd3I3lMhKvKN6r8qO2qCOhTsAaHQP5axgkFCJzKkjo1VIW0NoPXxOBX2QM0MuolFmwuDiBGaCaB+BmthevJU1cl5KpgXdEBD/Q4hhJBymKB/UwbkyYWL1VhML85bfX5Bx7Ikz7CEmJeQtLG18/3yxpAsOVoPuStqIAkhtZQGzY4+yZHTdbLD9cwyh3uY6pmllZJrsD531DJH3gOfOVLPukIv16NdszaU5qef6Mh/eorDM3q5wz04yn7PLHe4Bm5QbVGtVrOD71fsJPfQlXreqxzOgd2s/WscqCW5XGWni6FFMOpNEtFVBb/gUd9iF78jkhGrhTFqTQap1qgQ7YBhQZQGZuc+lW1eEMaKNYMF7ZanqJB+hhQxe/oq9n9LhT3QmhnnFu2PEKIsaDKAdWgkgHS36p6qDLNG80IIIRUEdS/TcuS8Xu7iTw723rk5yTtazceYiKYkXtkF+z0K/1s2xZ/1eu/sQKOZRA5sJoTURRq13kOa//cGI6NDHyPjelX73pVT4Pn9HM0v7CZNDzhcd46WAWRIo4P2cGRc0cXIvH5ghH16BZTefoiRccV3RtrlfxnpV48zMq97wsho13cnpbcfaKR3GCTp155m7V/jgJlAdzFc0CPVCoXqiUqPwj6XqWxjhIL8SPUuNmhtDGOC9TAMaBaAQnlEQTAfxjYvd6hi/QHBxH0Mr0QUCVEfRDQA0tDQjQx7wBzFylvGMDJ0IZumwvuCc0dkKFHg/GEcYcLgpBFhQsQI9TzogIbmBJgxg2gPOq9RFEVROwtNWPB7MsPVIO/0oqz/vZ3m7rWpkXecadhFqyh+jVSgGkW2eQm0SvaMKDvJfen3HTOb48M0/I1CzjmOGelcKIqiVI1LpWHmwdLAfYyloyspPPdYaZhzmDRu3Fr3xjV0hOPhdxOOqesauI6XBnk77tPQ0zagBvnnSkPnRL1vqjQuPF2atCmRxnu22llt2gQMmLTI1r1rJLhIxgU+UrUQZUCRPtKscGGPyARqTQ5SoTYENSMVAcYDhfX2vBgMlow19BG1KTAm81ToOob2yVifY31tmxcMl4zFvqpRKpgXHPtqFYBrRVQDe2Dw5mGqaMC8IAL1hQrrUYfyH1WiQNob3nsYNESVuqgmqDAgE2lqqPlB5zdEomAuKYqiqB2F34+9xGjyiCQd+qik3zhB8p74TdwjtoUWyVbFvDg8I0xH+qW/GA1SULuJv0P8nUxRVHlCtg5KHHonSNgLv38iHctWrGOiDAIaosIMQzSiQm13rQSf9uPi2TYFc1RoafyaCu2GcSENQ4NUK0REEDKvyKwXe2YKhkZif0RDonVKADApt6j+UmE9DAjuw6dqeMPt88SesUBnMMyDQdoY6njQ0g4gV9me74L0rFhmBGlzMG+22UEEJlFFmkhVQxTnERXM0ZcqHAcmEgNB0dwAqXY4R4qiqPog/P2JdH80oQHMLJEG/0jTvTYamTdsM1yDysQzRvVsoN4lqLGWQu8rT2p80G0HRa/eMaakXbRSHOmIilf0HCmKqp/C7woMPE+kyvv9E88x8cH9chW67VZ3KUS1gWgKLvJtU4CLZrQztjt12cL3iGC8q0IaWLSCoXBgXjqp4jUvCE8hqoK2ylhvmxeE6CtiXjDbBesRecHrgXmBYUA0CTU92AP/0EgviwbMyxkq1M5gPcxLpLbKlQUmEK32YKBsoTAKZhHGsbMKZomiKKouCxFxRMEPtW7xfaR1tuz1aAZzpiQdMdTI7rLG4R6qRuM5U9R0oNYFMtSI2IpsUiIL6x1eVaDl6ChTMm94Vhqk4sOsSOdDURRVW4TrWjToQuQFzbpqHfan/+NVtimYp0LU5SkVhjfiYho1MCh6t9fAwKClcbR2x6HAqMA4xJs2BqOCWS+4gEfaGMLzMDRIJ8PX9jmUlzaGTmkjVTAvME5IG8Prhfn4TIU94D7xxzIaMC/nqGyzg9tY6xMB3lc4Y9TlRGsFTQghJOkqlyPv4Y6Ge9Q7alpWBYyL53lT3OPMDM8g8/CCB81jvV3MPVx3rN3Lefv6Y3xdzZP9Pcy2vu7mURGE+08q6GGeXNDNLHR2ne/IuXuqkfvAZ0bO3R9J+lWoR4zW3IUQQmoLyLjCmJB3VHvgjtoG6lfwCdYrKlycwyz0V+ECPVllgwgB6l5gatAFDELuLwqHysOeeI8aDhwDRe8oeIwGIix3q1Cwj4jJwyoYIBS1I2cPe0C3q2LV36BGB/UjMC8Io12gAgeqQgv2kUYWDdS8YMAlcgPx3uD1o5amOuGcF0JIveP3TGm9skAuXpAf+B1dHk0ko/3hRuatgx35fZZgJoEEjMt4s5FnlHl0wT3mvUUXmY/5jl/Z2X3s2xc4T3rq4vyTe93lOfLzkf6DN79ZcqA5ufhAc1KRJf36RdVbev9zhQdvvMd77Mcn5Z7Qw5F89AWScsL5knLsOdJoH/yRxzw0QgipzSAYgCHwCETUSvOCblfHqezWwatUZ6sifbqErlho44vaDKxFJAVDLcv7JAoGA8/7R4XnoQi9hSoaKGJHsRE6jSH6gggLjBSMBAblYA8IQyhjpa4dq0K0COYFtSS2EcCx4TaxB+pqTldFew3olHaDCiYHRgppaLHOPRHQvBBC6hZZQ1OlcFxeVKWddkBfl6vvzOL0Bc+688alpxx1ZMR1tjI7nWPk3PuuwzlgfTDagjSxcWaqd4R5WsHt5svFB5UtKEla/om74bCzU5oecYvHk/QklN3owqlex8drShxby1o6zLIWDnOrapvK1O83ljg2zSpwvNUtq8kx5wX/5uETSvydhCrarIYQQmoiqCGv9eYFNSBvq3Ax/4fqKFU0ilQYXom1KCq/VhXPJ1E4BtLR8DwYCkR2cOxI4I1EhAPDJRHxuFCF9C0YjK4q7AHhjY/VchmRFhRXolYHERj70zykoNmRJhTEo34nWvobTNOjKhggRIJgmGJFjRIBzQshpE7hcI+42eGb+LHDO+Zjh3vUznI983Wh+/6lJxTcabb23LO6gXPgdxHX2XIN/sXhGrQZ3cSCEZfn1bgMMW/z/5/5ZXGRObOw6c8/eKXzDJe01MNv/1vzkkjqyzly/o9e+XRbqWwxW4lptlBZtwv88ur4PDm2bdC0EEJIXaTWmxcYAhSsv6zCxTwu0JEeFg2Emp5VYS1SxxCViKfuBXNkEO2AIUHROy7Qo5keDJOE6cAxYKpQxG5HRv6ngsFCCheKjeyp+eHgDw9qdWA6sM9jKtvowAjhe0R20EkNdT3ojx0JNDOw3xsc91JVPK+3KtC8EELqFIZ75EiH/23TUfCK6fC9GFHiVXmCt5Ee31EvBFoYY4CkuJ839/Q9aT5RdK75dWH+toV++eBHd+B3NZrFRCK5f7Zc8K1PPllRIlvNNmJuLhVztk9eH+/kYGBCSJ2n1psX4FPZ3cYw56W9Klp4HC3VXlRhLdKorlAhnas8MlUwE0g1g2FAe2AYoXCwFzqToeMZjA7qb0LXof3xWNVm1c8qDJCMhFc1RoXzXKm6ShV6nijC/06FfWBOouVYI2KE42AfpJ7Fk4tdVWheCCF1CsM9on+w5TDmrmBoZGRhoGRwqGQsYeo92h4/ZyZ7hprHFNxjDiw6yfzVn7RwjlcmjcuWeKZBN346Wy76oUA+XVwi/8z1yzu9sgIp1IQQUtepE+YFUQoMR8SFPC7SMeQm0ouxa16+UmEdOnUhSmJHRWB4EE1BnUh4DQmiHfjDYM9LwVyTSOlpKLJHRAWRFRTZI6UrdC98knajChEirMG5hqdx4fgY/IiUMxwLNTbYNxTUraB+BWYNZgpDNMPT2BB1wVybpSpEmZA+FqtLWqKgeSGE1CkM98h+KKoPtB62hj9WTc+a6d7B5vkFncyPS/be9ndR498nu+ThRzJkjwOCf2/K5WT9WzEyXy4bmCP335oWaNyCv3GEEFLXqRPmBcBI2EX7KKxHYTw6idnGAaYE4XREKTDwERf06PyFqA1AbQiGV2LYJdKw9leFmwEYD+yLdC1EbRBVCe3cVah6WgUzgfNAW+RiVSgwSHgOamKwBhf5mPdip33hfHEeeC0YTonX0kGFKf+hwOCgixgMEvZBShtaFNvRGXRXQwTKTl/7RIV9d0XBJs0LIaROEW5eDLelCJPtd5K1NvA8DyIz40y/r7fZrfBi84viEvNPf8MPp+TL5Z0ytv89ipuz0iT94KTAB1WscSGE1BfqjHnBxT0K45FKhYt1pHehFTLMCNK9EHXAMBs8BlOA1C2kUNmfcMHojFOtUM1T9VLhD0I4qK9BZAW1KFiL4v+7VDA8mMkCU4RjTFEhUhOpqB81JzjXb1RYi5koz6juUOF8bRMGkwSDhCYDkUBq2X0qFO0jioNjIp0NUSjMuMGQSHt/RGZgaHYFNC+EkDpF4swLBk++YB5d0M380O9dtb5IJnzjCnSMjCd9mRBCSB0yLwDDITFMEhfxGOqImhNcvNtCdzG0LkbBPtLFQqMQMDJ4nv2c6SrMjwkHz8FzMagSpiF0ij9SuGCa3lMhPS1WG2TMfUFEZaoKJsjeA4IxwnkipewAVXgKWyhoJPCEapYKry90H7SN/kWFgZmxupolGpoXQkjdwj26zw7mxTIm+Lo8ha4NmpcXzUO9dyz9zNdswB/5tXM6NCGE7EbqlHkBMAWIeKDWA52+kDaF+hJEIWBa0F1sT1X4p1x4I25RhUZDYFIigecirQyREqR/IXXrT9UHKrQiRgpbPB29kIZ2sgr/ADBOMCw4Ltoiw4QhGhStHbMNzJRfhcYDKPD/QTVPhQhUPxVMVKTGAtUJzQshpG4RHnmppHlxqHlBt7EU94B3uufvh5lghBBCKkadMy8AF/xI+UKKFy6ez1Bh4CNMC7qGRcJ+DlLMMPjxa1V4kXw4ePMQGTlRhXqTQ1SIcMSKlISDtDWkhR2mQotn1OXso4p2ntHA9H68PnQXwz4o3ixV7Y5pyjQvhJA6Q8vG0rJJ/sOTDe9ENSFVNy+Gmhdx9vtQZD98QEUIIaRi1EnzUllgOhB9QScx1IxEm51CYkPzQgipE/RJl33ed8nTp3iv/108VTcvgbQx74vmQZ47F77oThk+LnWHOWCEEELKh+bFwo6AoFAfXcIwQT+udpVkJ2heCCG1mgFpknFvuhz5iUsGrS2RFd2L/88U90RTqmheBObF/aJ5WeFN5rLSpuu/98qw6zLksLbBGkmaGEIIKR+aF4tsFepPrlYhhYudXyoPzQshpDZjPJUlZ33mkdfXlchqs6WYtxUm1rxc4L/JNFs1NTe0kDWfemTksUmBNOfyahwJIYTQvGwHn3qhRgTth9kvv2rQvBBCajVXpcqZn3vlW7ONmGZrMa/3J9a8nFOg5qVlUxP7f+uV11s3kv30sLtiDhch5P/bOw8wt4qrDY/kXtferpW01Q1+egm99xYCCQm9994x1ab3Xo2xKe5AIIQOIUCAhF4CJBBCh5BQEnox2Pc/r3bHCCHtStorYXu/93m+Z+1dSVe3zZxvzpm5YkFH5kWEjsyLEGKBZrhzyVn17tAPW91LwRgXHNO6fajmZdvmg4LPRvYPvmhxT97fkFotMvNBxEIIIbIj8yJCR+ZFCLHAU2sd5O9r3L4ft7oXjmjZ8evQzEvipmDzpkO/fqllwNOPN7itl81vaX0hhBDtyLyI0JF5EUIsFJzlXP3FtQOPXbbhkH+45PVmQrpnXvxSyfHEGc+Mq67belznDzMWQgjxY2ReROjIvAghFg76rLR0pPKQy6Oxi9+LJKeb+bhunikpTvb+1HNeJt/q3FgeVCyEEKIwZF5E6Mi8CCEWdIa4oVtu4KrHXusaLvsgkpjWbjyyGpJC1G5eIvFrb3aJtwZ0bEsIIUT+yLyI0JF5EUIsuNRtPyg69NfbRWrG3x+NT55NxoW5Lu0yE5NsF//+/ve51P46/54o2ZumW828XHerq7t7UMcWhRBC5I/MiwgdmRchxALKMrFozWFHR+vPfCYanzQ7mpwVfG9e7Gdyhv1/ppmQmal/u0Qe6nh9u2aZebkjiCSuu8PVXK/5LkIIUTgyLyJ0ZF6EED81PGiY53bVpP6XDxW/XsbVjj87GjvvjWiSifXXt5uP+IxgqaZzgl82HRAsH9v/3Yq64+6K1pxw+/KxA9/avWWfYLeWfYNtmvb5gbY17WK/36V572CZhoNeidScdFOk7vTpkbozpkfqz7s+Wnv6Ya5pXP+OLQshhMgfmRcROjIvQoifjMC5wY/Uul/8Me5Ovj/m9ni162eoDHbDfr26qz3h2kjDJV9Ek1PnZVWGJCcH6zSNC05q3OyrSYlRT5xUlzzxZ/2q1u7fu3r14+qSJ9/TlHzlHyPjwT9HNQQvjmjX30yvjWwInh8Rn3t3U/K58XWJI1zvocu5voPHmBZxbtDizg1I2Hb1UEohhCgcmRcROjIvQohSEXVNO/V3NZcMTpVdpX6mafhRFYdW1f78hZb+f/lgVL/Pnmvu/9iuw6q2c4O2qP3Ra9HAjevd0C22i9Sdcm+0YeJXkdRzWCgTm2bG5apgq6ZDgvtaxsz+c2LAbUdU9PrFHZVu6Djnetv36LXjABe/pNod+F6r+/ucMS4IRptGtWvOSDf3vRb31NRq95sJw1PmKd2oRDp+CiGEKByZFxE6Mi9CiNLQd6mR0eEHHRppmHRjJDHzlkj82gxdfWtV/OynNmw8eM5ObQcHGzQe8m1V7PTnIw1X3fHj15r4feyi56MNV86OzpvDMjNIJC8OjmnZwYxL8yfPJSKXPVnjVrWt/2h1sLWtE51S6w56t809HyxixqXDxPynxT16U63bZg09x0UIIcJG5kWEjsyLEKI09F96pUjlwbdEE1ODaNOdqWWHM+VQwhTv+Jnx90xFGm9MrQLmEsxxmR6s0XRScGLz5sFDzcm/fdbkxp8x2C3SsfVc1F1X6w55o9W9/NUoF7zX6p65o95tb7/XnBYhhAgfmRcROjIvQojSMGCp5c28TI82XDU7mryh/bkpKU35gVyaMv/2/Xva1f66GUFl47XBBk3HBpc2r/LVE42Dn34h4fazLeZrQOon17pDX2t2d94dc7vZ//u1/1oIIUTIyLyI0JF5EUKUhpR5OWiqmZevU8sOZ30QZP6KdJiX3vbvnZsPCG5tHv3FrQ39b7urzm36QZUb0rHVvPjVUFc5sdItslOFG9bxKyGEEOEj8yJCR+ZFCFEaMs1L3AwISlyTv+z17cblWjMu04OhyauCQ5t3Cm5Ltr12V9yde1P7/JY+7RsUQggxnyHzIkJH5kUIURoGLL2cqzx4SjjmZUrQLzk1GJk887uJyaWferXeHTbSudaOLQkhhJg/kXkRoSPzIoQoDQOXWdalZV7InqD0UrB8xXLIFY2TgiUSx36wRu3P915DE+yFEGJBQOZFhI7MixCiJFT3X371wVX739o7ftXsSHfNS3J6MDAxIUjGjn2pomr/tTs2IYQQYv5G5kWEjsyLEKIURLeqWWW/deJ7vjUoMXEuz2PpbuaF+S7/Fz/2vSWqNtvHPn9Q+2aEEELMx8i8iNCReRFChE3/m2rd5tc0LX7fbs17m+mYlFreuHvmZWpQkZwcrNV49Nzzk0s/cE+t29a2M7R9c0IIIeZTZF5E6Mi8CCFC43dVbshvY26Lf7e4hx9ra52zs5mXgQnMy/Rum5d+icnBBk1jg2dHjpjzYYt75Nwqt/1uQ12lbTbSvnUhhBDzGTIvInRkXoQQofFUo1vng1b36Lej3JwXRrYGO5h5GRCSeelj5mXdxrHB86NGBN+Ocd+92+L+fGa129g2q4dMCiHE/InMiwgdmRchRGjMjLsVn29093w3ygWvj24Ntjfz0j9M89I0NngB82Kf//cm99Cpw9xqtlk950UIIeZPZF5E6Mi8CCHCZOChw90G/2xytz0+su2TPVr2DgaFZF4GmHlZr+no4L6WkV+/0+juv6zabb2nba9ju0IIIeY/ZF5E6Mi8CCHCpt+xFW7dcxKL/37X5r2+bZ+w333zMjQ5OVgtOXbOKQ1LPvRAnfu1NV59O7YnhBBi/kTmRYSOzIsQohT03rR2jb2Xb9j/9f6JqwKX7O5qY9OCofY5i8WP/WDT+l/sfWaVG9KxHSGEEPMvMi8idGRehBClYFDfqoOO6hc7/1+9zHxEklO7ZV4iielBv/iEOZV1Jzzt6sb9rGMbQggh5m9kXkToyLwIIcKl/2pJN3SHvV39+Y9FkjOCqBmXbIakIPE5DVd862qOv89VHrRCx5aEEELM38i8iNCReRFChEXE9V1nVGTYPqdH6y94LZKc/i3lXsxXcYkpQcR+YmT46X+XW+2vSxkf1Hi9mZcJgas54QFXecCKHdsTQggxfyPzIkJH5kUIEQ4V260ZqT3+2mjsgn9Fk9NShqPdpMwwzQpc0gxI4w2pn6n/x038TFf67zpen1LTLUE0cXUQqRn/Fzd8/1U6tiiEEGL+RuZFhI7MixCiuwxxw/fcMFI3/qZowyXfRBsxHmZY4jOCoYmJwVpN44INGg8ORsaOfiVSd/ofauqPf3795EFztm85NNis6dBg0zRtbvqN/X695MFBa+zoV3vXnXlnpP7cWyKx82+P1J1yS6TqwNPc4J3GdGxXCCHE/I3MiwgdmRchRPEMWqHOVe66c6T21PujDVfMZo5Le6ZlWtCYvCjYrWnP4IqmFb+4pnHknw+pbTvMueY11q8YuefkZOsfnxjR8uXfRzYFT49oCp5qawqesZ8v2P8fbm2afU2i7dE9a0YcNaB38wrOtS7m+jQua1rG9W0YZX3hoI6tCyGEmL+ReRGhI/MihJhH4FzEFOVnx686oV+zq9z/mEj9RS9F45O+jaTmt2BcpgQJMy5nt2wRPNNc+dltsf43zqh169w73FXYm3qPc27wIUPdhk80Rm75blQkCEab+DkmEnw+IvLdXxKRP02udr+5usINs9dHU5tq/z5eQgghFgxkXkToyLwI0RNoaurv+iy+uOu33Lpu4IobuoErrz9Pg1ZZzw1aYb1e9vtt6tc89MD4umetXbXmfkOGrLKZ67fSOj94bb/l13FD1to4OnyPvSLVJ14diV32WpTJ9cmZZlquD1x8SrBq47hg+sh1gxdaqj94ssFNuHm4W9m+Qabp6HvucLfhXxvd7+eOct8F/+eCL0a4755NuD/NrHdbWcM0uON1QgghFlxkXkToyLwI0RMYtEWtq9j+yEjlAbdEao+7K1J99J3zVHP0HZGasXdEqo+6e4nYIW+vHj/gu5b6Q17tW3PUHyNVR9/2g9dWjb0tUnPMvZHaU1+KNEyYG0neYKZlesq4DE5MCrZuPjS4dcSKwb/b+rzxTMKdu/FAt1THN8hGXzIwLzS6O/7Z5v71XNI9cmm1+439vn/7n4UQQizgyLyI0JF5EaInMHzPRjMdU6INF36RWgks9fyUa36k3vZ7xIMls/39e/HgyOvMtFAqNi2oSk4Idm3eK3h0xOg5H7VFX7+7wR1vPVZzx9ZzEnNu4B5D3EbnV7vTp9W5XbZa1PXt+JMQQogFH5kXEToyL0L0BIbt2hSpPXZGtOGSb6ONNwbR5Mz2Bz9mqD2LYkpOz/r374VpmRK4+PSgIXlRMK7ll8FLI+LB2y29nrmj1u05boBr6NhyPvTfaqCrP6p9TowQQoiFB5kXEToyL0L0BOZlXi76IooxSVwXROLXtiuVRela/mn37f+/zozLdcHSydOD81s3Df7eVhV80OIevL/ebW9bkwkRQggBMi8idGRehOgJhGhe2p+Af12wWPLM4KKWjYJXWwd/8W6zu/13tW4L25LKvoQQQnhkXkToyLwI0RPIYl68GSlUlJXx/r2adw0eaq774sVG99t74m5Fa0x6dWxNCCGEAJkXEToyL0L0BEI1LzOCXvb+HRLbfPLbRMWUmyrdz2wL/nksQgghhKdHmZcBpvVMG5uaTN19MBmr3mxo2t20n4mgfTFTP1O+8NolTVua+Iy9THxmo6kQqkyrmqgN39+0s4nnIAw3lRuZFyF6ApUHJFz1sddGQjAvPNOF1cjG1O17x3YVVWt2bEEIIYTIpMeYlz6mdUx3mKaaVjMVO6o3yLSW6SzTo6bPTN+ZCNgnm7YxVZu6ot7Ea6eYXjLxGV+a+MwzTWuYuno2ASUVnLjDTHea/mWaa/rQdKvpUNMoUzlHMGVehOgJVJ3ZUFF39O8GNFz8TSS1VHLx5iW1Upn9NDN0qX1ysn0DQgghxI/oMeaFh5pdY8JoENSvaCqG3qZNTRiF/5k+N31q4nPRF6YXTPuYyIbkgr9hLJ438R7/fsRnYmL4nmSKMF7ZIHNE1uYK07smPifzu3xkOsc02lQuZF6EWMgZ51x0k9gGqy0TP+KvtY2Xz3U8Eb87ZWMslWzvH1O7z/3bVAz+hW1Cc12EEEJko0eYF0rETjYRyAem35qWNxXDKibe/5XpbdOFpl+Z6GzHmv5uYhv8/KUpm/Egc7OT6VkT2ZbHTLwXU8SToBl5xLx8Y7retLgpGy0mMjT/NmF4bjTtZuJz+EmWie/yH9Nxps7MVJjIvAixkPPXWrfStERi1ubJ/b6oaZwYdNu8JKan5rzs17TDJzMS1Tf+coBbwTbT3dJeIYQQCx8LvXkZZjrc9LKJQB7NNBVjXgj+KRUjq4G5ON2EgfAMMbGt101sZ5ppUVM6dMbLmu428RrKxXYw8V4PWZKrTWRRPjbxmZnGg7kyO5reMPE5vzNlZpM2M2GM+PszJub6lGM0U+ZFiIWX3nfE3Kr/aXTTn26p+mrH5r2DoYlwzAuZlxPbtg9ebqv636MJN+XE4anBIuYqCiGEEJ6F2rwMNG1r+puJAN5rlqlQ80IGZV0TZoA5JQ+Zsn3GCNPlptkmMjOUj1Fq5sFMHWgiC0T25mJTpSkdDA7b+pOJ78u2mIyfzkgTBoe/v29ign4mbIvJ+5SUsS0yOsyzKTUyL0IsnES3HOJGPp1wM78e4ea+N6oq2NnMy6CQzAvvP6h5u+CLMcOD2SPct/c0uKk7V7hlOrYthBBCwEJrXjAAa5v+aKI0iyAf01GseSHzcbwJo4DGmbJNyiezwepjlHGxPSbwJ0we5t6Q+fna9JSJQD8btaYJJr4vxmNfU/oIJO8jm8Ln8HnMfckG2Ri2w+fwM9MElQKZFyEWTvrtNtSt92qz+3OwiAveN/OyU1P45uW/o4cHwSgXvNzkXrwnnlqJUQghhPAstOZladN0E/NGCPJvN2E6COJvMPEMgUIYY/qDCSPE5zHHJdeSyKub/NwXzBP/97XbzGlhjsocE2VlS5iywepgTOinPI3PYW4NSzMDWSAm4TMhn1XFjjLVmLLBCWbeDJ9BJoi5MOklaqVA5kWIhZNeew53jdNj7uAP2twzH4+uDPZs2Ss080LZ2BEt2wVvjBgevN3iXns26Y5+udG1dmxbCCGEgIXSvBDkn29ibgolU2QtCNoJqAnimdheqHnhuQN+fsl9puVMuZYfxujcZKJ0jNXEmNPS14SBOdLEZ6CzTZ2VcTHiyFwdPudmk5/TQsaH//MZLI28nSmXkSJbw2IFHIsPTKea0jNBpUDmRYiFm6qXY26PB5qqH1u/8fCv+ievM/MxpdvmhQn7h5p5eaS56pUHGtxh+w0p2yIjQgghFhwWOvNCYH+0CdPCUsYXmOImnvHymqkY80IpGCuKvWfi/beZ2ky54AGT55nYPubiCNNgEwaGSf7evFCG1tlkVDI2d5koDePZL0y4B8zRPSY+403TRqZcYGr2NL1iIlPDctG8v5RsbmJ7zNXheThCiIWMTfokFlu8ZstJFQ0Xftq7ceY84xJJXJNSpjnpSv4J+79O7PDerGTtMdcvmmovhRBCiEwqTKy2u1CYF3ZmFxPZDsq7KA9jjgmQAfCZk0LNCxP/dzWx5DDvJ+vRWcaEv7E0MWaH+SqsUMbkeXSRyZsXVhHz5WTZILszw4R5wXix+AAwX+dBE5/B7zE5uSAAoFSN+S7MwcEMhT0Bln0gC+X1a5PPvGzY8TtJkhZspbdVFa7yqANc7OLXXfza76KJaWZYMC7pui5vpR5umZyV+llfe+istQYOZEVGT7bvIkmSJPVcxUwkCRZ488I8EDITZCgI6lmpa30TOwksG1ysecF07Gei7Mq/f7gpF0y2x5gwxwTDMNFERojf80BJPgOx6lhnMB+GFcWYt0MWhwwKrGbCGPAZmITOHrjJcWF+zp9NvP5x08qmMCCYIcuEWSGLdILpGBOGi7k4b5mmmPzfWORAkqQFU9zbR7l+/zc+Un3MZBe/+kVnpgVhQCgbY95LcZoWRBtvNAMzPXDD9rO2bcgZti21G5IkSVK6fJ/AtIsnTA+YSl1NVFIIyG8x+QCdEf90mLPiy8aYyF/IE+dZyhij4c0LGR2yPLnAqBxsoqSL119nwriQkcHI8Dt0gKkzFjPxeswLE/dZ9hgoxfqLic/AvHRmxDAvGDdKuHg9WSnMTxhgXniODQsGMMeHjBSLEPDdeEYNCySwYAEGDBPD3yRJWrBE+8XKh9Nc37YnIhU7fBJpuCKINt2UMh0uPiOl3olrg6rGq4KYaXjyqmBgonMNMg2z19Xa64cmLg96NUwIIrGL57qK7f7mIkNoT6aa1G5IkiRJXvQJ9A30Ea+aFljzQmaFZ55cZiLLgSjNYrUxsgI8XR8xYf8dEwE8T55nXgZ/J6uS/hyWbJBlwWikm5fOMi+Yl0NM3rywXDKrgWWal64yL5iXq0yUjX1i2tuEYcCIpZsXnkSdC8zLz00Pm3j906Ywl0tmX9n+FiYyPGS7KJNjzhFGiQwUf+dhc5S3SZL004rBC9oAfmb7e7q4b1d0rt+6buBqx0eqDnsq2jBhDiVeTLAnazI0MSFYsvG0YOOmw4NNkvt/t27ioE+3aNz/2+2b9wt+07Rf8Oss4vfbmn7ZuF+wZvKw91tixzzZu+a4+1z1MXe6IVue5FzfTWy7/ntm+16SJElSz5Pvu4jhWUmXVYAzHwa/QNBgOtFEsOxNAeVKzPEgUGdZY0TWhQwGf6cEi1W8COgpB+ts/goMNe1l8kst/9aUa2liIMtCNoLv9K0JM8WqOQT6mCz/PVkKuTOYr4PLxLww8X8nE5Bl8pkUnCcBRi6Y88JiA2SjeD1zZQpdaa0zWMygv4kFCQaZWIBgexPfi1I1ghDMISaK7yJJUunEfcb91pW4b7P9PlP2uiFV0WHb7xOtPemRaOKaz6LJGR3GZVoQS14YHNK8ffCXkYsGz7bWfzk5nnho3+oRF93RFH/szdG1weujaoNXR/5Y/P7lEbXBXU2x18Y3LHHYEnUHLta3av8xrnq/UW7gxrTHzDPMtn+SJEmSxKq5LMi1QM55YSUt5rn4Z6oUoytNXT1HgO2w3LFfbez3JrI2ucBQnWIiU4NRoj4PA0Rwz9JufttjTQQbuWAuC6VYmJcXTGQ3AFNDORafwTwensafC777jiayICy5zHydxU2lhAwMq41hDlnlTQgxH3FI56scfk+/JZtd9bGHRuvOeiIan/RtpHFW4DAv8RuCkcmzg/NbNw7eGx0LPmt1n7+XdNNfibkNLurrxjwcc3t83Oqe4UGWKY0yje7QmPafn7W4V96Mu4Pn1nc6ECSEEEJkwnQO5r0skOaFEX+eoo8BYfniWzPE77zIPPgHPpLFILAm5YQpISPSGZRqUXrlVxtjxS5KutJX30kHMzTJxPbIQFDuxXdltJNnrnjzwr87Kz9j3s5jJjJGnCC/7DBlcH6pZBYFwNTw2dlgu5Ru8WDMj01kgUr90Dc950WIn4LKAxJu+H4rucr9f+aq9ln+e+23nKs+cNmamgNWXiW24xYb1mx4+Eq1v9xmeK291v89/efww1dydeM2dTXHXxCpO/ft1FLGyesDljPm30s1nhxMaFsv+HrUwOCTNvf6ww3uiqMH/yADXH1Vjdv33Vb34hxvWDoMzLf2881m9/L9De7wNdrLdoUQQohCWKCf84J5IH1EyRJPje9MrIhFORkB/+9MzBvhfWQmcpmQdFYy/cPE+zE+mKZcWROWIma1M17L6mdMmPfmgnkulJLxt0tNnRkJvzwzT+Nn0juGCcjizDQxvwdTQklbrgUECA4uN/FaTNthplKPdMq8CPETEK09YY9I7QkPR2qOvz9Sc9y9Xq7muHtc9Ql3VdQf9+j/xY99Z6XkMZ+PaTj2zUF1xz3i/97x2vaftSc9HIld8lokPvnr9mewtK8qxkT7NRuPDW5vWyb4fFTvOZ+2uX9OqXNHrNQ/NaDiV3ZMYT1L7fk1bp9/tboXvh3j5mJgvjPj8lqLe+2PSXfohpWpdkwIIYQolIXyCfvZwGz41cZYyrfQCT48tZ/5Jzy3BRPDAgCYomyQCfHzYyj7Sj+wZFOeNPEcmttNuVb+osSMB1piXPgclg0lTQYECTypnzI2simkzlpM2WBVtftNfAbfm0lOnZWqhYHMixA/AZGGK06LxifNjcYnfBdtuHz2D3XZ7L7xy4OK5FVBdePkYGhiYtAnftlc/7cf/rxibvuzV2a2l4klZgaVicuDnZr2Ch5oWywIRvYJPmhxj86qc7uuPSjViWSl3rmay+rcfm+bgcG8vNXi3rov7g6x3zEvUAghhCiGHmNeuvOcFyBLs7uJz6AcjExItnkvlIGNNzG/hCfaM/eF93owGReaMEFM6D/I9IMRyw7IsjC3hu/LqmVbmtJfR+bIz3uhtAxzlgkTbn9ponSN11FKN8pUamRehPgJiMSnnB1t/F0QbbzBjMeMHynCc1RSWZT2Z6vw/2yv43kr0dRzW3j9zKAxeUFwTOu2wUsjm4NP29yX/252t95Tn2qTGGTpiuqb691hf2120++Ju4P3HiTjIoQQolvIvHSAMSCzwUFgzejMrAplX0uaKDnjMzAE25hYFceDWaBDf8jEa1htK/N5M7yeEjYmtPMa5uNQZpZeukZZFw+Ew7RQYsbyyiwHnQ5PF8UYMZmfLM6ppsy5OywX7bNFZGkoWUv/vqVC5kWIn4BI4tozosnrzXxMS81NKV489X5K0C9xTbBI8qzgjNYtgjdG1gWftLr3n0u6qafWdLrC4Y8Y4Vwi2SfVtua3UIAQQgiRG5mXDgj8mWNCtoP5JKyYldnRMj9mX5NfdvlOE4E6B5HRRFb94v2YCbIuGJBs80soQWPJ5M9NH5kuMbF2NfNWqB3fw/SSiZKx50x8d7adDmaHlbx4QA+v+5uJZ8uQWWGeCyuKnWPC3GCAeDBnudbClnkR4icg07xE4u36sTn5sdJf2/7E/FnBqOQ5wYSW9YL/jBwW/KfFvXVXgzvvuOGpjiLXAiFCCCFEqelR5sU/NDKbeVnWRBmWNx7MVcn2FH5KxchyMFEeU4BpYOWvu008T4ZyMYwNq43lOqB0/DyrhefF8FrmrTxh4uGZfAdf5oUBwJD4uS6ZkB3i2S9sl9ez8hjPccFUsajAhyZ+z8llSelSz3XxyLwI8RPwI/OSuCaldJOSS+mvTZmX+G+DTZqPCd4ZWR180Oz+dlfMHTW2ouQrFQohhBBd0WPMC3M/PjURzGM2MA/pkKm4xUQ2hNeQXck2jwQwNcxr4Sn3n5l4PcLM8GDM802UgmWby+KhxIxMDSVhZFlYDcx/DqYDE8N8mLipM8gYsXgA81n8c2i8MBCzTBi3fGrTw0LmRYifgFDNS+KmYOXkMZ/8uXHA/Y/Vu72toaFUVQghhPip6THmhVW9CPDJcJxpytxZshibmsiGUGpFRsU/VyUbmAZez7wTysx4HweSp9knTfkywrSziUn8ZHtYCY1yM7ad71KiPMuFB1oeYZpsYl7OVaY9TZgyjFI5kXkR4qcgOePkMMwLc14ijTcFA2PnP7fGkBGb3vHjslUhhBDip6LHmBfmryRMzClhHkq2zphVwZjTgnHJ54DwjBlWF6s3MSpZZcJIFAqT6DFDfAafxdyXQg0HpWiYHebeNHT8ZH/yeYZN2Mi8CFF+IpH4NWeGZV6iZl5cw9X3uUFH00kIIYQQ8ws9xrzkA2aEcjBKtg426enPxSHzIkSZuazGbbBI7ND7I2ZeIolwMi+9Ypc8XjlgGbK6QgghxPyCzEsHzAlZzkRJ2VgTz2P5KbIWCwMyL0KUj76/r3LrPJdwv98pue1nzswLz3D5sSHpXJnmxSVvCpZIjv9gWsPwKbcPTy2NrBXGhBBCzA/IvHRA2dZ6Jp7Lku3hkyJ/ZF6EKAPnV7hhk6rdRk8k3G1fjXBfndL2azMu3Tcv7auN3RRs2XJk8N6IQbP/nnRTDqpwa/68KjU3UIM6QgghfkpkXjpgGWHKxMq5KtfCisyLEGXg7OFuoz+ZcfmizX0TjHHB8a1mXuLhmZdNmo8Mvh49KPhmlPv8sYSbufmQ1CqN5V4ARAghhEhH5kWEjsyLEGVg64FuwwcS7uFgERegI1vCNS/rNx0ZfGnmJVjUBS80uvuX6O1WsM12tgS8EEIIUWpkXkToyLwIUR4aptW5/d9vcc/PHe3mnNa2VajmZfPmI4P/jRoUfNHqXng46fa27bGiohBCCPFTIvMiQkfmRYgy0WCGYlad2/V/ZmDGtfxmdmhzXhI3Bes1jp3915YhL/61we2yRvvS60IIIcRPjcyLCB2ZFyHKyC6DXc242sYzlms46B2XnGXmY2q7KYmbEYm3m5IuxetM7Wamfank2vi5L46tT+50YWXeD8wVQgghSo3MiwgdmRchykdfN3SbDVz1uJsiDRM+iiQxLtfNMy8pA5PNrGTIv9abl3kPqXSH8+BcIYQQYn5B5kWEjsyLEGWhYpir2P6XkZrj/uAaJs2ONN4QuFTJ1zTT9CI0I4gkZwapp/Q33xFE4lMfcI23De/YmBBCCDE/IPMiQkfmRYhSM3iN6mjFdrtHasc/FI1f9Z0z09FuQKYEfRJXB4OTk4IK0xDTgMSkoH8n4u+8blDiqqB3fOJ30fikb6KJmbMjDVfd4Rovk3kRQggxPyHzIkJH5kWIkrJCXaRq7InRurP+Ho1P/DaKcUm2Z04qElcE6zaODXZp3jfYq2WfYJeWfYPt7N/bNOUWf9+tZb9gw/jeH1VVH3BvpOqQmZHKw2+OVh56jKvZVxP1hRBCzE/IvIjQkXkRolQM2nxxV33S6dHYhe9Ek9MClyoVmxFEEtcGazceHVzRtn7wyIjFg8mNiz53WGzZ6yc2/t+TT41sC54e1RY8NqJDbd//m789Yz9nNP7f0/vGVhk7YujP1ncDllnR9V921b59lx3j3Bp6KKUQQoj5CZkXEToyL0KETy839NfLu5oTJkRil3waTU4NXHJGqlRsSOLKYJOmw4IHRiwRzB3pvvl2hHvi9pjb3d6zxHXVbrcP29xzc0e7uTyFPxiVptHt+l+Le+GRBrervb5/aktCCCHE/IvMiwgdmRfR04mYeBJ9rxxK/W1P5/pcOGJEv3GsGJb2+zTx/97OLTvQDV531UjtKTMjDRO/YClkP8G+KnF5sGPT3sFf2kYFX47sNefDFnffrBq34VsJN8DeG9nGueorat2e/+JBlmPMwHQYFq+PWt2Lt9S5nX9X5YbY64UQQoj5HZkXEToyL6KHM7zCDVxkaTdw1U3dgDV/adr8Bxq4xqZ9B6+15WLD1t3/V7UbnLFp7brHDhhsrxu42ibfv271n7sBq2zmBm20baTqyBMj9efdH41P/iyayragmSnjcmDzTsFLI5PBF22ROa83ud9fU+02si/Qp/17zKPqshq3z6st7ulU9gWZcXmv1T3DAy5bnavoeJ0QQggxvyPzIkJH5kX0cNpGuKG/PCpSffTdkbqTH47UnvDgD1Qz7o+9ao9/qKbu6JcXjR3+6YjYke/1qj3h4UjNCX9Me90Dkdrj77fXPh6tP/eDiBmWaCNPz5+VyroslTw1OKN1y+D1Ucngmzb3yXtN7pqJVW5N2zhZn2xUTTID83qLe/HLUS54v9W98IeY281+P6j9z0IIIcQCgcyLCB2ZF9Gz6bPkUpHh+10dbbjyq2jTb4MoT7xPPTzyx4okpthPlPG3H7x+ihkWND3obf9fvvGkYErrGsGHIwbN/W+re+/ppJt0fr1bpGPrnVF9eY3b99Umd9eDCbef/X9g+6+FEEKIBQaZFxE6Mi+iZ5MyL/tfE41P/CbadLMZkelZFWG1sNQDJadl/Xu7ppnB4TVTUiuKrdV4THDziBWCT0YOCt5udn+/sd6dMLbajerYcpesWuGGT6x0i+w3xFV1/EoIIYRYkJB5EaEj8yJ6Nn2WWjIyfL9J0fiVn1PqFTXTEYmb+Jmv7PW8D5Fx4XebNx4UPDxy8WD2qH7Bm03uH7fXu0PXGOASHVsVQgghegIyLyJ0ZF5EzyZE8xJJXJfKzMSTFwa3j1g5mDvKffVGs7t/Vp07cIOBLtaxRSGEEKKnIPMiQkfmRfRsspkXk8+kFCKXmBr0SVwTrNp4QvDgiEW++LDZ3XHQ0NR91a99Y0IIIUSPQuZFhI7Mi+jZhGxehiSvDlZKHvvd2PiKv5sxPLUUsoyLEEKInorMiwgdmRfRs+mz+OKucr8ro/GJn3XXvDCpf0BiYpBoOOH1ROU2u9in6yn4QgghejIyLyJ0ZF5Ej6ZPn5WX6lu577ReDRO+jHTbvEwP+sSvDIbUj/+rqzlj5Y5NCCGEED0VmRcROjIvoicTWbtqpV8sVr/nYwPil3/nkrPaTUiGKclXTNYfmJgUtDWc8N7ysd22XcO53h3bEUIIIXoiMi8idGReRI9ljb5uzFGxJS/fsWm3zyuTE8x8zEgZl+7MeRmcvDpYPnnctwc1rPi7WVVu7Y5NCSGEED0RmRcROjIvoifSa8PBbtHHEu78P7a0vnVA6x5BZfLKUMxLfzMvazQeH8xqXvTTfybc9edWuzUWda5vx3aFEEKInoTMiwgdmRfR4zi5xrXdE3cXfTnC/fdfYxqDPZp3C4YkwjEvvRNXB6s1Hhc8NXJM8OVI97UZpFvOrHDL2GZVQiaEEKKnIfMiQkfmRfQ4/pRwa3zQ6p6eO9oF/xyVDPZs3jU089LLzMuqZl4eHTEmCBZxwUdt7h+XVrvf2GYHtm9dCCGE6DHIvIjQkXkRPY6/tLi6v8TdgZ+3uRf/PjIZ7N7kMy/TQzEvq5t5+euoMcEXI9xbd8bcKeOq3SjbrDIvQgghehoyLyJ0ZF5ET6X/8/Vun4uSyz2zWuMJwYDkNSnzkTIv8WuympNciiSuSb2P9w/smPMypWmpl5+JuROHOdfUsT0hhBCipyHzIkJH5kX0VPr1GrjOphW1x989JHlV0Ds51czHde1mpBvmpSI5OVg6ftxXG9RucLbdUM0d2xJCCCF6IjIvInRkXkQPpGawG7LpZq72jFtd/OrPIokpZj7Qdd2SS84I+icmBfWxE16N1e61RcfGhBBCiJ6KzIsIHZkX0dOoj1bufkAkdt5fIvFrv4yY4XBmXNpF9qVYTQsijTcEveKTgj6145901Ues0bE9IYQQoqci8yJCR+ZF9Byqdl4+UnXoadH6s/8eTc4MoskbAhc38xKfZeZjSjAgcVVQnZwQxBqvTD33hUn8XYnXJZomBFWJS4K+DZd+G6k/6xNXddg9bvguq3ZsVQghhOipyLyI0JF5ET2AukFu2N6rRWqPnxmNXfR5NDndzAqaEfSPTwrGJM4INmo6LNi9Zc9gh8Zd5/w8udfnuzTtFuzdvFuwm/3Mpb1adgv2aN49WD+5339GxY58YHDtMbNc1SET3dCdxrohPx/dsXEhhBCipyLzIkJH5kUs7Ax2w3f+TaTuzAejDVd8EU1OS81Nocwrmrgm+HnjwcFtbUsGb42sDt4dPTx4oLnquQvq62c+1lz5+nsjhwX/Nv3La0SHOn7/3phhwbMtw98+vLZ5XFPFxktVVh6QcNV7xNyQX1TZraWn6gshhOjpyLyI0JF5EfMRI/q5vosu6vr9bG03cOX1Uxq0ynqFi/evumF02HY7udrxZ0Zi5z0WjU8MopiW5MxUxqUycXmwZ9POwV9GjAiCMZEgGOWCd5vd4w/F3J6PVrtl/1rv9p7d6l4IxrggGN0he01K/G5RF3w9wr3+WMyNv7qfVhUTQgghsiDzIkJH5kXMP1RsMtwN2+agSOWBN0dqj7srUj3WdPSdBatm7G323nsideOfi9Rf1JFtoUysfW7LYsnTgnHNWwSvjKxPGZHZI9zsV5vdHZfXum3sWwxr/zJuwB8b3L7/bnUvpgyLNy8YF9N/zLjcasbFXtfY/nIhhBBCZCDzIkJH5kXMP9TuVhepOerKaOyCzzEc7c9R4ZkrxYr3X2eGpX1+y8DEpGCVxuOCia1rBt+O7psyJGZcPnuz2d12YrVjdbBo+xeZx5Dfx91e/25x//iuw7jMtff8r829O6vendBPz3ERQgghOkPmRYSOzIuYf6jZqT5SffTkaOyi2dHGG4P2FcFmdEPTzbywjPGsoG9icrB9097BvW3/F3w6amDKuLzf6j5+POmuvLTKLW9b79P+JX7IPhVu+A0xt8d/Wt1LwSIu+KjNvT293o3brJ9r6XiJEEIIIbIj8yJCR+ZFzD/My7xcmFoRjKxJJM4T73mKfZ7qeH37k++vDVx8+tzm5AVzj2j+TfDUiOb2si8zLv9sca/dn3BnnFvrFu/YemdU3R5z+/+52U2/s8GdsVw/19rxeyGEEELkRuZFhI7Mi5h/CNG8pJ54bxqeuHLuXk07zWV1MIzLN6Nc8Eqze/H6mBu7bv+C5qtUNPVxSy/b143p+L8QQgghOmehMi+9TP1NQ01VphpTpWmIKWv5Rjdhe4NNbIPtVZiKWcqU9/jvjPhMPrsQIqYBJiYGV5uGd/z/p0DmRcw/ZDEv7fNW8pc3Me1PvZ8SrNA4LpjVtpIZl0jw3Sj39QtN7qlJ1e7AA9rvYyGEEEKUjoXGvBD0r2za2XSSaYrpZtNk07GmDU3sbFgMMq1mOtw00TTNdLppc1PMlC+8dkvTyaappqtNfOYqJkxMPmBcOHl7mC4wzTBdZtrVtIgpc8JwqZF5EfMPJTAvazYeEzw4cplg9kg395mku/GUKrfZNoNTgwZCCCGEKC0LvHkhcG8yHWa63/Sa6RtTkKaPTA+a2NHlTN0N5uOmfU13mN43+e2w3UdNp5kWNfHdOmMZE4bnSdNXJv85/zHdadrLVGvqDAzOz03XmjAM/jPQyyZ+v56JjFS5kHkR8w8lMC8bNx8XTG1Z+T+PNfaafNGw1CBGV/e6EEIIIcJhgTcvlFetafqt6V+mF0wYiD91CGPA7wnmvzOR2VjaVCyUiB1oesk024RZetj0kOn5jt99ZrrINNKUDQIdatwvN/3P9IWJ743B+rPpDRPf928mDEyuUhQMySYmTh7bxfQ8YeJz+Ilp43N+b1rLVGgpWrHIvIj5BzMvruaoKyKxCz4Lw7xEzLysljzms31i61y/SJ8+C3ytrRBCCLGAscCbF+ayrGg62HSQaW0TpqHeREkW2Y0jTc+YCOS/Np1qKqbEg4zN1iYMEWYBw0KZGhN0G0xkOG4zzTV9ajrExDyYTDjoJ5r+bcLo+OwIc3RYKpXyr3+YMFuYEP7W25QJS7HeaGKfXjedYFrCRLZmSRMn9lsT35XyuTZTOZB5EfMPsUOre9WMndir/oIvumteIqnnxEwNhtUf+0LT0HX3tk/Pdl8KIYQQonQs8OYFQ8EkdUq5mPeSrXyDYP4IE5kJDMwDJgxBoeVjBP/MpcFU8Fl7mlgMwENm41cmsidshzI2HlKXDmaL+TfPmXgNWRLKTtKzIhir40xvmTAmF5oyH1zHPmPKMEl8zsWmhCkdjNt0E5/xpml3Uzkm8cu8iPmH2DnVjfVH3VwRv+i7SGKamZDum5do7XFPRQets23HFoQQQghRPhZ485IvBPK3mJhb8oHpeFMhK4NRovUbky8Xu8E0wpQJZWUsGMD8F4wF2xlo8pAN4u+UivE9WEwg2/cgg3KrCWPyimkzU7oxY+4O5WD8/UUT5WOZYJQwEpS2zTFRWleO7IvMi5gvmGtm/YK64VuvHj/gpdrkhI6yr+6Zl4h9xmINx7y3Se16ZzhXlT54IYQQQojS02PMC2VdGAkMAwE/K3sVEnjw/ktMn5iYk7KfKddcFIJ3P9+Esq70ZzisbiLzg7m5z7SuKRt8t7NMlKDxOUebfAkaJmYfE6YEg0TWJZuRAhYOYO4Pn4Hx2thU6rkvMi/iJ+e/w13F1Lrq3xwdW+rBFRNHfTOkkTkrU7plXton7E8NNm46JjircY2nJ1T32XpcTd6rAgohhBCi+/QY80JGBMPhJ++TtaDMLF+Y5M9cF8wECwJQdpbr2THMRXnMxHYoIUs3DJRu+ZXFWGJ5lCkXlKX918RrrzKx7DFQ+sV7KV9jtbP9TZSRZYPnvfBePoN9Z25QIftdDDIvohOu7+UWvb5vaFp2wo/uwz3dsn2Orm3eY6+G9Z5aK3nY7KrkBDMhU39kSvLVD83LlGDdpmOD37Yu/+1bLdFn7ou5bbevSy2dLoQQQojS02PMCwH7Aab3TATyZESyTabPBfNU3jXx3rtNi5tyLY9KFoRJ+F+amHiPCaHsjDk2ZH/4DMTCAZiqXGB6MExkae4y+fkzzO+53cRnvGP6pSlXNoXtHmXC5LCy2fkmFgUoJTIvIie94tf9MpKYfn0kMc10TTd03fWRxpuujySvPdkt8d4881A9sGnphtr9x42MHf1Ca+L0oLJxshkPTEfhGRevTPOyeuOxwV0jlgvmjIoG7zW7555tTN2DQgghhCg9Pca8MJmduSaUczHf5BxTvs8+YWSXybmsDoZhIGvDCmO5YFs86+VDE9vDsFBixtwXtuvNC6VgubI3sJLpdyYm3D9r+oUJmA/zRxOfQQlbrtIz6GfaycS8GEzQLNNiplKyhYl5OiwhvQ6/EMJjRuKUaNNtQbTp1iDaeFM3dHMQbbkviMavetEN2WiUG7TGYq76mN371h0/dWj9GR/2NrPikjea2ZiRMhylMC/fjYwG77e4R15vSg1uCCGEEKL0MPB/tmmhNy9McGfCPkaAQH4HU75zP5h/QvbEP5CSie8sa5wLHCHGhEwNk/tZLYwDTfbnUpM3L4eaOoNFBpibw3fmszAhgKl5yMRnMO9lVVMuWAyAFdAeN/F6VkCjrC0syCZhwDCCGCVv9F41pZfMsaQsf5N6rrgGekXik0+MJmcF0eRMMwZTuqGp7SYmduVLrmr/w1zVwVdGYue/314eNj2IJKebeZmRem2fxNVBb9M8MxK/pl2JPNXxej/nhbKxm1qX/+qN5uhjN9S5X9sNT+Yn2z5LkiRJkhSOfCxJBRKVRAu9ecGsePNxvWlZU74wb4SSMz/Zn5XGcs0xAYwNxoSljnk9z1jhd5iaKzt+h/jMzqA0bZKJjAnPg2GSPlA+5pdjpjxrBVMuOMk8gZ8sCK9/2rSKKSw4NjxThjlAZIBWNpHhesfEctA8e4f5QhgmnscjzX/i+glT2baBGEBYKlJ38oQopiL1zJUfZzkKk5mY+NVfRxuufC/aMOHT1DNczBhF7PNdYlrQO37Vt5UN53/TlDh3zrCO1cZ8FqY4TUtpYzMvJyZWe3nvYb2Pq2h/ACwDDdn2WZIkSZKkcPQzE3EGA+MzTH8wsTDVQknSxIpcBO/MQ2EOSCErjZE14an6+ZoXntPCxHiercLrrzPxrBkenOknz6OuzAtukon5ZF743kzMZ54NwdJfTHwG5oWTmQvMC8ssP2Ti9c+beK5MGPBdWESA580wh4iMFM/BwVixKhvPwsEVsw9Xm5gHJM0/usbEeeGa5BzxM5f4O8a7q9dhtnOda/52ZWT4Lk+nmxef3fixMfmxfvxa/k0G5kbTbzt0Y+DiVweu6sTPBg39xRurV63zrxXjh34zrHGyGY/rTTNNmJtidEOqFG2R+Lhg6WErv2a3APf2FSZd35IkSZJUWtHXEruQhGB6Aqv3pq/ou9BAydKuphdMBO/sKMsVFwJGhZXK0s1LZxPtMS8+88LqZAR8/C4z80JWojPIvJC1wbyw6hilaxiGzMwLbjQXmJfNTf71PLGf7EgY8F2Y/L+j6UwT9YfM9bnZxFyft00441NMLE5QarGdkzN+V0qRYeI5PSek/a7UYpts70RTd48r5+oME/OwSL8y+S2r7Ca62ETJ43kmXp/1dSb+xmdm2x7f95RI5d4PhmpeeHBk4w1BND4xcLHLXnH1E29zVafPWqxirT8dXxn559RYr38flNxi9s8aTw1GJs8NFmk8JxjdeLb9uzAt0XROsJi9b3jsrP/1qzrw0f4DlrV7M8L1Vq7rW5IkSZKk9ukYVBIttOaFnbrJRODOUsFkOwpdKpjnOLDEsX9CP59HFiUXmBSCWlY2w3gQ0FFehXwGCB1uyrViGVDaRvDPZzAxfzsTkDLjyfx8BnNeOjNjzHnh4ZpPmTBS95gKKZnrCr4/NYhsx2sbk5/zwsMz0/9WKjH3hu/i59dke00h4nO6otfEoa5yXPv1kQ8YyWzb8mIfOsVca+/12udX8PquyHZu0jXQ9R0zylVstqUb8sud3NCfb5dLg4duvNegoRvtHx2yyY5u6Obb/ug1Q36xfernwDU3cf2XZTGLbNtLKRKfND4885Ka/zLbxSe/5+rPuc8N3/2kRQcvutXhw/pv+0TS/fbzNvflFyN7z32g7f+CCa3rBRe0bByc1bJRcEHrRsH5pnPt3yk1p/07Q+fZ6y4xnd28ybf7Jzd/eemaX01wPF2/bwvLnGfdR0mSJEmSSiYqqi4wLZRzXsiYkAHxE+cpaaLMqTPDkA0CwK1Nfpnl20ytplxwUMlCsDQxhocyNQJcJrWTofDm5TgTz2zJBeVdd5owL2RM/FP0OVGcMD6D0rTOVjpiEv0eppdNPF/GH4NSwhwb0nmUqq3JL8oIF3VZeLTSDb21xu34+/p5S1iXnJuGuKr9B7tVNu/nmjt+1T2G77JRND7hnmjy+uej8av/+iMlrn4O9Ypf9WKv+KS/zftd5uuSU/4abbjiuUjdidNc1THMbcmJGZex4ZiX61IZl0jDVa+5yiMPdkP3Wf5XFZW/urvBTfyyzT0+d7T7dzDaBcHoSPDNqP7BJ6MHB6+1Df7qiaYh77zdNvjr/9n/Pxo5OPgQjciQ/73pv6MGBx/bzyeahz20f2XLVhsPW6TJdkNP1hdCCCF+GljBlyqPhc68MHK+tsnPDWHCOkE+o9/FwPNK/FLJHCwm6OYaKWdEliWJMUx/M+1sIqjm9ZT8ePPCgWcuTC4o92JlND6H5Zl9uVfMhKnhMzBmZFZyBe2Yo3Em5qCwdDPb7GyZ5zAo+3Ne7q9wS70cdye93+SOvWNAaqnq7jFsv8Vd1UF7uaqD93bVB+/+vQ7ZzVUeuFu89qCD123Y9Yo94pu8sH1iy/uXaDjohAG81v72w9ebKg84wFUetKX95GbLzogN+/Ue8ouV3LDdd7T37OmqD9rj+89o/8xhNYfsv0psp8s2j/3qvvUbtr9hZN0+4/ukXmvfKaV527TfmYZt93PXb5k2+/RcWaTBrmKnPaPxSZ9Gm+9JmzNShFj22MxIpPbkv7thB27a8flZiSanHh2WeYk03hy42MUvrDykfvsv426HD1rcb99vcx8GY8y0LGLip+mjVvfFuy3ulrkj3L5vJdxurzS6279oc7NTf8fgjDKN7BD/9ur4+yct7sFn46lnuTCQIYQQQoifDiqcKFVf6MwL2QUm9RDgUy62r4nnrBTLUiaWG6b0ymdBchkGVvP6q4ltU4/HBHtvdJh/w/wVPoeJR7lWSSA7xCIBn5r4nEtMPttDBmeCiVXImIdziIk5NdlglbPpJj6DOSh7mQp5OGcxhGleom7oipVu2B6Lu+H7reSq9ln+e+253JDaA1Zcvn7PDQ+OLTt5ZmPrl3e0jHhv99gaJ46u22et3pX7/8xV7bdcu+z1qf/vsbwb9OvFXMUmlPDlpu70XSN1p78ZqT/97Uj9aa/+QHWnvjqs/pQPRydPDxZvOjulZPyU2X3qTnsrUnfaP3/0+voz/2OfdburP5sR++wM36oiOmzXcZHqo56z175h233t+/efmvo5qP7U95rip363TPM5wZK2zfqGUz/vVXeavTZ9WybeX3fGG5GqA25yA1YmC5brOh3kKrbfOdpw5TspA5JhFAoSRiR+pZmXE59wlQev3/H52RgUabj49LDMi0vcFMTiZ743JVlz+yet7tX2TMv3puO/I9xnb7W4Jx5NugsPH/79KnunV7tN7Hd32N+/mmdgMs2L/e6bUW7Omy3uz7+NpZ5dlE8poRBCCCFKy0JpXigX4zkrH5souTrL1N3ReOa4UArGZ75jYoWtbAEwJmUXE0sbYxhYHSE9aGVy/R0msinMCWElsGxgRi4z8RmYFCb3p5svtsHT+3ngJiYo18ljiWLMFp/zjIkyri7nVnSTMM1LXzdo7bUi1UdeG6kd/0ik5rh7vVz1cXcNqDvuT20Nx/1zpcRRX23YdGSwYeORwUrJoz+Lx45/oXfNcX90NcfdY69F90ZqT7jPzMG9kWF7XukGb9XZs3FctOGqQ6PJKRZgT7MgmeeD/FC9LIDuk7zWdF27UsE0QfWPX5taCStx9XMucd2Ijo//MRX7DI9UH35xNHbup6ntpj7vh5+T2qb9vq9tD/XOtc3U954aRGvHPx4dtAHzjygdzEbY5mWunaPH3NA9MC+Y736uZo3BrmLscDf8wEY3eN1V3aB1t8HIpV6fOrbFm5cI5iV+U7BC4/Fz3hwx7Nt00/L1CDf7w1b33iNJN/XA4W7jgypSbUJ6uWiv84a5TR6Ku7s+G+m+/kEGpsO4fDvSffe2GZfLa93mduJyHUMhhBBClJeFzrxQFsb8FDIfGBeWMiVr0l3Idmxp4nO/M2FAsj2pnuwIqzJ9a2K+C0smp5eqYYJ44j5lXJ+bWPEp24RvSt78pHzMB/9Ph2en3GDi70zaxzBkQoaFjNM7JswSS9XyYJ9SE6Z5GeCG/uLX0frzX7ZAfW604fLZ3+uy2b3jl88ZnLgyGJacFAxOTg4GmSobJwUDExMC+/t3P3h9fOK30dhFsyPVxz7jKvb8RcfnZyXacO1h0cZZZjxuaA+yMxQxff/MkPYHF2Z7XUqpkqopz7v4tJEdH/9jUuZl7CXRhgu+SG03lZn44efkvc3U977ezMspT0YHbcQDQ8tkXiZ+F6kd92hq4r4buCRGJTps56MjtadOisQuv8/OwVOR2MUvRRsm/C81XyWl7puX1RqPDz4ePay9TMz0uZmOB5Lu1ikxt/u0WGrBjqz7H7MveVm128gMzN0ft3UYGG9eTG+2uAcvrXJcJ53NSxNCCCFEeVmozAv16AT5d5nIVjCxPpvByAalNaNNjFRT2545L4RRWybis+zxHBNLAY81NZg8mAUWCCBwx1SwZHDmyl4YGbIfj5p4zZOmzACJgItnZniDw5wVTlQ6zJ9g5TTmsfA5mDSWVk6HuQf+4ZTMveFJ++Wo2Q/ZvPxq22j8yrfaTQBB/Q/lHxzoA/r2fzOyn/HaVAbkuiBSd8rfXeWBnOOcROPXHNJuBux9PniO/zCQzilel/5angKfuPbZrjMvR14UjZ33SWq7ZlAi9l4073O6kt9u6nvb/tee9Fj5Mi9mpOKT55g5eSdSd8adkdqTZ5kejdad/kY0dsm3qafpcxwab7bX8mT9781Kd83L2k3HB5+befm0zX3zUqt78IVmd8q4qtQ9xoBDV/Q5f7jbiBKyD+39KQNkxuWtZven37fPcSl2jpwQQgghSsNCY14ohaJEapqJgJ+sC8sM8xROSoRYTjhTTID35gOzwmR2VuVi7ejDTNme5eIf+EhmhdfyjAcWAiBIZ+lj/zwZsiHbm7KN2vK5R5hY/pjPuc/EAyiZG0Nt/UUmys7IltxqYvWmbKVemBVKxngt82h4JgyT9zFwPHsF88Z3wWixLnZnyzuHSdjmZetowxWvhpMduGpupPak5828cJxzks28RPI0L7zuB68tk3mZt93vzcujvQavly0j9z1Dt9om2jDh7W4f2w5FWLo4VRKGWbnedMM8uSQPiDSzGZ8654fv6YZ5SdwULNt44pdPtlS9+EbSTTbTwhyfgjMlp1e5zZ5Iuns/GOH+/VaLe/S6mpRx0RwXIYQQYv5joTAvjI5SRsWTrpkDQsCOyL4Q1COWLc7U6yYe/AhkSPzKZIjMSLbnofCMDVYPo5SLbTGhHnOAmA/DcsQsE4z56cwssNQtZokHWfL0fN5LFoXvihnhu/NMFrInuUbOCa4wYTzdnvdj2ng/34X989+Pyf6ZWZlSMl+Zl3kGIN28VB3UedlY/JqDfmReigiwU0qZl+uecU0zci9vXLXrkEjNkRdEY+fOMy/pn5mP5pmd783LY9FB61M2xlwprhXU27y2XU879XdDxlS54TvtEW248t2wzAslbRE7ZhEzL5HEVL7PXBe/5hsXv/ZzF5/82aD4pZ8NjF/+TRhlY7zf2bGtbTjrX4fUNJ30wBBHWV5RhsNu9D6Ta9yWV9a6044b7jYeraWQhRBCiPmVBd68kJFYwoRxwTh485GveJgk5oeSMJ4yznNT+D2Zk3VN2SBzwvwXSsgox2IODO8hkzLVhLnJJ8vBSDxP7mcZ5HdMfAbZFh4oycN31jNhljoDY0MGicwKCwBQasbnYF4on6O0jRNbzlFkzAsGjpK1zlaeyofwMy91J/7VzAsj9DmxwHj/kM3L0y75u/QSwwy26hupOuzcaOy8j7ttXlJzYWxf6894PlKx9Slu8BpbucGrbe6GrP5zN2iTraMVux0SqTpovKs+5ExXc8It0fjET9tLuX78mYUqNR+HDEv86sDVX/CWqz3lEVd97LVu2PEn1FbufPrlyeWe26lp9+8iien2XdlPe19Hxsh//07ls0up/5t5Sd4ULJ486fPfJ2ru/XN19563YxfEkHX7pzKwuQYLhBBCCPHTs1CYF+aqsBrX5SYMyHl5ioCfB0EyDwRhgvg9mQsm5ne2IhVmgANGoM5SxZSBUSZGBqiQshXmrrCEK4aHh1kywZ/AurOHYGaD1dQokdvHxOfsbSKYy7WEcslI9HJbxHq5N/pFUtkrDFh36OMGb/ML1zDhlTDMS6/4pLm96055qc+w7ThXBKlkJYbbP1tdn/9b0vUZvfigPonFe9WdeW545uUGtvt675rx+/Sq2vvnruqAzX+ofTaLVh28XZ+6k+/o3XDpV6n5Ix1ZiULkA/yU8WHFsdjlH0bqTnsmUnvCQ6YHTPdHasY/Gq077dUoyzfXn/uha7jk02ji6jnFmKV0YSRYda0iccXcQbHzn+1Vfey0/sN3uLhq0OonNQ1I7HvMYLf3P+Pu0rlt7p/nt27YXj7GvCTe3x3z0jHn5c0Rw+Z83OLuuDOeWsK8O0uiCyGEEGL+ZqGZ8xIGGBKCf+a8kEFpMYnCiIyrdLuOr3T/3X+oe3XTAam5A0VT49zg+mGb7dMnftlb3TcvU4NeiauDvrHz3+9bM3aiG7bjjq5ip93csF0OdMP2OsMN32eSq9z7yr7DdpvQp+70J9tNQEd2wFS0ecE0NUz8qnfd6S9Ha8c/Fak78dkfqHb8k9H6U17o03DJf3unljsu3LggH+B//7vr7P8sYDA9QxgHL0q7itteusi49DPzMjp5xtzdY+vffkOtO35WvTv9hnp3kf286rmke9iMy2yWID615ecd2+4wL0XKm5dVG48PPhw1LLW88QuN7q4t+7tVzLWXY2EKIYQQQpQfmZc0qkwcjN+aKAvTEqkFslIft9j9CTfhf21uzvstbva9cXfKst3I/lxR6VbYpX6139fEz/nSJVktLHsgW5Dik7+Lxid+YnovGr/y35H4xPcjDVd+HIlf+bnpM/v3Z9H4pG/aX/99YF+0eUnJfhefbMH2VXNdfFKm5vCz/T3FG4lM88LkeWfGySXNKMzT9NSSy6nSspCMC8IE9bbvv1zj+OCW5sU/NqPy7rcj3H9mj3Affd3mPrGf857DclLLL+z1TN6flXpf8Zpmx/OWYMXGce3mZREXvNzkXj6txu37s8pURlMIIYQQCx8yLx3wwMl1TJRcsaQwD7UTP4TlolkOmrkblKnxzBjERdT8yyEDN5oar578clv125+NHh58Nmp48Hxr9SvTE9WnrznArdDx2ljHT97PPKNaE/N60h8gmOK4Crf0HQ29Jk5o+tnHY5JnWbB6Q9bAuVClJpIneRbKb1NyXsl0+Tkg35uQ4s3LNfbdeTaLBeypz74xQ/Y727f2rEj3zUu6BiUmBvHkhUFT8rygwX62Jc8OVm08Ltik6bBgo6bDgyUbTw4GJK6y12Jmsn9uPsJM8BDNn5mReHDE4vMeFpn6yfLDaf8/vmUrMx23mn5vsv0vWnbcGu4Jlm86LfjIrrUPWt17dze48y+qcUtuqHkrQgghxMKKzEsHmJefmZY0ZXtopGCVqmHbbBapOuDUSN1x50dqjj8vUnPseZHacWdFqo++uLlm73t2a9zm85PbtgsOb9k2OKx52+CE1u2C7ZPbfVBTe+DM1Gtrjj8n9ZP31427IDp878PcgBU57jxnJ0XgXK+Ha9xSbyTc5e+0RD6Y1rZ6MMqCbxe/PmvgXKhSRsI+i5KjVAAcnxH0SVwdDLZAHw1JXBn0S0xOvRYD4N9XrHkhA4JBaEueEyyRPC1YpPGMYJFkh+zfizWeFoxqPCuoTF4eUDaWvs1C9L1poVxsipmVi4KtmvYPzmrZOLiwZf3gnJYNg0tb1glubFkuuLft/4Lb2pYKjmz+TVCTuMSOSfcm7Hvzsnzj+ODOtiXmmZVP2lzw71b3zdst7v3Xmt0r9u+P2e7+rXsGuzej3drV1CH//2zyr+l43W6mvVv2C85t3Sx4rnnQe4/G3Dl7DXaLdlxGQgghhFg4kXlJ40ej/yKNmn0HR6qPODNaf87/2ieV/3CSdy9T746fmb9Lf11KvJ/sRt1pz0SHbMQzaebNUfhNf5e8qGbo+Y83V33w6MhFgz2bdw0qE5dZgJz2wMhuqH9iUhBPXmDG4cxg2aYzgvWajg+2az7AAuE9U9qjeY/gZ40npkwAQbl/X7HmBWOQtO2d2LJlcF3bmsHktvWCSa3t4t/Xtq0VnNe6SbBW4zHBQDNPZF+KKefy5qU9yzMtWKFxXDCzbSUzEb2/z3ykae6ovsG0tlWDRvtuLt69rFa6eblvxBLBd6Pc7M9b3T//3ujueDjhZt1Y784/u8od9ocGd+U7Le7vPAV/3nfhifYjO5T2hPsfyb/Gv87e+63JPu9fN8bceYcOcaM6LiEhhBBCLLzIvIg8wbxUHXletP78L1MPHkxe325AOsSzPX44Gfx78bf017Y/uPBmzMvfokM23NU+3WdehjUN/dk2G9b+4uGNk/ubuTg9qEpeZoFx8RPZvQjq+TkqeVZwUev6wd9GJoK/j4gHr4yoD94cURO8M6IqeGdkVfDuqMpgvBmNeU/q73h/0eYl/ttgicbTgmdHNgefjx4QfDpqYPDpSFPHz89GDQjeHFkd7N28c1CRmJD6nsWUj2Wal1UaTwhuGrH894alI+D3ZuC7Ub2Daa0r/8i8+M/JSx0rf2Fe+tg+r2Dm5e7WJYKPW92DN9W7LZ9IujYzLk2nVLvYikNd5TWVLn5vg9v1H43u8bkj3dx5psqbk47vllXpf+d9po9a3XsPmHE5uca1dVw/QgghhFi4kXkReTIv83Luf33mxS9dmzWwzaZ5S936zMvpT0YHrXtYrwFrbt67euzBverPuapv7KxHh8fO/2+UZ4X8YC5IfuYhl3wWZdnGk4MnRy4aBCPcx+8l3U2vx91F7zS68/+ZcOe92+gmzWl1r17Ssra9HvPS/aWSXfzm1Db/2lo5+5Nmd9+zCXfB35LuwpfadbZtc+YLzX3e3rdp26AueYVtMxzzskHL+ODS5tU/eTDZ54b3W9yhZhb2Stc/mvtcMi65+jv1ifPs9UWaFxPv4dgOSl4TrNh4YnBKYvV7/9KQWu4714pfFVfVuB2eanSPfeoNTLpBSc+uZP4/zbi82uLeuzXmzj5oSGqpdCGEEEL0DGReRJ6YeXHVh58RqT/vo+6bl45liBsueiNSffSdpvt61Z39LmVmkaQZFh50mJhpgT8rUpG9IWvSffPS134u23RaMKl5ldfeMMOyzeDUs3x4MGFqMYGlnFv073F30G7J3zzNQxQjIZiXSPKmoClx9ifXJtum3lXtNu3YFgsWoNojh7qfTYhVjd88uceb8cbLU/sahnlZtfGErw9sWPe+DQcPzvrwxp2HuJHr1m547ZD4JV+7xt+ljk/RMiM6MDklGJU48Yu2ml0PsI/vtATTWp1Bl9a4HZ9Luj9/QgkZhoQMTKZZyfy/vW6uve6tVvfe72LunN0Gu0U6PlIIIYQQPQOZF5EniXMHkHnplWPOSz7yAfb3v7tmbjR+9ZxI4uq57UE3RmVm0MuMTUVyUtBgwXytqV8oZWNTLcC+Jlg8ecq368W2O2erga6+Y89+wDjneg+sv+D4zIdUFq3Gm4Je8ckv1tcfvJx9fNagfuWqrRvGNBz5u+rERXP4nt1Zwrh9NbVpQV39cW8vX73R8XWujtXcsjEgWrHNLtHYpe/0aZwV9Ldj0y/5wzlLXYnX9rf39LProU/88mBg7fF/GzjsQAxal4xwrt8lNW7npxvdo1/lmgOTblzsb9+Z3mlx7zLHZexQPkIIIYQQPQyZF5EnsQkDK2uPuGxQ/dnfpALkUMwLgfbMwCVnmfwcmalBU/LC4DdNBwXntP48GNuyTfu8jG6uiBVJTrcAe3JQHTvpnYFVB+/QsVfZiU0/gIdLpkrbUkaifRJ9IfLvY26PGbNnXewhMjw5+POAvrVjL+vbcP4Xqe3aMSh6m6nvPSPoVXviM30Gbsx+8vDVbPR1Azfb0NWccG9V7NT/jUmc+N0yjacGSzaeZgbv1Ly0lEAB8D0AAFkDSURBVL1+WXt9a/zUbwbUHf+KG7bPLDdkh5U6Pr9L1nWu4poat+OTje5xMzDtJWEYlUxhauxvb7S6924243LsUM1xEUIIIXooMi8iPxr6jFh6qdj+f0iasehuaZP/f3vZ0Qz73ZRg0cbzg51bDgsOato62De+/pvHNSx354xEw5VHN6x6Y03i/A8j3X1IJUF9/Kq5kdqTX3BVB2/esVtZicanHhVt+n0Qbbqt/Vkw/lks8Qyl5uRk+Z1910jqOTI3BdHme237U1518RtHdnz8jxm6W6WrHntFJHahbdO2SxkXz4DJd5vIbzP1vW8NIrWnPO8GbbidfXquZ570cv3XbXTV+2wSrz9or41i25x3bGK1V29oXT743cjlA352pltGLB/caD8PT65//5J1ex81tHr/bdygrdd2g9amUcmbJueGXWkG5pmke/xHc2BQR0nZ683u33fEtRyyEEII0cOReRFd0mviMLfE1fWDL96xcad/t4QwL8NnCgYmJgWLNZ4e/Dq5z3d7JLb554Sm5e97rnnI1Hti7qijK1IPDW11g361nWuY+G60+S4L6lmljEC94wntzIlJzYvJIv97VkXjfU2/MwMzLXB1J7/qKg/mQaQ5icYu3C7ScPlTkYYrnorELnmypuHMd5ZJjg9WbjoxtYzycl7JDnX8f0X7+0qmUfGTvuofO+9v9t4nIvHJT9vPGa7hUh7KmZ3K7YZGq/Y/IlJ3yoO2zcejsUufqW047f2lbZurdbHNFRpPCtZsPjEYEz/x6/6xc/4ZiV3+tH3Gk5Hqsdf2GrjuBvbp856h0xnXD3T198bc0f9pdv/wmY55ZVzp6vjb3FHuu49a3EOPN7jNOj6iaGLODby40u00bw4M2+jQHNO7Le7dm2Pu3D0HuzEdbxFCCCFEz0TmRXRKdIuBbsmnku7S/7T1+2R8y6/n1qSeudI989L+/mnByOQ5wTmtmwWvtg376pFEvxvHVvZaP2h1FUGT6399e7lTPzd4y19EYpc9F03O/Cwan/xpND7ps/7xCd8OS04IKk0VpqGJH4olh/nb8OQVQd/4xK95TzQx5dNow4RPIrXjHnVVB3QecA9bq8kNXGdDR/Dfb511f1294rjLkkv97Xeti83944jFgnvaFgvuQq3tutv+/QfTvfa3Gc1LfDY+vuwtI4asur3rt97absi6G7sha63s3LIDOz49G73d4GXHuEGrre0Grb/WwCFrbPqbmuXPu7hxyVfuaFts7v1Ztsm/+R1PtL+tdfFvxseXvrtt6Ir7p773oA3WdQNWWMG5Jub1RNs30TXX1bnam+rdsW80mYHxWY8s5mWuGYx/t7iHr652m7yQpznqCp6KzxwYViH7hgwM27Htv80clzp33jjNcRFCCCGEzIvogiHPt7iTvhjlPg5G9wvGtfy644GRYZiX6cHSjacE09tWIRieM7fNvfO3pDukY7ueiOu70pho9V57RKsOHRutPPig/tV7H7d2/S/vPTK50ReXtG0SnNe6ceop8uk618Tfjm3c+JMlaraZEh2+/9ho1SFHRKv2O9xVbLOLG7JJ7hKudgj4+3So91VVruHWWJ/tXmju9dRnI3sFc0b3CmaPMtm/0bf2/7n2/7dbe33xaLL3lTc0uKV3tWNn78WAEdyzbHBXD0HltWyvF5PZz69wzTNivQ96sqnXi9/YZ88Z88Nt8u+59rsvRvSafV+y94xxlW79dZyrsvf77aG8jYtnj4Eudn2dG/u3JvfqvAxIhoF5o8Xdf3FVajnk/u3vCoc1zDZeW+N2eDbpnppt23m71f339zF3zuGa4yKEEEKIdmReRKcM/FOjO+DDNvca5uWk1nDNyzKNJwU3jlg1CMb0Df7b6t6+N+ZYZjdzjgbBeIWp2jSkxS7a02p6rX9TfPDVz7cM+ujLUYOCT0YPCj4a2a6PTd/a/19rG/zmTYmKMw4e6ljli6B+eIeGmjAJBUFm4MGE2+6NZvf4t0wu94F9hz5udZ+8mHQT7qtxS3a8pdvsPcjV3lLn9n+1yT3/HcYhPROyiAu+Huk+/2uju37cMLe6vbwrc5Q3m/Z3jdfH3NH/MAMzb7umObbfrze5B2+PuV/Yy3ItBNAtWu1cX13jdn406W66K+bO2kfLIQshhBDie2ReRJfU3xNzB/+juf/LRzdvPTuWDOtZJNODlZpOCaa2rT7njba+b9g2jrFtdbIi1w8ZV+GW+UODm/Bhq/soFVynGYnP2ty7zyXd+EHtF3iYRO6Ou+0tqGd1rHlPiH+/1f3vsaS76sL68CeT71Thhl1V4w54qck9+/koN8cbCfv3J081ullbDnar2MsKzrB0xXYDXWxKrTvmtWb3j9m2j9+MdN+91ewevrYu9aya0LeXQb/1BrgVbMfyvh6EEEII0SOQeRFdc9ZAV3905bCDNk/u/kpbU3iZl7WaTw5OaVznrbNrBh+9Z/9UoFpI9iB6wTC3xJ0N7qoPWt2H3kh80ubefyThjj/Ygu+O14XK1U2u/60NbutXzEx8OcLN+aDNffmkGZeTqlJPeg8t+5HOhpVu6NV17oDnm9wLZiTmzh7lvrV9nPmbwW41+3NJMiBwWJ2rnVnvjvtbo3v9Xy3uz1dUuc3MnYUyxyUPSm2QhBBCCLHgIfMi8qT/0k2j6g+6qS5+3tzuPueF9/Ncl1GJ8Z9uUb/xtEX6xruag5KTU83A3N3gJr7e7L7+uM39508JN25cZerp9SVj1yo35OaY2/bhhLvtj3F32cw6t1jHn0rGFoNc7W117ogHE+7h2+Nu6qmVbj37dcHlb4VygB3LWfXuVze3ryqW64GXQgghhBDlQOZF5MmiL/QdWHPE+f3qz/qy/SGKU8yEXJNSNqOSTZG4vd7kH045oO7Ef9ZWbHawfXi3RvOPGOqW+0ODO/2ppBu/Vn8eHVIW+p1Y4dbZfVD5bpxzhrvk8RVui5V6u+Xtv6FOlhdCCCGEWACQeRF5UnfYIFd95BnR+nP/G01237zw9PpI3WlPuyGb7GifPqB9I92CpYgrTSUp3RJCCCGEED85Mi8iT2r2HeyqjzgzWn+emZdp7QYkNe+lXf7Bk7mU/trU+5OzMC/PmHnZyT69s2egCCGEEEIIATIvIk/MvESqjzwnGjv/02jjrFTmJJqcnhIPnHTMY+lUGJb216fe3/jbIFp/xvPRIZvsap8u8yKEEEIIIbpC5kXkSc1WgyPD9z0lWjv+X9HYpV9HY5d8FWm46IvesYu+GRq/JIg1XhlUJq8KBiUm/kDD7XexxonBsPilgb12diR20ZcRe2+04fJvojXH/iU6cN0d7NPDKBsTQgghhBALNzIvIl926h8dtNU2kWH7XBmpOWamabqrOXpqv9qxNzbXH/Wn1ROH/mubpn3m7ty8d7BtU7t2sn9v17xPsFbikP+01h/1SP/ao290NWOnuZpjZkRqj7khUrX7aW7wSjxgsVzL7wohhBBCiAUXmReRN1FXsclwN3yHRlexf4ur2KsZ9avdp3VkzfZLblu72GEPNNf9/a3R1cGbo0wjq4O3xlQHj7TUvr5H9SLHtlVvtWyFvbb9fbu3uDr7jKqtG5xbdLB9tibZCyGEEEKIrpB5EeFwtnO1D8XcwV+0uqeDRV2AvmpzLz4ac8dcPsDFO14mhBBCCCFEsci8iFCpm1rnTnmh2c1+ocV9dVMdnqa0D4wUQgghhBA9BpkXES5bDXLbbD/Uvb/DEPf6thVuq45fCyGEEEII0V1kXkS4DHBuy8FR99rgiHu8n3PrdfxaCCGEEEKI7iLzIkKHbMsrpodM6/MLIYQQQgghQkDmRYQO5uWfpkdMG/ALIYQQQgghQkDmRYSOzIsQQgghhCgFMi8idGRehBBCCCFEKZB5EaEj8yKEEEIIIUqBzIsIHZkXIYQQQghRCmReROjIvAghhBBCiFIg8yJCR+ZFCCGEEEKUApkXEToyL0IIIYQQohTIvIjQkXkRQgghhBClQOZFhI7MixBCCCGEKAUyLyJ0ZF6EEEIIIUQpkHkRoSPzIoQQQgghSoHMiwgdmRchhBBCCFEKZF5E6Mi8CCGEEEKIUiDzIkJH5kUIIYQQQpQCmRcROjIvQgghhBCiFCy05qW3abBpuKnSNMTUxyRKj8yLEEIIIYQoBQulecGwrG062jTJdLXpeBOB9DCTKC0yL0IIIYQQohQsdOalxXSM6X7Tx6agQ5+aHjQdaWo1idIh8yKEEEIIIUrBQmVekqZTTB+Y5ppeNj1s+pPpH6avTW+ajjXVm0RpkHkRQgghhBClYKExLwNNu5n+bcK4YFh+ZWo0NZh+bbrT9I3pbyZe29ckwkfmRQghhBBClIKFxrwsb7rFRInYM6adTf1NngGmbUxvmHjN70zscMQkwkXmRQghhBBClIKFwrz0Mx1s+tCEMTnPVGvKJGG6zuTLx3YxsSKZCBeZFyGEEEIIUQoWCvPSZGJFMYzL56adTNkYZNrD9IrpC9O1pjaTCBeZFyGEEEIIUQoWePPSy7SmiR3AvDxlWs2UDZ79spbpAROvfc3Ee0W4yLwIIYQQQohSsMCbFybdb2/6q+kr0zTTIqZsML+Fv91swrywfDIT+TXvJVxkXoQQQgghRClY4M0LE/EPM71r+q/pbFOzKResPDbdhHn5xLSXKX1iv+g+G5tYmprn6qzEL4QQQgghhAgBEhc8GuUe0wJpXphwf6qJOSz/MY0zYVBywdP3mevi58dgfCpNojiYR8Ry1It3aDETx/Rt03OmvU3+b6UU213URGaNf2d7TdhiO2NMbDfb30shblL2kW2Wcz/9NrP9vRTqKcc2fZvZ/l4KsU2OLT+z/b0U8vvJTx3bcMX++WOb7e9hi/Pnj20597OnHNtybxOxzZ/q2JarPfgpj2059xOxvZ/i2KJyHVumfLAA130mtrvAMdR0gYlnu7xnGmvq7AGUmJ3JJswLhudoE+knUTiU23ERnWj6o4m5RLhgTMtnJsryeFDo46YnyqAns/yu1GKbP8V2fwqVez+Zv9ZTjm25Ve5j29PuEx3b0qjc+6ljWzr9FMf2pzqXPeEaKvf5ZKoI1VYPmUabFjgwL5eaMCOYl6NMnZkXMgWTTN688LR9mZfiaTGx5PT5JpaoJgs2y4RpYd7LoyYMDe4YgxO2/tDx82nTR6b/mf5susuU+dowxQNPHzNhmtkuv+O7lHI/OY4vmih3JLPFsaXes5TbvN9EI/Gx6QMTDcXdpmyvD0t3mAiuuUd56Cz76M9zKeSPLdcspvt1E9dQKY8tn43Z9+fzXybKLPke2V4fhtgX7ovnTRxbnnnFsS71sWVfWRyFTDdtwsMdv8v2+jDEMeRYcj45tm+ZuI5LfWz9NcSxfdXEsS3V9YP8fcH+0Ze9ZGK/S31sOX/sH8eW88qxLdU2OX6I/WSbHNu/m0p9bP21wn3JsX3BxP1aynuFbTJPlPuSfozSa7/v2V7fXfljy/njGqIvo22gbyv1seVY0p/QJvBcPr5DqY8t/eU7JgJeHlTO9kp9bHlYOtfQtyb2k2Ob7fVhib6ZbdJfM3iMmeD3pdxPji1mgvibx5VwDZXy2PK5bJd7hWor2qMF1ryQeZlj4uAdY+rMvAwx+cwLNw6ZmhqTKI4+pmEmDCDP1uHfW5hYFGGKaTfT6iZSfKz0FrbWMK1jojztNhPBGQsGrGLK9vqwtLKJhSIIxm418R34LqXaTz6XVfS4vrlxJ5q2M5X62K5nOsREo/hb0+amVU3ZXh+WmCfFkuY8i2mGqZT7iPhstkH9LA3/xSauoVJul8/e0MT5pDGeamKuGOc42+vDEPvCfXGEiTmCl5g41qU8tlxD7CsDG3QyZ5p+0fG7bK8PQ3z2JibOJ/fKBNP6plJu019DJ5sIVph7Wepjy/b4/CtMmO3xJva71MeW88dEWa5b+l7avlJtk/3z4hqiTaA0vBzHdm0TfRjH9kgT9yvXc7bXhyG2+SsT9yUB4Wkm9rFU2/THlTaee4RHSBxuom8r5bGljeN+vMnEYNj+pnVNpTy2bJP+ktgPA3GcqRzHdlMT1xDmdz8Txzbb68MSfTNtAP01BnF3E/dnqc4nn8ux5aHw9GE8KJ5riONaym2iX5q4hjC+C2TZGGVgJ5kYMX3fRAlT3JSLKhN1cpgX3kNgRsAtwoNGmEaCjpxayFITNS1rutLEdjs7/2Ey0sRoCsEDy3CXAxpDFpzAdLfyixKDOaUhusZEoML9Uw6WNJGVOCP1v/KwrelG0wGmBn5RYlgohPNJo8+9Uq4H5hI4MKrLg33LBQuj0NHQyZXjGmKQahsTq08SePIg43KwtYkBjV1T/ysPmFGCBgw3+11qOH8ERVy3+5hof8sB1xAj5gQt5YCyaO5Lji2rZrI4UKmh3eG+JEZhcKwcMPGZe4RsNyaiHHA/XmhiQIyAnn6m1NBfYlqovGEQrhwwuM41RJZgRX5RBmgD6K9nmpYw8TiRUoN5oOrmMhNmqRz41cYw+syzWeCgQeFmp4yGVBkBVmdBXdLEScW8kFYjM8DNK8IDJ46JwEiWK51HsMvoEQ0TGaBywKp2z5ouT/2vPGxk8gEZ13I5YLSeh8BSGkhjXA5ojAhUGH0sF78xYV4YIStHNpagj/PJyBz3SrkCbEaUGWU9MPW/8kCwi3nZwVSOawhjyDL4BNiMBJZrOXwMBOVNuR6UXApYIIUAe0tTOVbO5PxRKsx1uye/KBNcQ5SMkfkpF9yXHFsCsnIEgbQ73JcsKoT5LhfcI5ReM6JdDrgfidUwLz/jF2WA/pJM91UmBo3KAfEp1xDmZTl+UQZoA+ivqVooV0ZilAmTxhQOBjvLAQttkeGmZHWBNC8YD25yRsBnmwg+mESeDT/B/PcmzAs1uzT45erYegqM3txgIs2/FL8oMQSBK5i4WdluuYJ6VmehPpkAqVyZF65XyuPINpL5KTWMiHE+6WRo9MtVYkkmjfIbSrjKBQEZozgYwwS/KDF0bJxPgiPulXKMmgMdN7XJLFZSLg4yUWZEeWc5riECbLI8lHRSTlWu5fAxLdTU75v6X3mgjIoSEUbqy2EMOX+U+nDdHmoqV+aFa4g5cGRIywFxAfclx3Yz00BTqaHd4b6k7BqzVg6IobhHmL9E6Wo54H5koJHAk2C3HJkX+ksGw643MchQDipMXENUETCoWw5oA+ivmRe2jKkcppu4GjNKxpDyynIQMzFgzdxjBq8XODgx1Pkx18FP5mNkMRvcIBxYaliZnMaqWHoOSfhwIZMNY5S1iV+UGDqZESbKfdhuuUqbSPETXNORl6OBAEapCK5pfDub2xUWmDLOJ+WVjLKWK8BmIQgyWgSg5YJRR0bmCFTKsXw6QQPnk1FP7pVylKUAHRpzpspVOgFkmFgcBSNcjmuIY0lQREkV8wjKERwBJbOYfOYRlAvKqI430Q+W4xri/FFGxXVLsFuuwT+uIUp0yQSXA/aL+5Jjyz1TjgoN2h3uS7Jp1PeXA9p47hHKuMox2Ajcj5QB0iawpG85Bv/oLynrxASXq4QLw8s1dI6Jwc5yQBtAf83iVfSj5Rhc4HEZO5oYtCmXkWC6BwafuY1sf4GE0QoaNcwLqzpwU2RrUHGkNLiUmJF1wSmWa5S+J0FDxA1EGUy5RuUwD2wTlWubbId5CuUa1YWf4tj6bbKf5QpUOJ/lPrZ0qHQ2BCnl2s/081nObXJsyxGMedgWx5ZjXI79ZBtsyx/bcsE2Obb8LBfsX7mPLeeTY1vua+inOrbcM+U+tuXeT1ZiZT/LBW07x7ZcA3/0l+wnx7Zc+8n59Me2XPvJNtlHVO5jyzkt57H111C5YqHQ4SZn4iApZQwMI7bZ5r3g8G83fWdiWUlGrznBQgghhBBCCFE2ljYx3wHzwmovZFjSVxGjPo5yG2q9MS+sxkBKrRyjKUIIIYQQQggxD1JHrBZERsXPfcGsUJuLmODM3ygre8hEXekCm2oSQgghhBBCLNiw7jMT3XjK8dcmlk4m08KTXJnj8qWJJ46yBn+5Jh4LIYQQQgghRFYoD2O5SpavZek/sjCsLIah4dkjrMxSrtWohBBCCCGEEKJTWIGAJf+2M7FUJmvRU1LG097LtfqCEEIIIYQQQgghhBBCCCGEEEIIIYQQQgghhBBCCCGEEEIIIYQQQgghhBBCCCGEEEIIIYQQQgghhBBCCCGEEEIIIYQQQgghhBBCCCGEEEIIIYQQQgghhBBCCDGfUmdqbP+nEEKUnb6metNQU5RfCCGEEEJko9p0aIeG8QshhCgzq5iONK1jGsQvhBBCiAWRASayAozGlRO2FzcNNEX4xUJKlWkf0z9ND5t+ZlqY91eIQuF+oB3C5FfwizJB9oH7s9JEVmJhZrRpgukd07mmJpMQ4ntoh2h/iEv68wshxPzLoqYjTATYI/hFGehj2tp0qWkr03DTwkiNaW/Ts6bA9IZpd1OpjWI/U9I0xjTSVO6AUIhC4Hpd2URWYEfTYFM5SJgONB1vWs3Uy7QwQhtwselDE+0QgyhkX0pNrQnTRDtEuVq5Bm1og9QOiUIhG/kb0/mm1fmFEAsiOG/mKNDwt5jKEWDTma5gomMhxd9mKnWHupzpetMzppNMpZ6XwQjnpqY/mb423WJayVRKGF1dw7ShaRkTmaZSd2503OnGBX1sus7ENVUKKElbz0QwdqVpiuka09mmbU2lGG0l0CTw3NPE9XOa6QQTnQDGuBQj2pxP7g8MMGZwG9NaJo7rwjZiRlaA9ocgkHuTTGUp4fixLYL5tU1kCrmWSwnb3NJ0n+kRE+dziKmUxEyHmF4wEdSfZaJdKBW9TbTntEMc1yVNpd5HwDhcYPqvybdDH5kOM5XiXmE/aWP3M11ior2jHWKg6gDT0iZeEzaMltO+H2w6tUP8m981m0oB9+X6pp1Nu5p+YaIvY+BoYTJP7Av3Bu0rA5wY0VLvH/HWEiba9TVNi5lKPajBIB9913smYiJiMSGKgo6bIGVFU7nS+oyK02HvZjrFdJ7pTBMd3camBlPYI0iUS2xkIvi7wUQn/jsTQScNYik7VTq3ySaMxOumsSZMVCmgNIRjeLeJTvRT03QTwW8pwaDdZHrARHDN/0vRgXp8qdjTJvbzS9O3Hf9+2bSBKezGn3NGwMC1M9fkAxWvF0106BiKsLZN5415uNmEMUvfHvt5mYlAlM48jHuGc8b1epAJ00sm6zPTWyb2+0LTHqblTWFltzhWbHMzE8FnueCeJzBinhTtDwHoySZMIp1q2Nk0H1zvYOI43mq61zTDdLQJM1Oq4IFtr2t6yMS1w336K1OpgnvaWzIu3BNs733TiaZStXtA24eh53hy7R5uKvVAEfc6/Rf3CPuZ3g5dawp7EIXr4+cmPhuDxHbShUm82sR1HZZx4nNozxmw+bNpjslvj30ly0Sbz4BgWPMNGaHHhHJfMgjHftH+cT3RFhI3cP1yP4UVt3BsMUaoXJl0KiRGmbhuaQO4lig5PNb0a9MiJrKmYcJ+Eu8Rb00y3WMiXrjCtK8JE8P3KgVcS5j6b0yzTcRF9CULa0ZWlAhu0J1MXLjTTOWYK0CnRtnCXSYaXxp7gvqvTATafzNhMP7PFNZ3ocPkhnnK9IWJm4ZGF7F9Ru4p68I0lQJGpRh19CNz/zAdZQq7Y6UR98aFfaNDZUQOc0rHXkoYfaODYbu/NdEglWrkiGuIjAuZLEwE+4kR9UbmExPnE4MTFlwbmM53Tewj22HbdOTpRoZrGEMcRgam1URQgOHlHsk0TPyf6/cVE505BqC70Fkymvu2iQ7muw6xz3wH7p//mbjGGA1lNLa7cKzOMWHGMH+lDjhpVwgqjzFxDXHOaH/YP44n7RIdOiO9jICGAdvknqC0CEPI9nw7xE++A9skO1IKA8O9iCG73cS1w3b/YKKkNOzsAPcnGYDnTVyj/zZhXLieSzmgQcaM7b5mYptnmEo574TsGcEm9wTH9DkThpQ+jHvmURPnM6x9JqDn8zAQXD++HaANSjcU/I3zjBnubhDKdcuoPIbwAxPXTWY7xL7SBj9oYkCyu+0ux2sT0+9Nn5u4P9g/tkObxP7xe84z2W/6nu6aDYLnVU3sJ8duO1OpBhI87CfnaKKJ9pZ9og1C/JsBI0wqA3FhLf7gryH2kTaHbXFOfftO236VqVSxIJ+5l8lfvxhSzDbmuFTxgljI4CLiAmU0lYuIgI/yFzrYUkGaEmfP6ElmA5gubuTLTWF8F0oXxpkIAP3nc9PS8NFA+N9R2sBoMx1v2BD4MqpC4Ou3R8DJ78IK1OikaPAJgGjkaRxoFDjH5RjVYJSIBpB9m2WiYy8Ffo4LgQLbInBg9Ij6WQzhv0x8D1LSlFaEAaaQ0Xh/DdHAk71jZJlRdK5pzL+vd2fhAALf7hx3yoi4bpn8y2fSkbGffkU1aoYx4/wNcW1hABg1KxYCdcpA/HVKap/OEwNFpuCPJh+oIYJTfk9QXGzHQwfOAMqrJr8fBLpkkkoF1yZZljdNfl8yRftEm4DBCcPAcIwYZUwfLSfA9ucXcd9yjLmPS3HPcm1wX/jtEQhiYBjBDmtwg2wWBsLfn+wfI/alNqRAFmm8iXadTA/ta1jmMxNGyzGi/zGxn/Qn3JcEmpRvcZ7pZzA3YWUjCK59f43IeNBG0AbtYmLEHuPE37hP2XZ3BxdoQ2l3fF9Jm4MpZNSee4OStfS+9UnT/qZiDQxxCQMoU00+wH3CxDFlYIM+jQEHvz2OMX/nXJOlLhbaG9o5zhv9B9keSmZLlZmkveRa4X7MzKiny5vCX5q6a2DYF+51sr20NX4bxFv+OkZ8H7IwYVYQpLO9Kb0foT/1sYoQXUIjQXYDk8CIChcRDQEdbCkuIjpjyrP86Dgd52MmgiO+A8aJhtkHgFzQpIy7U2ZAp0Gg6wMjghWCTrIwBJc0vmSA/I3EiBa10mGXz2GIaNAZcWU7Xt7AdDdQY9RpcxOj4TRKnE8/elIu6EAZuWG/6OxKUR7i57ikZ1joPL3J5eedJv7GuabcqrujRzTedKY+6GObXK+UFvjrhNeQhueY09kQ+HJdFzuPgTIBOjY/l4frBGNG8EmQiRjFxjDyvfw9Q6BI4F9swIYB9MERAQnBAvMGGAAge0gpynEmDDKjobyONgOzyuhnMSP4tAuUczLK6u9D7hOC0FIYGO5FgkxMLtsiWOGa4dxxXimxJBjib4hgkAxTd0rkCNwJJDlWfCbB10UmTC+jkPyNoM9vk0CtFOVznEOCQraRHrx4A9PdQI0sB4b+ryY+l0waxqWURjQd2kGOJfvG9UtZKWXRYUN7kD7Hhf6FOn72EzNOGSeDDfyN+4l5Bd01o+wH/RX9Jp/LPUjWjMEcD8E72WHf39F+MLJfLGQeOH+YbD6PkkOqJvxKUfSvmBsGPMgy+TaBa5ljUMw9Q4BOX+L3gflZ/J9MKcaYNpBrleOfPteR9v50E38vps2njeN+TL/3MTDsR9glZFwLDKDQT/o+k2oMKhYwDWRiKI3zxwBhOLqzAASDm8xt8e07GWauIdp4BuYohyYG89tk4Ip2shTzkCl75PP9viH6TWJPzYEReUOjQIPvRwQJILiIljWFNfpHY0KDx+eyDRpg0us0vgQTbIfGmZuTGn7/XRjZpUEpZgItgSUBII0qn0VAxChVemkNNzR1tbeb+E5slxGlsG9YGnFGxhidY1SD/fKBDIFptjkw+ZYacOzooHzQzn4w94RgupzQqfmGmMaXziAs2EcC8vQ5LjR2GBdGIz28hjkL/B0RBHY3k4aRYASOgJOgiMY/2yopGBhGzL1BxUgWu7Icx46ggeuR0UdGeHMdT8495sEHDlxbdEbFBA6UfPiAjHuVwY1MuBe5Twny/aAHusPE/hdrYOhYGVjgvPJ5mAuOQdgTgTFKjFizDe5FlrbFiBKocc9xH7LwAhkQjj3lKgQOlF4WMwpJW8LcC7JxmNrHTQycpF+XBEf8jmwF22MQhcGIsGGbBChsgyCFAN/fs1zXBIXppTIcj3zbIa4LrruXTHweI/UEk6WcS5gJwTSZQLZPW8v3CSvrAfQpBMdkOLzR5rzSr6Rfp0yY5xrjfBOUklnsrjFkYMbf57QxmN5sg2y0OQwE8N0YTWfAsBjosxl5v83EZxFs0odlK6XiGDOa7s0EfRCDgpSbFXrP0M4RUNO2YJowbNnOIdcVx5V+z7cZtJe0lZjFYu5VYhDawL+YvLlnbhjtf5glZOwPcQ19P/ciP1kFkNiEc8q9RNvL7+jvuI4Qhq3YgSk+m9iK7WFcMEq0uentNdlE+k+fDeYclqKCgv7TVw1g8hnk4N98L/odrvX02DPfNkj0QLhoqdP3qWFGl0njYWC6O3INfiSZjpvPZ2SGzjmzVAEzsbiJkhhGk2lAGBUs5gZiRIpJbz71zI2fLRBimzTKjLASzNBwhlHHnw4NBBPy6Og4Bnwvgggf/PF7Giq/Xb4nQSkjtl0dfzpF6nN9uQCmiDkL+UwU5bPDOL/Ad/CBEKPYuYJtjgWdBMp3IiLnksaezpFGnO0wlwfjwvnz0OBxnP1IIY0vxzG9ISwURgI5NwQCXJNcH7n2jWvXB28Eg2QtioGggfuPAIlRbILpXHAMCWR89sUH29QQFwomms9AjCTnGnHkmPMdyY54s0bAgmGjQyyms6HTJtjBwPh7lmMeZskR7Q375Y0e2bFsgzScc1aU4/rhdQRHxc6hIgihDeO69QF1NkPNqD3XFuaR19EmhQ1BEaO9HF+CF863D04plfFzYDgXnENMXb4LuXBPYFZ8G4A5YjS3KzPr26Aw2iGuV/ox9sUf62wDUQS2nGPOJ+9Jb0M6g34Ic+QHnjB/GJfMeTW0bZRWcU/yWjJ6ZEq7A6tHUqnAuWNUPtcINeeKQR2+H/0LgXcx7R/HhHuAQJ7PesiEKcgFWWbaZK5zXs/3pAyr0Aw8x5JBJ2IRzDyGOld7wjlk8JG+1A+68JPy2WLn//mBBL/fXEsYGDIwbC8MiLe4/2iryRiRzc52nLg+uYYxwHwXBjW2MOXbb6bDfe0Xz6BdY25stut+KRPtOK8jLgmjdD8TsnWYTuI7MsH0rz7jw/3C+aRdBtpFzjF9gEyMyAo3e3oGhkbAu+DuQmNOChJHT4NOw56e7s6EbfrAgeCIBqzQhoPXU3vNqAajqJS85IKOgBQqddJ0RjQuNMZhjdrRWdL5MMKAeSFtyupfjBL5ele+J8cIU8fIHsEvI7ZdjbTQkFHGwCIHNDZ8FqPvBFvZJqvyeYycE1gQfBIcMtpEkNKd0hg6SR8U0nlmlr3QOFPmRLnMzA7RyWB6uqpVJgDk9Xw2QTLzSxgJz9X40rkT+GNiOA7dqefnmDAaRQBLNqCzzBxm5e8mvicjZpRTMDpI2RHmPd/JwzTuZM8IAChdIIjIBeef8jhvXhCjpJi9QjOIfF86VD6Da6OrYJ0OhePrR84IXBkd9h1PoXA+MT+UwnkDQ4DIdwmj9IgA0gd2jPgRkOQaoaWjZFU1zCgBGddUMW0h28QkEUzTKecyYmyPa4U2kmuIUhlMDurO9ZsO+8r9R9DAMcbgcm3db+KYEKiREed7cD8zeZkgi7arq/aXQRRKbsnIce9xv2CMstXqY1TIEPA32jzuL4wU7QP3erGDDXwHf69yfikPTi/dZP8ZYKC0jQEWrlXaEtpO+ofO2nvOD1kMP5eHz8cIZxsQ47W045gNrh2CT+7/7sCxYYCK0WkMKIMH2cAs+mucvoWFYsiKE5AT+GJA8gl++RwmdvtyRlZv62wQgeuUgQde60WwzQqChcB9zuAlA6gca/a7MwPMOeU6JqtA/812uYc4N8VmKdgXBg84f3we9wvzThgY624GDbgW/Hw7Bgw6M4UcD/rJdCPcWeyUC+5z+hIGhOjDct3P/J57mO9GH0bpOVknttmdQcB0uHa57+gviHUYaOVeJQZiu8SeXOPcQ/QvHCNeR0ZTiKwQcGJgfD04nQAGhgu4OyNjBEHU7NMgcYHSiHY2mkdnzUVLY8SFXMwIDhDIclMQIHeWTWEJUUZXaBxIuTPXBoNFp0YQgTno7o3L6AEjHwRjNMh8Ht+P1VL8ZDlMB40kI2aMPDGKyGT/fKBjYQSHIInPwsiQcvfvpwOgAaMzY2SFBp5GmQaEztXPBSJ4yBXQdQZzHvxEb1b+Sp8sT9DHdtPr+r3IprCfpJJzdVIE/YzOUP9MQEXGJdf1iFEmOPE1tQRf3Sk9ojH3CwH4jCTmNhMCb64zJj+yXe4dAl9GlLjmMaN0yhynrkwxnRmNO4EK57GzUXgME8EKxhFxPnkfQWihc54IJvm+XBd0YJ11qh6CQ86Nv+58uVCx2UvOKxkYAkuOIZ9JR4+B6Sx4ygcGaNgvH6SnX6PZoD2kBp3Xc14pWywUsh0E9VxDDMJkM9zA65jPxXVGYIzhIRND20emlo48jIwwbQL7w33n95/zTmDDwADnj5IORp4xkFzDucqFssG9znfnXuHc0a7S3vn3k6GhxIggjODQD5bR9jLfAFOBqcyV3ewMjiEGnLaNz6UN96aXoJNjyOfzd7bp5bOGtH+5RuwxJGSieD9BuV89LRe0WZhVPp8BAT67O6VHmAA/r4Rzg6HMBueUzKvfN+5L2h/6HT/HlPPZ1WAABocyUB/As81cgxLcs3wfssTsq8++efNUyKAYxoH2hHNE/48ZzWcQhsCWa4q5smybAQAMW1emOxdsk+PEufbZJO6RMObAcKw4L1x3mK7OBieIE+gb/VwczgP7Wmg8RjvN/tAHdTa4xOtuNPljiGnACNKmY3qoZOjOICdw35Bd456nbJd7kzJABmv9QBh/Ixby2SIyNekl4kL8CDpsLlifEfBzYBjdKDaAJyilIaQhwEVzM9IZ5ILgmZuE19IYkhUpZjQXg0RjyA2ZrYFgOzRSdOg07uxvpghaaGAIqIpJ13roVGjcMWNkhPz+83vmiPgaakQHRQdEfX4hjRTBHfviO2cCUYImRjrouAmg07dBoEKg63/H6A7ZIEYnCzUwNKh8Zxp6OlnS0uwjI6xcPwTEbIP9xJwRXPh95icNZmYZmIdjwMgPHTjXTmffjb9hFH1NLStGce3lU/qSDd7HCKQveSSQZvEFRvW4pri2MSMYw/SMAR0T5zp9Pzk2nAOCxc6uJc4jQSsNOO/j+FGyknn/YdTo6LlGCRjo2HzdOdsl41PIeeQex8RybfigNZ/3Y5AJtP335Ziz7c7u8c5gm9xvXBNco3wmWTTMeb7Zq2z4QRRMMIM0DEp0BueI7Is/f3S4xQRDnDeCccxHtjaU40T7xmijD/ozRdvBvc0oZbHtMHBeCAq517kvgOuY9oHj4u9TxH4zuFJI2S7njuuIwN0fNwwM9xDHm+PvR1gR9wvn2Ae8iGuYAYj0rEk+cK8yOs6IMZ/HwAVtH8eLtpTvwedzH9K/0Q5xj3K983sGPDA8uRZLoB2ivSYD05WR5jhwb3IMMIuUx3Rn5Jj3+owK54hAnYEmDBHXKT/5P0Em5te/juuJc81Pf24JEDkPXJO5+heOGfvKXDbew3EiS5Z5Trh2GYSjjWKwgUoJjrO/b3l/IcE21yKDm37RB6om8j1uVFAwuOXb4NtN7EMhbWA66SVk/tixb90tIWPeFP0s1zkDE11BX8O55zsw0EgJWGeGJxeYDvrjXNkj9gljRZzGvmaK65jzyf4TVxULA9H0b1yXnC8/ME37zD2TGYsxoMOgRHe2KXoIdFakKv3IJw19eh1iodBwEeAxMk0DSIlSZ6lgoKOnM2f7NJzFTjz0ZGs8uVkp4XrI5BunbGL/aQi7sxIZo/UE1GyH0STf+PC9aAx8h4N80EAjVyh0qjSIPgNAQ8AoNoEJjQ+/ozGgEcKU0Sj6icL8jQ6dDjCfOTPppI+mEByROeO78NMbYcyUfxAWy1Kzj95o0bkyV6ezfeaayef409hz7XCs+S6UAhYzkgucH/bNj6IiyjcIfgmU6GgZMaLM0QfvHENGijiOBNy+bIi/EShREobByhXcs49cE/7YEBCQDWTklw6IzodAhdFcOnn2k5E55r74CcuIzGEhDT6BCQEygQffkyxFvrXjZGkYlea7IK4r2pF8g5ZMOAYcI8yUD2z9HJhiS8gIyOi8yaYygMAx7ArueR9sY05zBbb5kOtYcI5YdZDO3J+7bOKeZiQ7n++dC9pRRlRpU7nGPAzicI1x7frtYdS5fwsdaeU4+wwM7QrtDqadjKyfj4YIogleaIe4J3zQgrmgrSQTVci22S6DG77kmOOFaeHa5Lv4gRoGImiD+XzuXdp2/534DuxzrgCPbeQbOJLRZ7+5H2j7uO6Khe9Dm+nNLfcCx445EQzqYLLJCrPPHHMCeNoEji33NO2CL2Pj/SxAQmDOAEguuCaIA/xx4/MYuPEBMMEm9yiBuM+g8R0wyD7LznbIvJEVywfuEUyuX4CGvop2Lp+FHxj44nz7gSbaT+KN7iwaQdzCcfIL/9AuYmC6M4mffoyMOQE8bXZXbSTXG1kP9ofjwfVZqLHPBwYtMaE+e5VNDMpxHdGHd1VBkAu+O+aZwQIqXdJLIGk3uK7TBzMYjOC8FmtCRQ+DwIMAzXdmdHZc2MXUfXvoiAiKKePpKgjl7zx4z1/A3OS5gj2cezENCeYFQ+UDSzoubhxG3yhlos7d7z+NFqNn3ODFwOi0H8WiI/UjN5gaMl0+8PWi0afRLiZQ4z0EeX6/aHD4SYPA/tEYM2eEToJRMwIaAk9fakWwzMhnPkbBQyfIPBpMGJ0nWRgaOF9PT+NP2Q2BFyNavB6jgtGiXI7X0DjznmJH7D18b+aBEByx75hTAv9i4fsQIPh9QRh7TB+dNMfZj97ybzp8giiyBBgpgicCD58NwsyxgERnc0oIkjF33vhRkkeHzj2IMUtfSpN7kw6NTpqSHAwbv8dwFWKA2U/mQ/nAg0CT89PZ9/QQ1FHL7csbyL4QHHc1SNEZfB/mwGC+/Wgqx3e8qZgyUg/7w2huPjXxdKwE3VxHXNNkB7N1orRtnQWCnUFWEaPL/iE6a0bW+R2BIeUqfv+5R+j48zkn2SCgZiCDdo17BAj6MGnsp7+OEYEycx0w6PkGn+kwSIWJTQ9EEPcl1z/ZGAbEaIcYNScA5xjzetoQMu/MDcxVapcNrgufoeAz6EM4jhhDTAT7yIAVAyucM4491xjtn88U8R3IHhWy3WwwYMK2MQxsm3a+2GsEuJdpE9L7CkbiCdb9gjP8zj+HihF6Bh8IFul3OY+YRN7P9+H4dlZaSlDNdcHr/PbYDp9NG0Q/xrHyfSTtGxl3+h/Kk/gePmNayCAKfSNzoLyZZYCGkkvamK7gnGLWaBu90eAa6g58d/pMX0LHdeXnwBRirjOhDcLEdGVeaAfJiLB9zjHz1rKVLPI53KcYy2ICfa55ymnZR9o7SikxvZgs+hLfTyP2H0NRTAYI00MsQKyAufeD4vye/t9XD3gRlzAwWuzgueiBEEBhYHxQy4isNzDdccEEl/m8n1ElblY6MxqkzFpTGjM6SEaYaVzI1hTyvWgUCCwZ8acRpsEkzeyDawJ8GmFGO9h/gkS+UzEdOZ9HQEJHRhBK4MREdRoiRq04tgQV3Mx+BJaOiRHZYmrd6UDSMzAcRzpoGqhssN+sFkOnxuvpoPh+XTWsHjp6Sv18gE7gQ2PLMSPgpLHKZjAxdYz48h5EZqaYCYnpcA1wXgm8+EyOLSVQhZixTDjnmDw+kw6cc0Sw44NKhKHhfsmWtSLY9LXcvJZShM6MMNc2AV26qcwmPo/RVZ8RYCTUl/9wTRN8FALHnmDDByQEDowY59NJEyRhLDBPBEjUM3d3hJDrjxIysh4+E8w1nW2Vp0Lg3s+nreDeo/PmOsbUEQBmlvxxXTPazIAB5i+fGv10MHiYY4JBjBqmgn3jmLN9tsn+++CaNgJzXAyYeNofRu796CnzsJhcT9vEtUbQwuCJz9RSukMgnCsb0Rm0N+yXLyPC1DIanq3siuNKSaVvQ/iOhZaLcF5p9wic2R+MIPPGuB8IuHIt3ML3JEgn4CXTxvnsTmAKfBdG6P39S0aIQDrfNjUTrlcGm+ivOEYMaHBcyYz4dhuRScKQZcJ2MW5+qXDuUQY7OjMFBKfsA+2Vv/+yKX2Jdt7Dog+UnnINkcHNHGzo6v7DqNH2+WuQEXr6l3zuWQYc6L94H8eHc0n/lI/5yQX3NDEGJVWYFz47nzkw7GcuOB/57A+vIXDnGGAqGLiif8uEfodzwEBZrtXoOgOzzSAxg6wMADAYRZzCfc8xpb2gDeSccO1wfny/U8ixpS/lusNgcgw5r8QBfHc/x4UBDtohriF/Hok9Mdv5HDMhUiliRpJ958NPUsM09qW+iOhUCYDZJt8hPQvBzYKJ4oLmRmLEl9GZQgNUGhefgchMg9K4MHLlg3qE2cg2YbsraOCY5Mm+kIVg1JGgnSCYzoegmHkTBBeMrvnULR0vI6109oUeb97DNjEPBBCdBcscB1Yd41iyXQIWArHOGt9MaIDITvkOx484cvyyBSseygr89cVEdc5Hd2H0jpFOvgvfg5HezibY5gPBFceQzpDsHGaUVdC8IaEcpzOzgBn2WQ06e4LyzuD647pk9JagDwPKcUKYQ0aoCOLTy4gYyeMcEOiyDQIP7gkC7HxHydhHRmh9QETGiXsrM2jPhACB4NDvI4Fjd0qcPFz3voTMB/A+K5RuYLh/CZ6KDQ6zQdBCRpESKu5F7pH0wQv+zvXL6DdGlk4/3xr9dPjutDW0LZlBM/vPiLafPMx3wQgXM4hC0EP2FWOAKSPIxLgQtBOcUpZG245ZoQ3g/uE64N/FlMrw3Qk4MGVcD2STOyvhxDxjetku1zkBUiFzboDsEoEPx4prBTHKy3nMlfngmGM+Me0MVjGQFUZpjh9EYX8wRWS0048h/RjXUL7HlWubfpA5SnxfjAz9MWaT/SS45RjnyhoRjDLHktdyzjkmXd3XfDdG2Rl9JxtCH+HbIfoprg2yZv54sW2uV19qRd/McaD9YUAM483n0d/RXnFOMvsZ9hMj60vAOH70YQTxXfWDfBb9ns8iMrhD5oJgHFNHIM4xL9TM0If758D4a8uXkPlKCmB/aPfYFvPKaLu4hnl/sW0T59yXLtPuE/B72A/aQdpDDAFtIzEEx7mQ/eS40g7RftEHZ76Pz6LM0pfR0h5idojDiNXYX97HZ3R2jrg+uH7pL2kTuAa5ZumvMIYYFowS34NyOZ+Bo+3nWmd73RmIFD0IPwfGB7YEUdxIpU7j0Yky6ZJAjTR1ev09f0svqyG4Y4S4q4a4GMgaEKDSifN9yPYUCh0AHRc3IpkWRhwYOeMzSdUS9PmMFDcnnbbfNxoJMjDFBN+MjJB1IHDuquGkQ2GEmW3SQHc1sTwTvj8jKn7kFGHOaJg6gyCefeT1jDDToYUBaX0/n4fAj/0LAwIdRsTpiNNHignQ0g12JhgR36HTUGcbHc2E64HPJCCjoyADybVAvT7mMnPSLdcIJY8EFQRsBGF02pwDgoV8oPOncyEo4bv6kikMTFcGiNE//z6udT4njI6Gz/AZGL4Pn8/9QwBHuRxBL8eHjjBb5qtY2F8CeTpaMkrppoHzQrkegaM3erQP3L9hw7YwFgTXBHIYjmKMIYNRBLy0LVyDXLtktmnbGZjxAwcEY1zbZHn8NUAgSZCaHqjlA9cTpp4Bm87uDyCw4Rhzbrlv2WahqwyRqeG6SF+MhH3t7HM4z+krlTGwVEzGOxO+i8+4cgwZFEhf/ZD2mQCNoLiQTCLZOowI72HAiwELjhcj19zvuSCw5PxzTAjumcOSz/1JP0AcQBaQ40Q7xLXPMsyM8vO5HtojfuevHQbPeFYVr+X+oE0me02f/ZCJ65p7O9OMc+zIImDW+RyuWeKAfO4vP7LP+wjm2R7HhuuAwRjKCenHCxmcAwL4zDkwfB4DGH4Ags/m72yL7ZK9pk0ko11s2Tn3HFUgbJNBBtpV4Fhz/jH8fhAN0f7ThzNAwXWf78BVV3BefWkZbR7HmPbPH1uyl2Tfic9ymSa+M+eb9/E96Zv9nF+MC/MRffUF/RvXmTcwxIKYWM5doeZT9FAYEeTmYcTO3xz5NiTFQhBCGREXLCsP+Y6VURyMi58kyAVPY5pttCAM6HQp4aLz4cZNH/XIFxoPRuwZaeA7I4KQdOPi4ebmuDJCxnHmtXQAjJIWY85o+PI5LoyWefNC6RH7Xej2aGwonfLlVHx/Gp/ORmLoEP11RSfsU9Hdhc6W64ROnWuIgKY7czCyQcfgOzIyTLlGa9l/SoPozHgt7ynUpNG5E6ijXAEk5Rl0HphG7g9KZegcuH7IauW7fDKlAgQAPotCR0UnjRHubAIshs4HLb6jCWuQg2sYw4eB8YEpnSfBDyOCHFOOL/8P6xrivLFNOlqCfAIT7mUCFYK49JWzGIXF6BRS5pQvlB1SbuU7eYwUJrVQo+bL4HwGC3GPUtueaYa4xggefTuLCMIKzcgCpiRXNiAdXsOouS+dJWDlvu0sW5MNRp0ZIKKN5XMwn3zvXGAE6M8wcZxnzCEBWHdhfwjUfB0/QZ7PzpKNZhla+hb+Xsx+QoOJdo5sAIEyI/25YBDEz2HhnuYaKtSkEcDTBnCd57oO6KP9wgkcU64bnx3KFNcXr8UU8NnpcIwoC8fM8lquB/oI+szO2nIGMjort6W/oR2h7+ms7Csb3It8V8wBn8Vxx4SxCATnAbOUuT1EuSuDknz3QvtVYgJiHD6H/oxsD59B20T23w8sZ4p24nYTbXlmRrcYKOdjkC7btrzIXFIqSNYpV6kpfYKfQ+RF2017k9mHcn0zCMd9wutou2jDuvMIBNHDYNQu3cCQNqbBx/kXWk6QDzTkXKR0rtRhEigS8DF5i8CI78AFzchWVyN6xULwwkgA+0yjQcNZTFkIDQ0jmf6GJbinnIB0ay5jwSgHwR+NAUEkI1dhjaBkwneg1p5zyvejg+N4FxqkAI0z7/epdQIBjFG2xpNg16+QhTnkfBfameSCa5JOzF8rlB1hwukIwoBjQzDgJ6lzbslwZYPrlnuFa5nAm06sMxNQLAQiBEQEf+w3tcPeANPx+zlr+ZxXyh/opP3+IUZNGUHkHsh2z5PdSjfomGFK9sIoHwPOnTcwvgafzgwT4QNy7lWuo7AyMARi/r6lbIFrlpHWzGCM+7mYWvN8IKPGiHm6kSBIonyxkLIqAi+CZB/Uk8nh/vMDQ5kQrGDKCeh5PdcSWfewzmcmjLj6B9J6cc0VunQyQTA19IwG8xkcN/oNzHvmtc//KSvy9faIY0swyrnuLtyTBHy0b3wu/RVtIW0RI+b+umWAgb8VuhgF/TL3NZ/B/UZWNltwTH9KCZUfoEL0K1QWFLsARC64PvyKYekiyGawkTaCc+NjCcTvGODLbFe49smEpWcWiAeotMi2+A+BMRke/1raQV+iRICcacYZVCrUTPgMDAaG88pnsW++VI3zTGaJbdIG+2OOYeS70bcWmpFm4Ij7jz6ac4xJZVDXb5P4hAwFRhgT6+ctIgZ2qEQoptTUQyyUOQBLP+P3k2Ps+xpE6SZZwGz7SYbKlwQirgnu8Vx9IoMLlMXRznOfMIgUZoZd9ABoKBmt8UEugRhBWSGrGuULrp0RVW4QGgk6XTog3xBwwdPYh5HezwY3K0EagRLbowNnVJuRgEJhBI5Al5FwGjBGQwjyOwsi2T6jdgSjjBDReYcVeGfis1k0gIgApdgVnWggWcWNoIPjRqDEaDyZIzobzitimxxPVjfjdTRmTCgNcx/pJHwjSQPrR6zCgO/JdU8jzedjDhj153dsg3PO6CCBIfcM9wqG7hETRrbQzisfuDa9eaGTxiRR8umPsQ8+CbK5vrqCDAMlH3xnH/BivFm1idE8ghTMJmIyMvOA2C77yXXO6/kulCRRax7GucVo+447PYPAyKZvG/iJgQkjA8PAiC+FI9hjMIORYm/O/XFhlJPgkDYjn2ObL1xHZHR80MBx9ceW4I9rLt+OnHuTMiWOG+cRY5nLuIBvg9hfv5+cX66xQsqc8oH9ZDDH7yfH14tAl1HZQgw/wTqj9r7siCATI7aeibaUIBmDTjvMXCVvhmn/+EmwHIaBoQ0g2GSgjWNI2881QtvPd2EitjeHXMOFGhiMh1/VjM9gQjf7ROaMY0o7w7HwKzD6ffTieDPIE6aBoQ3MNC9kQjBZtCcMQGAYuUe9wUS0M7TZme2En9Phy4vZV4JYrl8+h3uUNgijgyH08QmBPcaRifVsk9JX3kOgzd/Zf+aAYWoLbZswoBiYzAwC2VEGFVjghXuHdpK4xWdNaYOpKCl0AIBMBgNJmCT6ao6lNy60ByzEwD3CueeY0C74/UQMKNLuF9sGE/txbfl2gP6O9o4+m2OLOWI/fTaa78RgD+XSmXB9k6nms4jjKF/s6t7mGuB4MweY6yufATghfgCumYDIj2jzEMnu3BS5IEhhtIHOkhuFUQUCIbbpjUsxRiIf6LTJKFG65UdqGGFglIYOoVD4PG44GhyCXRqifEqYeA37WKqMC9Dw09j6NDumw6/QUiyUFDDpjhEgPpNOgo6TMjk6F44rZUh+JTd+Ul7ma13Dgn1j4j7XDR0ajWuY28CEEeD4UgHKG8iWESgQcBLoYn7T/076P+yRTg+BFp0W9wvbYlSVkXmCTV96QefJdZjv3C06aTJnmB5vDnyngxlnpJwAgQEGP9rHNcS59kEZQbY3MGFAQEZg4EsYCGYwM2Q/fAkF1xRBXXeDTwycX7TDZ3kI/BHBFiOp3hyynwQmYZXKcX1hdBlp9seSciiyiD5w4bxijvNZSIR2iECOc8W9wABCV9AGEWRzfNlntkkgxsBDZwtxFArXI6WNHGOMPkEtI8beVPB/7idGYfPF91X+/uPaIFgnCCOTRXkL/+d+4e/8m6CKfyOMD6O83S1RoQQNk8Jncv/RvgJmkkEtBgN8UMi1xLy2fEvICOJoa3xby77QJzPwx+/ZFvvK/cp9wj3McSXo5nzyO+Y+kakKo+SRawwz4MvTEH0o5cT0gZhGXsM9TPvMQBftCK/j/PDA22zmjUFK2lX2zRs19oW2BkNIO8RPBhH4G2aVPoa+1m+T4017QN/kB7U4H7SP2TLJXUE7zvf134d7FCPMgAD3DdvkHqYNJl7xRo12kuNdSCaErD5zprg/aNt8XIJo94hNfCkfx5Zgn/jJl7fxegaAi8n4cx/RlvpMGeeJ402M5PcTs8xgEQbKZ6Xpd+nXM+MXjhsmknaNwZR8r3UMKvc/2xOiKAhCCEbouEn30QiFbV6AeRe+Y/EiCOaGYJthwk1Io0lHw01PB+cDIQIEymXyvcmywY3HqAiji2zrp4ZRR+bvEPj4JZUxMOxnGMcWk8AEXzobH4BkEw06I6TFLEjQFTSaXEN03GyL4KTYcrhcEKhiBvxoHx0Z22OU3o/6Isw3HUBnI93dhe/Cdcv2GJlk34EOG4PqzzMdNhnTfOfAAKPFBFV0OOnlHpkiMKJjZo4BI4T+/uU9dFgEMGFAB8b9hKkiCGWk0//fD6wwes4x704GhgCDADa9DINzTDkk5WNcT5S1eCNOh00GiuNVDH4EmXkbBBuMqGL++WxKQhi5Zpvsp7/maJ8wrfmUkPEaRkkLNZLeLPptcj1318BwDglKyYjSl/h2gnlaZAMwWpgmX5pDgE5/U4iBYYSb75leppIpjCmmkHafIBBz6M0i93B32yfOKUGuP4+MWHtTzSAd1y0Gxm+TLE0hBoZ+i3kB3PN+n7j2aYMoh/Pb5fgyuEIGgowAwb43TT4DU0h5XjbIOjMaz7b5XAwSbVKu563QRrNggc8S8H1zLa6CwaAUifJ1gnJ/vDLF/pKl4LrCPGRCkM+cNd8e0kdR2purhDsX9ONkAvx2Mai5ljHnXHIdedPB/VtIX8D3oz318/0Qx5b9ZIAjW0DP8WIRE+YGepNKlqQrGLjkGPH9yOIw0OGPFeL+5JrNVj3A9cMx8QMGGCvamvRjy3HDjDEo0p2YSoiCIfijE2T1jLBHy9MhAPJBAfIZl0LS6vlCHSvBHqU2fiQV8W8CA9KmCzoYTEbSaWDpHOm8fMdGA8coZVij40DHxARVjC4NJ2l/Rm0JCOigCQAZTStVBg0YNWK1LAIUOsbu1v5mwjGljInOiP0jWCcg8CP1GEICejIupa7TxRhgEBhV5TpODxgYmcfA+JFJviemK985MMDoGtcOSzRjYjieZCIQgSUj5wRGfkEBAkc/14dt0nHz/bjGwhjsoBOkg8W0+XPKPjM3zZsmTEd35sCwDcoa/IRRAmmuJ9oKHzCwP4ws+8ww+4mBoWSi0IAIo0WZERlaH1iyTYwLgwE+GMMcYdr8AAvmkPObTwamGDhfGBgyiemmiVHrQrNbfBZtOMcQY+jnm7CftBP+uVBclwRPtFM+68NIOxmYQoJsRpsJ1jEIzHvAeNEO0bZz3XIfpGfDyQJhpvx+YgRYSKA7WTxMJ/cJATeGLP3e9Eac4NcHp3y3Qvo6rhu+IyaEa57t0Abxk+uSvpOstw+uCTwJegncvTnEcGBgMifOFwLHkKCUrAefybY5X+krkmVCAIsh8dlE9tu3Idng9Xx3HuKKieH64Zx688u9QBuVbZ6lh/uEa5l9p90mQ9XZ67NBdoP7nG3SrpJF6gwqVHxGmuuOayJfiD/on/016beJae0sm8LgAuedtoR95Vx01f9xDhnE5XrimvAxAsKUcM939hn0Q5gWtkfFCoMQnZ1PIcoKHVAYAUhncAP5CcM0/NyopZrjQsNFA0bgR6PPNtk2aVAagFLvazmgk/QBJR2cDwhoSA8z0TlnG8HpDoziMFJKZ81IGIEJQRgj5XyXMI1ENgj2aIQZWWUECUMc9jbZR0wSNbmMqmLKCO4pIeCaxcCRKi/1NYRZpMSFoJmAmuyah23zHQlw/agYZRcEboVkYAgoGUmmM2UUj/lYBKEERXTmPgAEtulHDH0HSDDT2STxYki/Zvl+fvlY39Fjnhj5Lib4JMgjKME80C4QlLG/6fvJ9umw0w0MgQUlZIVmYDh/mC1v+LhHCXgI1tIDQLaJ8eQa43WI80oWqFQDLVznGHUyE77tYD/J1haSgcHQkeHABLKfXBt8HvcNpU7p+8lIPkvDMoeC488Iss/AFGJguDc4LgTWzL+jHaK9pz3guk0fReb70V75skTEyDMj58WWkGGwGcTBLHAtZmYg2T4Gxgd9fptUGeTT53GvEdRzrMg2co6Yq4RR4noiS8j1n14OzDXMYINfIZBjS7BK+5zedhQC3wPzQ9YQY81AFZmYruD7kX0hyKasmLaqM7guyA7Q1tEOcS65Fxi0oAyN89pZX0YwTYaYSg6+J+ap0CwixpJzyja5R7tqR7mu6We55tlPBkXT25HOYICPDCJZZe4XxHfvbGls4Hyw2A9ZOUwT37erTDTHjTY0fSUzv00GEnJllzzEUgz4MCDKQA7XozIsokdBTTYpZ0bjaAxLZVyAoIfOjRFyAh9GBKn1L2VmqdzQkNHgUx5BY0v6l5EjAtBiamELhQCCjo3gN1vKuRSwz2QI6eAImDERhY6G5wv7xQj/MiaCFQzE/Faj6zMwfvUeb2DynQOTCeexq3NJAE9A4gNeRkbpRAudtJovnF86X4KZ9NFz9rvQ8h/2jfuDTAjzIQiyctXH+wyMN4cYmULnwGCsCbzIUGH6GIVmxJZ7JxOubf7GfvosTSFzYIrBGxgCe4IhtkmWoJASMu4Hvh9tLYNFLIjAvyklyTZCy+8wOwwI+P1kRLfQOTDAMWNAg3aIn/w/G3xHyvOY0M32kJ8DU4wJZnsYeUwRgXm2ciYCcsxV+hwYAkCy5Plmp/kMzBh9J4N//OS8ZLt+gO/hDQzmhW36OTDd6fsIkOlbMGv5PF4AE0KwTPaEAQKMXCGwH9wLZJy5d7rKenLeMf8YPIJyrkP+XwgcU8wDc4oI0Lu6z9km++VLsDCWnKt8wExSjkWGiYwRog+nr+kK9gtTTFvIIAD3b1dw7hlIoP0iw8X9yb2A8aad66xP42/cy7SXDDhgJot9xo0QCySUppH+xcWXYk5ENugkCLYK7RQXJAgGaOgJCPKpkxcLF97A+E7Ul5AVs+pOvvjlov2kf0bsycCENQcmG3SgfjSWbRLYs9+FzIHBvBBQkkEjc9jVxF46dkZx0+fA+FXI8oWBFAJOPgtD3BUEJwy4+FFStp3vHJhi4Brxc2B8qY43MPkGY8BACuVazAPsahELRqgZwSc7400TGZhiDEwhYDYIMn05FwaGRToK7Y/yva8IuAlwGbTzZp+qg0IMTKFwTWNgyIR504SB6e4cGIJ5Bsq4DrsaMGLwjL6ezAKltpinYuBe4JpioCo9y5QNAnQW42B/uU/pDwuF65J7m0qCfLLJDNhg1jFMBPdcX/kMpmFeKHkms0omH0NIRoXrsKv3M+jL+zAvtPm8Lx9o+zDaDOrSDjEgxIAu55M2qjPISlF6ybFl4IgBGSF6DDQujH6VqtEWoqdCB0Qg7yffpxuYrjr9YmH0jZFRP6EeIxPmHJhsEBwQoHgDQxkDo4f5llZxLPh+KN9yQ19C5ifnEhgVOwcmHzh2jMAy5yi97p/zW6oMjDcw6XNgCDqLmQOTLwRTlEVRuuINDHNgCi0hKwRGkclKYmCYw8Y2McHdnQPTGd7ApM+BwTSVar4nEIQz0o6B8XNP/ByYYkvIuHcIevPJtLN95j96A849mm10n5IkDAr3ElmmbJDl4nro6l7j75h8DBvtA2W/2do+zDGGgXspW9DO51AW1dm8Hg+xDHNX2E/mJ2F6smXFaJ8YYGTbbNNn9fk9r+fYsD2OR1ftNe0W94g3w5R5Zmtv+Tzaf7J1uT6Ta4G4rKtjy7khI0XmhbaIeS/ZPpPrmWPLfnVliIRYYOAGybcmVAiRP3ReuebAFFtC1hV0uGRgmEDq55Ux9yrsOTDp0GEyYoiB8cEn+0lwlM/oOceJjrirzjod9hMDQwbGr1JGB46ByafMoxj4fgR1rCbF9hBmopSLjRCQ+jkw3kyQUcPAFDp/IF8I3MjAUP5C0OnnwJCBKVXpK0EVJpiyJn9smfDfnTkwXcE15w2MNxOMYB9hKtVgHkEuBobMAMeV7IDPwBRrYIB7KFuwnAmZD5+Zpcw0M+tIaRiT3DkmlFQSZGczOMD9kM82MUxkI5iHgjnE+KTD/7m2OA4MtOQaDGBbub5LOv7zMKMsFMD8osyFAjAslMlzjfOduMbYn2zBPdvsaj/5O1ljb4Qp2c0sz+R7MW+IgQHmhtIe5/rcfNtC9pN2jzYB85Rp7si8UgqHiaMfKld1jRBCiAUcRvPoOMKaA5MPfg6MNxOYp1LOgaGDz5wDQ8BCKUWpRs+BbE36HBiMTJjPgcmGnwPjJ32Xeg4MAZUvIfMju5SQkZkIezl7D4EXq5BlzoEpdBnlQiCQowqA/fRzQ/wcmFIFXRgYShYpIfMGhhIy5h+UysAQSFNCxnNa/H76ZZS7MwcmHzDfZNLYJsc53QDzvQjAHzLxvbh/WQY4n2xHZ1CyyIplmBfawfRrls9mYQe/jDPHnsUeusoidQbmm8U3eEQAgT3lqOklk2RwMKhsi21imrjW8zFGncE96h9SysqY6fcJ+8l+sSomf2eeFaYu01QVCllSnvlCu0dJYPo1i3HhGS/+waPcv5TFFTJIJIQQogfj58B4A0NZFwaGQLhUnQmjpsyB8aVVdHCMbJZyDkxmCRmZCVZiKlVmAryBYVtsk/3FwFD20tWIabEwUZsSMl+ex7YxauWYA+PLfgjsCVhKmZkgA8NIsTdN5ZoDQ6bJm2CfgSmVgSFo9XNgvNkn4CvlypuYQz8Hxpsmn4EppYFhIIUyRLKyzG3yK46RcaHsyD/MEmPOQgAsntFd80KZFMcW80Jm1J9HMhEsWe7NFOWYPCSS+TTdMS+0p6zWhVEgE0JmlEAeMC48XNSbDO5f7mNMc3dLqmhXyVhxbCmB9IM2HD/mwPiHWXIvcexZUTHbohKFwPcme0Sbl76aG/vLKq7eFLKftB0YdZWOCSGEyBtvYBgNpEMhwGeEjs6dQDFsCHgxMGRgfCBIJ+cn8ZeqEyP4ZHK7D+zZJqPnBE6lMmpklM41eaPm58CQgepOIJQLAl6yO+ynLxWhdINAKVfdfndhm5SQZc6BofyFgLAUx5aSQEZ3ycD4INvPgcHAdHe0OhvsB1nJ9OWi0+fAlGI/+UwCO1aM8tvENFFSRKagFPvp58CQgfHZLebAENCXatl35j9wn2CAMU6UWFI6RqaCye18B84z55u5IpS5dfd7cD/QBmFeGNigXIqMQ/qDMzEuBNesWBnGvUP75penvtpERoJFEw41+YwLRpW/cR93NaclH7gHmYPCvrBKGW0SBo0yPB6EyzYxhVxj/plH3T22bAPzxbFlriNtLNskY+YzLvQzHHeMTqnaXyGEEAspdFSMdDJC77MElJDRgbJqVylgm2Qg/EPU2CZBNp0sHXwpAqRsc2DYJsaNzrUUEFyyP+lzYNgm+02pTCkgEMB4Zs6BoYSsVBkYPweGQM/PgaFkjsC+VBkYsgSZc2AoyeEJ6qXKTHBsuSfSl1GmjAkTXMhKdoVAMOkNjDdqmCYyMKWaxO9XIfOBNnNgKCHDwJRigQRG5CmZ4jrFrGBQdjCRZfH7zHnGsOa7eEZXYHIx9bR1LFHNalqUUPEwU7aH+ceQc12HNdDAdUkWhM/n2HItYZZ8xgUTQVaaDGpYAT1ZHQYSGJxieWhK0ViggOPMfcO55TttZMq2gEAxcF0yfwbzQptAiR7ZO29cGOSgxJUBpTAMmhBCiB6Kz8AQjPmOlKCslKU4jLDSWfuVsljql3poX04RNpgiOkw6Tm9geH4Cy7OWcoEQSsjSl1FmFJ2Vf0q1n0CWgAyMNxPs574mRkBLASPTvoTMb5OgjCC0FFkmwMAw2ZsSMm+CCbIJ0Eo1mss1xHK1BLYEfn4/CQi7O1cgFxw/nitCmZNf8IJMExmSUu1n+nNg2B7i+WDrmsLeJttiaeV/mLhOMYc8f4Xjiwi6MaqZk827A5/FMtQE2My7IKPGtcN+YlxYpCGsjIsHU8igENugLeDfvmyLgJ62MOxBDV8Gx8Mqye5MN1EKyDa5ZzDFYRoX4D5gWXGy3Mx94dhS2sk2aesZWKEdLkXmUAghRA8DA0P5BhM3CSTo3Es1uuthFTLK1Ohc/ehuqR+cyognnTgBxCOm7U1hjejmAgPD4gQcW4JdSkVKaQyBQIhAkICQYJAAsZSGCVj+lNp6ji2juwTApSg/9PDZGBjKjchIULfPXJFSlR96CL54ngWLFDCZnDKcUhlDINDDwFD6Q4aCrAT7Xcr9JKDFIDHnhHlx7C8GNWzzwsABWRXufzJovvwQE4wxZT/DvoY4nkzKZ1uYFW9+KV3DuLCfYWeAOVcMCPn986WdGCjmGpZiRULaNeYIYdAwgn7Qhm1jXLimws5+sJ/M4eH8sT1v8tlPb1yEEEKI0KADpfSGkWQmtJdqZNdDR0d9N8E8wUSp5iykwzYxMCybvJ2JEdFSlKplwkIIZJYoT6GcqtT7yYg926Qkh6VZMS6l3iaBEIEfTx7HuIQxP6Er2E/MAw/LZFI057PUEEwThDH/hKVmmQBd6mNLkI8x49gS0JcyW+jh/LF/LIPN/pbC5NPGUJ5FZocgF5FhYo4LpqZUmTvufW8kEP8mc8j1W4pzyX6S/WRgKH2bGBfmwZVim7R1XDM+q4QoxfOlcvy9FFAm5lc+RH6OizIuQgghQofOjJWFmDBbjoAe6NTZZqmzAukQZJNVKlWpTzYIwtjP7q7mUwgcW+YpdOd5HYVCYM+E8nKYCA/mgQnQ5ayh514hS1jKjEsmGBaObakzhemwfxzbUg5kMGjiJ+czUs8cl7BLxTIheCdbxzbJRGBcMFGlyhTSnrIs8OMmtklmws9xKWVAz1w/Mq9s00/Op1SslNcQ2R4/z8+XivE9NMdFCCGEEEIs8LCYBCWcBLuUxGFcSm3QmLuEkWA1QErimONSSoOGecEwPWQiE8Hcu1It3JEOqzsyzwVT6CfnlzprRznasyYMDKWrZFzKNRgmhBBCCCFESSELyoIEZAhYbaxU2Y90KKmklIk5d5RWlRqyK2yHifqolA8EToeV8CjBwzSx8lc5sh+U3mFaWI6afwshhBBCCLHQQJkqzwFhUYkwV77qDJYx39/Es0ZKNa8mHbI6bIvSMeb5lWPOElCOyzOQmONTjv0E9o9ji0FUqZgQQgghhFioILDnOSjlnJvFfDee/l6OLA9QNoWRKMfCGelgHji2zAsrF5hR5mbJuAghhBBCCCGEEEIIIYQQQgghhBBCCCGEEEIIIYQQQgghhBBCCCGEEEIIIYQQQgghSoZz/w+P/ICB+bYH0gAAAABJRU5ErkJggg==;strokeColor=#ff2600;" vertex="1" parent="1">
          <mxGeometry x="40" y="60" width="815" height="682" as="geometry" />
        </mxCell>
        <mxCell id="5yBTFeDSIv5BDCsm_Nhx-2" value="" style="group" vertex="1" connectable="0" parent="1">
          <mxGeometry x="181" y="190" width="58" height="20" as="geometry" />
        </mxCell>
        <mxCell id="5yBTFeDSIv5BDCsm_Nhx-3" value="" style="whiteSpace=wrap;html=1;aspect=fixed;fillColor=#021ca1;strokeColor=#021ca1;" vertex="1" parent="5yBTFeDSIv5BDCsm_Nhx-2">
          <mxGeometry x="19" width="20" height="20" as="geometry" />
        </mxCell>
        <mxCell id="5yBTFeDSIv5BDCsm_Nhx-4" value="" style="endArrow=none;html=1;rounded=0;strokeWidth=6;strokeColor=#021ca1;" edge="1" parent="5yBTFeDSIv5BDCsm_Nhx-2">
          <mxGeometry width="50" height="50" relative="1" as="geometry">
            <mxPoint y="10" as="sourcePoint" />
            <mxPoint x="58" y="10" as="targetPoint" />
          </mxGeometry>
        </mxCell>
        <mxCell id="5yBTFeDSIv5BDCsm_Nhx-5" value="Processors" style="text;html=1;align=center;verticalAlign=middle;resizable=0;points=[];autosize=1;strokeColor=none;fillColor=none;fontSize=36;" vertex="1" parent="1">
          <mxGeometry x="400" y="738" width="200" height="60" as="geometry" />
        </mxCell>
        <mxCell id="5yBTFeDSIv5BDCsm_Nhx-6" value="" style="group" vertex="1" connectable="0" parent="1">
          <mxGeometry x="180" y="120" width="58" height="20" as="geometry" />
        </mxCell>
        <mxCell id="5yBTFeDSIv5BDCsm_Nhx-7" value="" style="whiteSpace=wrap;html=1;aspect=fixed;fillColor=#ff2600;strokeColor=#ff2600;rotation=-45;" vertex="1" parent="5yBTFeDSIv5BDCsm_Nhx-6">
          <mxGeometry x="19" width="20" height="20" as="geometry" />
        </mxCell>
        <mxCell id="5yBTFeDSIv5BDCsm_Nhx-8" value="" style="endArrow=none;html=1;rounded=0;strokeWidth=6;strokeColor=#ff2600;" edge="1" parent="5yBTFeDSIv5BDCsm_Nhx-6">
          <mxGeometry width="50" height="50" relative="1" as="geometry">
            <mxPoint y="10" as="sourcePoint" />
            <mxPoint x="58" y="10" as="targetPoint" />
          </mxGeometry>
        </mxCell>
        <mxCell id="5yBTFeDSIv5BDCsm_Nhx-9" value="&lt;font style=&quot;font-size: 30px;&quot;&gt;Single Shared Counter&lt;/font&gt;" style="text;html=1;align=center;verticalAlign=middle;resizable=0;points=[];autosize=1;strokeColor=none;fillColor=none;fontSize=36;" vertex="1" parent="1">
          <mxGeometry x="238" y="100" width="330" height="60" as="geometry" />
        </mxCell>
        <mxCell id="5yBTFeDSIv5BDCsm_Nhx-10" value="&lt;font style=&quot;font-size: 30px;&quot;&gt;Array of Counters&lt;/font&gt;" style="text;html=1;align=center;verticalAlign=middle;resizable=0;points=[];autosize=1;strokeColor=none;fillColor=none;fontSize=36;" vertex="1" parent="1">
          <mxGeometry x="238" y="170" width="260" height="60" as="geometry" />
        </mxCell>
        <mxCell id="5yBTFeDSIv5BDCsm_Nhx-11" value="Average time per operation (cycles)" style="text;html=1;align=center;verticalAlign=middle;resizable=0;points=[];autosize=1;strokeColor=none;fillColor=none;fontSize=36;rotation=-90;" vertex="1" parent="1">
          <mxGeometry x="-264" y="360" width="590" height="60" as="geometry" />
        </mxCell>
      </root>
    </mxGraphModel>
  </diagram>
</mxfile>
